/* XPM */
static char *b5679218bb4c49f6da0631cbeeac5c0ekSKVsDAYdi9aW2LQ[] = {
/* columns rows colors chars-per-pixel */
"64 36 164 2 ",
"   c #050400",
".  c #090601",
"X  c #070802",
"o  c #0D0A03",
"O  c #0E0D08",
"+  c #130D03",
"@  c #110E08",
"#  c #151105",
"$  c #191306",
"%  c #1E1906",
"&  c #161209",
"*  c #1A150A",
"=  c #1D190C",
"-  c #1E1B12",
";  c #221C0D",
":  c #221E12",
">  c #221F1A",
",  c #25210F",
"<  c #2C240E",
"1  c #252214",
"2  c #282111",
"3  c #282310",
"4  c #2A2311",
"5  c #282212",
"6  c #292212",
"7  c #292313",
"8  c #292411",
"9  c #2A2511",
"0  c #282512",
"q  c #2A2512",
"w  c #292613",
"e  c #2B2613",
"r  c #2C2610",
"t  c #2F2710",
"y  c #2A2215",
"u  c #292316",
"i  c #282514",
"p  c #2A2414",
"a  c #2B2515",
"s  c #292615",
"d  c #2A2714",
"f  c #292617",
"g  c #2A2716",
"h  c #2B2517",
"j  c #2D2614",
"k  c #2C2714",
"l  c #2E2714",
"z  c #2E2715",
"x  c #2C2616",
"c  c #2D2717",
"v  c #292416",
"b  c #2E2810",
"n  c #2F2911",
"m  c #2F2913",
"M  c #2B2815",
"N  c #2B2817",
"B  c #2D2815",
"V  c #2F2815",
"C  c #2E2916",
"Z  c #2D2A17",
"A  c #2F2A16",
"S  c #2B2916",
"D  c #24241A",
"F  c #262319",
"G  c #282418",
"H  c #282419",
"J  c #2A2418",
"K  c #2A2718",
"L  c #2A261B",
"P  c #2D2518",
"I  c #2D2719",
"U  c #2C261A",
"Y  c #2D261C",
"T  c #2A2619",
"R  c #2B2819",
"E  c #2C2918",
"W  c #2E2818",
"Q  c #2D2A19",
"!  c #2E281A",
"~  c #2F291B",
"^  c #2F2C1B",
"/  c #28281C",
"(  c #28281E",
")  c #2C281D",
"_  c #2E2B1C",
"`  c #2D2A1B",
"'  c #302A12",
"]  c #312B13",
"[  c #322A13",
"{  c #302A14",
"}  c #312B15",
"|  c #302916",
" . c #302B17",
".. c #322C16",
"X. c #312B18",
"o. c #30281B",
"O. c #312B1B",
"+. c #332C19",
"@. c #322D1A",
"#. c #332E1A",
"$. c #332E1B",
"%. c #342F1B",
"&. c #352F19",
"*. c #302A1C",
"=. c #312B1D",
"-. c #332D1D",
";. c #342F1C",
":. c #362F1C",
">. c #312D1D",
",. c #37311B",
"<. c #36311D",
"1. c #37321F",
"2. c #34321E",
"3. c #38331F",
"4. c #3C381F",
"5. c #2E2C20",
"6. c #332E22",
"7. c #353221",
"8. c #353224",
"9. c #393420",
"0. c #3B3623",
"q. c #3A3424",
"w. c #3A3425",
"e. c #3D3A25",
"r. c #363429",
"t. c #3A362A",
"y. c #3E3828",
"u. c #3C392B",
"i. c #3E3B30",
"p. c #413C26",
"a. c #423D2D",
"s. c #433D31",
"d. c #444129",
"f. c #49442E",
"g. c #454234",
"h. c #4A4435",
"j. c #4D4832",
"k. c #474438",
"l. c #4A463A",
"z. c #4C4A3C",
"x. c #504B35",
"c. c #514D3D",
"v. c #55523D",
"b. c #5A553F",
"n. c #4E4D41",
"m. c #534E42",
"M. c #555143",
"N. c #5B5645",
"B. c #5E5A45",
"V. c #565448",
"C. c #595549",
"Z. c #5D594D",
"A. c #5F5D50",
"S. c #615D46",
"D. c #635C4B",
"F. c #625F52",
"G. c #666249",
"H. c #69644F",
"J. c #666052",
"K. c #696451",
"L. c #6D6953",
"P. c #6E6959",
"I. c #716C5A",
"U. c #75715B",
/* pixels */
"# # # * * # # # * # % * * * * % * * - - ; ; ; : ; 4 4 y V c , ; $ $ : 2.u.7.2.@.V V A ..M ' b < < t n < < , 8 t v ~ ` 1 $ # # # ",
"# # # # # # # # $ $ $ $ * * * * * * * - ; * * ; ; : : 4 c c < 6 % $ % , Z >.3.0.4.,.....' n m ' ' < < < V V c 5 c _ _ v = # o # ",
"# # # # # # # + # # $ $ $ * * * * * * * * ; ; ; ; ; : < t t P | Z % % % $ % , A &...&.&.,.,.,.&.....' ..,.^ ^ ^ Y L 1 = # # # # ",
"& # # # # # # + # # # $ $ $ * * * * * ; ; * $ ; ; : ; : : 4 < P ^ f : = ; % $ % ; ; , < V V V m V V V 8 1 = , = = * # + o o # % ",
"$ # # # # + + + + $ $ $ # $ $ * * * * * % % ; * ; ; ; < ; < < t M M M M M 0 ; = * $ $ $ # % % * % * & & # & # o o X X o # # # # ",
"$ $ $ # # # + + $ $ + & # # $ ; * * * ; ; * $ ; ; ; ; ; : < : j , , M N ^ A V M 6 ; ; ; ; ; ; % = = = = & & # o X X X o # # # O ",
"& & & & + # # # + $ $ & + $ $ * * * ; * * * * ; ; ; ; ; 4 t : 4 M 0 M 0 N N N N c Y *.X.X.o.Y H / 5.D - @ X X X o X X o o # O # ",
"# # $ # o o o # + $ & $ $ + $ ; $ $ $ * $ ; ; * ; ; ; ; 4 : 2 4 9 , M M N N ` N Y c u u u Y Y Y - & X X X X X X X X X @ # o o O ",
"# & # + o + + + + $ $ + $ $ $ * ; * * * * ; * ; ; y ; ; y Y Y y M M 0 0 0 0 v ` 1 1 1 F J u = @ X X X     O X X     X O O @ + O ",
"+ & * # + @ $ + $ $ + $ $ $ * * * * ; * * * * * * y P P Y Y o.p.0.2.^ ` v v 1 1 L F : = @ o .                   o X o X o O + O ",
"o + * # $ $ & + + + + + * * * * * * ; * * ; ; y y y y y Y P Y o.;.2.8.8.8._ J : $ @ @ o .   . . X X X X X O O X           o o O ",
"o # & & * * & o $ $ + $ * * $ * * * * * * ; ; y * y Y :.o.P Y a.t.y.8.8.6.u : & + o .   . . .     X   X X       X O X O @ @ @ @ ",
"+ # & * * * * + + $ + + * * $ $ * * ; * * ; : > P y y Y Y t.s.s.u.w.Y : : : : $ : * @ @ @ @ @ . X X X X X O X X X o X     X     ",
"# * & & * ; * o + + + + * * $ $ * * : * * : : y o.w.6.t.a.a.s.s.J : : : : : : H = = - @ O o           X   X     X X X           ",
"# & $ $ * * $ . + + + + $ $ $ * * * : y y P y y y s.m.m.s.p.6.7.w.w.r.r.r.r.r.6.r.r.r.5.5.> - * @ @ O O O O O O O O O O O O @ O ",
"# # & $ * ; + . . + + + $ $ @ * * * y y Y o.y y w.s.w.6.6.6.p.6.o.*.5.o.Y L > : - = @ = * @ @ . X                               ",
"& $ # $ % & O   . . o + & ; ; $ ; ; ; P :.6.6.p.g.d.t.8.8.8.u.g.h.h.h.h.a.d.j.k.h.a.-.;.*.5 0 : & # @ # @ o o o o o X o o X . + ",
"$ # # $ * * o . . + + + $ + * $ * $ ; o.o.P y > / S _ 8.8.8.2.8.y.y.a.s.a.g.j.j.x.h.a.s.s.e.e.7._ / - = - = = - = & * & = = & = ",
"$ # # $ * * + . . + + + + + * $ ; ; ; y y y :.6.u.u.8.8._ ~ ` ` : ; : F : : : - : * $ * * + + o & O           X         X . O O ",
"# # # # $ & + o + + + + * * ; $ $ * * ; : o.a.s.s.d.k.z.c.M.M.C.C.M.M.m.m.M.M.M.m.m.m.z.g.u.r.r.D - * @ o X X X                 ",
"+ $ + + $ + + + + + + & $ ; ; ; v *.-.~ o.:.P : : 1 : , : : : : v 0 , 1 / Z Z 2.8.2.8.8.8.8.2.2.8.) 1 = = = = = = * * $ @ & @ @ ",
"$ + $ + + + @ + + + + + $ * * ; $ ; u @.a.s.c.h.v.z.z.z.z.z.c.z.z.z.g.d.i.u.7.7.8.8.8.3.2.^ i / f f 0 i 0 / 0 0 F F / 1 > > 1 : ",
"+ $ + + + + & + + + + $ * ; ; : % & # # $ ; ; : : , 1 / ^ ^ _ ` / 5._ 5.8.r.r.u.8.8.r.r.r.i.t.t.6.8.8.2.2.Q / D - - > > > > > > ",
"+ $ + + + + + + + + * ; : ; 6 Y w.8.t.h.l.h.h.s.g.u.>.S S >.5.2.` _ 1 D 1 D : 1 : = = = % = # # @ # # o X # o o o X o . . X . . ",
"+ + + + o + + + + $ * ; : 1 : : 1 N ` 8.e.d.g.z.z.v.v.n.n.V.G.P.L.L.U.U.H.b.b.G.S.v.j.d.e.e.4.@., , ; = # + o X .               ",
"+ + + + $ $ + + + $ $ $ = ; ; % ; 1 = 1 D - 1 D D 0 / 2.>.>.2.8.4.7.p.d.f.f.j.v.S.S.S.G.G.L.L.H.V.V.v.z.i.>.1 : & # + o X o .   ",
"+ + + + @ + + + + * $ * - = = - = : : : , 1 , D / i i / / 1 1 1 1 , , ; 0 V ,.A 0 0 ^ 2.3.3.8.2.2.2.4.e.e.2.A N 5 = = $ % % % % ",
"+ + + + @ @ @ * : > : : 1 - 1 : , 1 : , 1 0 D / i i i i f f ^ ^ ^ V v 8 v ^ ^ ~ S S S 2.^ A @.N 0 0 0 S S S 1 , 1 , , : - - = - ",
". + + O @ * > > > > u F Y ) 5.) _ ^ / / ^ 2.Q 2._ ^ 2._ _ _ ^ Z Z S / 2.@.^ 2.2.2.Z Z Z ^ Z 2._ 2.2.2.( ) ) ` F : 1 - - - - - - ",
"O O O O O & : H 6.6.6.=.6.5.5.5.8.8.2.^ 5.2.5.5._ ^ 2.>.5.2.7.r.e.2.2.5.2.,.^ 2.2./ ^ 2.^ _ 2.8.2.8.8.8.8.8.8.5.5.) L 1 D 1 > F ",
"o @ O . . . o @ * ; : > 5.r.i.s.z.z.z.k.z.z.k.z.z.k.k.a.t.t.t.r.r.8.8.8.8.r.8.8.r.8.8.r.2.8.r.e.u.d.i.u.e.r.8.>.-._ ` f 1 N v 5 ",
"o @ O . .   . o o + o o & & & = - / / Q 8.u.u.d.g.z.v.V.Z.A.Z.V.n.n.n.n.n.V.n.g.i.u.u.r.( D D i / S 2.^ ^ >.>.>.>.2.>.-.2.^ N v ",
". + o o o + + + * * $ $ $ ; ; $ $ * * * : 1 1 L u Y Y > F L 6.r.u.u.r.r.g.V.Z.n.z.c.V.A.F.F.Z.Z.z.u.g.u.t.r.r.5./ / ) : F 1 ) D ",
". o . . $ ; y :.s.s.s.s.a.p.p.p.N ~ v u v 1 ; * : : : : = * - > D - = = D / 5./ D D : / ^ u.k.z.z.k.n.n.z.l.l.g.g.k.l.k.k.i.t.-.",
". @ + + ; : o.:.p.p.s.m.v.D.D.H.B.D.N.M.c.h.a.y.a.a.s.a.r.6.6.6./ D - - - D : ; = - - - D 1 D F - - / / _ / 1 D - = 1 F 5._ ) F ",
". $ ; ; : : ; ; y P :.o.:.p.a.f.h.x.M.B.K.L.K.H.L.I.I.P.F.D.D.Z.z.k.k.k.g.i.8.8.S / / - : : - = = = D = D : 1 D D = - = - & & * "
};
