/* XPM */
static char *a74bd0451a5e4e9ac2f5c9c15d3be112SvnHDtVofGkxDAyC[] = {
/* columns rows colors chars-per-pixel */
"62 64 183 2 ",
"   c None",
".  c #040503",
"X  c #0A0906",
"o  c #0C0D0C",
"O  c #110E0A",
"+  c #12110F",
"@  c #1C110E",
"#  c #0E0F10",
"$  c #0F1111",
"%  c #131414",
"&  c #1C1715",
"*  c #1A1915",
"=  c #151718",
"-  c #171819",
";  c #1B1C1C",
":  c #231613",
">  c #2A1511",
",  c #231B16",
"<  c #2B1916",
"1  c #211E1B",
"2  c #2B1E1B",
"3  c #321E19",
"4  c #361C17",
"5  c #1D201F",
"6  c #2D2117",
"7  c #22211D",
"8  c #2B241C",
"9  c #2D2A1C",
"0  c #33241D",
"q  c #3A251E",
"w  c #322D1E",
"e  c #392A1E",
"r  c #3D3A17",
"t  c #33321E",
"y  c #38351C",
"u  c #3E3C19",
"i  c #1C1F20",
"p  c #1E2121",
"a  c #232524",
"s  c #2A2723",
"d  c #252827",
"f  c #2C2A25",
"g  c #272A2A",
"h  c #2B2C2B",
"j  c #352621",
"k  c #342D24",
"l  c #392D22",
"z  c #322E2B",
"x  c #3C2D2A",
"c  c #2D312E",
"v  c #363027",
"b  c #3C3425",
"n  c #34322C",
"m  c #3C352A",
"M  c #3F382B",
"N  c #2E3432",
"B  c #2F3836",
"V  c #343634",
"C  c #393632",
"Z  c #363836",
"A  c #3B3935",
"S  c #343C39",
"D  c #3C3D3C",
"F  c #423C1A",
"G  c #422B24",
"H  c #452F29",
"J  c #4A2E27",
"K  c #502F2B",
"L  c #413626",
"P  c #43352A",
"I  c #433B2C",
"U  c #4A3F2E",
"Y  c #4D3826",
"T  c #58312E",
"R  c #443D31",
"E  c #493E31",
"W  c #413F3A",
"Q  c #433633",
"!  c #513731",
"~  c #5E3633",
"^  c #553F38",
"/  c #603A36",
"(  c #663B39",
")  c #36413E",
"_  c #3A403D",
"`  c #45421E",
"'  c #565218",
"]  c #5B561C",
"[  c #5F591A",
"{  c #615D1C",
"}  c #6B641E",
"|  c #64611F",
" . c #7A751C",
".. c #4B422C",
"X. c #4B4823",
"o. c #524E28",
"O. c #544224",
"+. c #4B4234",
"@. c #44423D",
"#. c #4D453A",
"$. c #504230",
"%. c #52453A",
"&. c #5C433C",
"*. c #52493C",
"=. c #5A4C3E",
"-. c #584B35",
";. c #61463F",
":. c #3F3F40",
">. c #403F40",
",. c #3E4241",
"<. c #3C4945",
"1. c #414241",
"2. c #494742",
"3. c #404944",
"4. c #4C4945",
"5. c #4C4C49",
"6. c #574640",
"7. c #544D42",
"8. c #5A4D43",
"9. c #514F4A",
"0. c #5B5345",
"q. c #55524C",
"w. c #5C554C",
"e. c #5E584E",
"r. c #565652",
"t. c #595651",
"y. c #5D5A53",
"u. c #644C46",
"i. c #634E49",
"p. c #6B4E48",
"a. c #63544A",
"s. c #6A554E",
"d. c #635B4D",
"f. c #68584F",
"g. c #70544E",
"h. c #625C54",
"j. c #695D53",
"k. c #635F58",
"l. c #6B5751",
"z. c #735C54",
"x. c #777046",
"c. c #7B744B",
"v. c #666157",
"b. c #696055",
"n. c #65615A",
"m. c #6A645C",
"M. c #716057",
"N. c #73635A",
"B. c #78675E",
"V. c #72695E",
"C. c #6B6760",
"Z. c #6C6963",
"A. c #6F6D69",
"S. c #646763",
"D. c #736C63",
"F. c #796E64",
"G. c #726E68",
"H. c #777066",
"J. c #797166",
"K. c #75716A",
"L. c #7C756B",
"P. c #7D786F",
"I. c #797772",
"U. c #7E7A74",
"Y. c #767470",
"T. c #827D1F",
"R. c #827D20",
"E. c #82756A",
"W. c #81796E",
"Q. c #857D71",
"!. c #8A861D",
"~. c #8F891E",
"^. c #948E1D",
"/. c #96901D",
"(. c #99941D",
"). c #A29C1E",
"_. c #A6A21C",
"`. c #AAA51C",
"'. c #B2AD1D",
"]. c #B6B21B",
"[. c #B8B31D",
"{. c #8B8276",
"}. c #8F867A",
/* pixels */
"                                                    -.                                                                      ",
"                                                x.                                                                          ",
"                                    > >     0 8 ,         R I U +.+.                                                        ",
"                                3                 : , 3 I #.%.+.$.#.+.                                                      ",
"                                            c.    +.I k k m 4.w.-.=.*.#.                                                    ",
"                                            $...R I R #.A a s 2.h.0.v.e.0.                                                  ",
"                                  *       b v I ..#.D f 8 F 6 8 @.0.0.V.y.h.                                                ",
"                                  % 7 +.I I v m n a 9 ' !.).{ 6 0 m +.v.k.t.t.                                              ",
"                                  M R R R I n a 9 [ /.'.[.[.).X.f x I =.y.t.9.A                                             ",
"                              #.#.+.+.R n d 9 [ ^.'.].].].`. .y 5 f P m C 2.D D                                             ",
"                          I +.E ..R n s t [ (.].].].]._. .r * - 1 a k L k c D D D                                           ",
"                    +.I I I I R C f t [ ^.'.].].].`. .F - X - W b.*.V I Q c V >.D D                                         ",
"        0       +.+.+.+.b I n f t | /.'.].[.[.`. .r * + % o ; h.D.B.6.W b z h D :.W @.                                      ",
"          q I R +.I M I n d t [ (.'.].].].`. .r + o % 5 g g f 2.D.L.F.#.U n z z @.9.q.                                      ",
"        v M I I m m n c t ] ~.'.].].].`.!.` % $ $ 5 g N V D D D 9.P.Q.M.$.I k C 9.t.0.t.                                    ",
"    k k k k k 8 6 8 s = y | !._.].`.T.o.f % % 5 g c V Z D D D D Z 5.D.J.d.U R m k.h.C.m.7.                                  ",
"  m m M +.+.I b e e j , < }  .} | o.f - % ; g N Z Z Z Z Z D D >.@.Z n 4.b.-.%.M 7.Z.V.w.#.Q                                 ",
"  9 m *.7.#.E I b v c g : e O.Y 0 , @ & a c V S A Z Z Z Z V A t.q.V Z @.7.=.+.*.^ 6.0.8.=.*.                                ",
"k , b %.*.%.#.+.I I n c p a n ; & 7 8 0 2 x D :.D D Z V 4.7.z A @.5.S.C.q.7.I *.#.H ^ i.d.f.d.                              ",
"4 & k I *.%.+.+...m b k c p - p h h V n f : x >.1.>.Z N W w.V V 2.S.r.@.V R b ..#.E J *.=.&.a.V.                            ",
"  @ f m +.#.+.+.+.I m v N B N c c V Z D D h < A :.D Z N a A Z V h a p c N h b ..E %.P %.*.*.-.u.m.P.                        ",
"  < e G L +.+...E ..I b h N B V Z D :.D :.D 2 x S S B ,.C V g C m.m.p p B h n m I #.! E *.*.*.%.6.z.J.                      ",
"k P ~ T J E +.I I I I b m V D :.>.:.:.:.>.>.c s S ) D Z h h ; 9.}.{.1.- p S a m ..$.P E *.*.*.*.&.u.D.W.                    ",
"a x / ( ~ Y I +.+.I m A D D :.:.:.:.D D Q D >.n D N d n y.D.V ; y.7.a 5 p h h k +.P G %.#.*.#.#.%.&.M.L.                    ",
"  1 G / K 0 b I I Q D _ :.:.:.:.:.>.D z q C 4.V p s i A {.{.h.- - 7 1.Z.h ; c f 9 q I %.#.%.*.#.%.%.z.L.Q.                  ",
"  ; 2 q 2 1 7 M W ,.@.1.:.,.,.>.Z N Z r.4.t.h a 9.J.W = q.d.s ; - C Q.{.h.1 d N 1 0 I +.#.+.#.%.%.&.B.E.D.                  ",
"  - ; 9 1 - - D 1.,.:.,.1.:._ C W y.y.y.1.g - g W.Q.m.; - - Q m.V + h.D.Z $ a g c 7 v +.+.#.%.%.-.p.E.L.w.                  ",
"    - ; - - Z 1.:.1.>.1.>.A m b E W W :.p % - % 2.k.z - - a P.Q.D.- * 7 a 7.A a h 5 f R +.+.#.&.p.E.W.D.8.+.                ",
"      - a V :.>.1.,.1.W A P b I I P v V a % % % & = s t.@.% @.m.2.- % a D.L.H.s a ; c I +.%.&.g.E.Q.L.b.*.*.+.              ",
"      % a Z D :.>.:.C R +.#.+...U P m z 5.V $ $ - - D.L.m.a % ; ; @.C % 4.E.h.- - a g Z U ;.M.L.E.L.d.*.*.*.*.              ",
"        ; V Z :.:.a 8 I #.*.%.#.+.R M 0.P.D.f % = # Q v.#.; - ; 0.J.J.f % g = c A 5 p n f.F.E.W.H.d.*.*.*.*.*.#.            ",
"          g Z Z a X & b #.*.=.*.*.+.7.Z.D.M.H - # = - a ; C W % V J.m.s # $ #.H.D.V ; f h.E.W.V.0.*.*.*.=.*.*.*.+.          ",
"          a h g o X + w +.7.7.7.7.w.b.b.i.! 8 5 % # ; - t.F.Q.A % z 1 a C % W J.N.@.; ; n m.8.#.*.*.*.*.*.*.*.*.+.I         ",
"            a p % + + * m =.7.*.8.V.D.s.! b D _ - # = - Q Q.J.A % - A D.W.C % W z - p ; = V w.w.#.*.*.*.*.*.*.+.U A V       ",
"              - g a + O 0 +.7.=.a.D.B.&.E I m q.V - # - - V 7 ; V ; z E.W.q.- - i g a - _ Y.I.r.I #.#.*.%.#.@.A A W Z       ",
"              % a + . X 7 m #.7.w.V.s.%.#.I I R 5.g % - a = z k.L.@.% W C - ; d ; - a r.n.D S ) A R +...W A Z D D _ >.Z     ",
"                % o . X : k E 7.0.V.a.%.*.+.+.#.4.,.- o 1 i h D.V.t.7 - - 5 a ; 1 W 9.V i p D <._ m C C Z D D :.>.>._ D V   ",
"                  o   1 8 9 M 7.=.v.j.=.0.d.h.w.9.r.Z $ o a - Q #.7 p d a - 1 A 9.Z p ; g ,.<.,.S Z Z D D >.>.:.>.>._ D W Q ",
"                        f k k #.*.0.j.u.N.A.m.v.w.5.B a o % a = - p a ; - A t.1.g d N S <.<.D Z S D D D D :.:.1.:.D @.#.#.+.",
"                          k k M 7.h.H.h.a.n.y.Z.t.q.S N p o i h p % % c q.q.D V Z S <.,.S Z Z Z D W :.D :.D D D D #.%.*.*.I ",
"                          k k v +.K.I.Z.V.l.8.k.k.0.q.y.y.i # h p a 2.q.5.,.S _ 3.,._ Z Z Z Z Z Z :.D D D D _ +.#.*.*.%.I b ",
"                            z k m n.Z.H.A.K.N.p.i.d.m.D.D.#.i q.5.q.r.5.@.S ,.<._ Z Z A Z C Z Z Z C C S W +.#.%.*.#.+.I I b ",
"                              k v W n.A.Z.Z.Q.G.i.i.a.p.p.>.F.Z.r.A.y._ _ <.D S Z D D S Z Z Z Z V V M #.#.#.%.+.I I I L b I ",
"                              v v v 4.H.G.Z.K.I.k.h.j.6.%.4.A.A r.5.S ) S Z Z V D D D @.D Z V V C #.#.%.+.+.+.I I I I b b   ",
"                                v x M y.Z.K.G.I.D.m.Z.y.#.#.,.S B ) S S S A Z D Z D D D D Z A 4.w.a.+.b L I I I I b b b b   ",
"                                  z k @.m.G.Z.Z.K.Z.y.k.9.#.D S S S D D D D :.D D :.>.Z W 9.k.k.0.+.b b L v v L b b I I m   ",
"                                  v v m q.D.G.Z.G.K.n.y.t.%.#.Z :.:.:.:.>.:.:.D :.D D 4.k.S.d.7.#.L b b I y l I I I R       ",
"                                    k k A k.C.G.m.P.D.y.9.#.D >.,.,.:.:.:.D :.D D 1.t.n.h.7.#.E L I b b m b L U R           ",
"                                      k v 2.Z.Z.m.m.A.t.@.D 1.1.1.1.>.1.D D D @.y.m.d.*.#...I I I I b v L b I I             ",
"                                      v v m q.C.n.y.t.1.>.,.1.>.,.>.,.D @.@.m *.v.0.*.+.I b b I ..I v v b m                 ",
"                                        k v A q.q.5.@.D :.:.>.>.>.:.1.4.w.7.I I +.+.I b e b I I U I b w                     ",
"                                          k m R 2.:.>.,.:.:.1.,.:.4.y.b.w.*.#.I b b b v e b b L I m                         ",
"                                          z v v V D :.:.:.:.:.>.r.D.D.d.=.*.I b b I b b e v b I b                           ",
"                                            v v n Z :.:.D :.1.w.Z.m.0.7.*.R I v I b b b b b I                               ",
"                                            v v g Z Z :.:.2.y.m.d.8.*.+.+.I L y b I I b I                                   ",
"                                              k f n Z >.9.h.t.7.#.+.R U I b L v M I I                                       ",
"                                                s h n 4.w.*.+.U I E I I b v b v I m                                         ",
"                                                a a 7 v E L b L I I I b L I b e                                             ",
"                                                  a ; f b v v y b L L I I b v                                               ",
"                                                    ; 9 L b b b b I I I m                                                   ",
"                                                    ; s I b L L I I I                                                       ",
"                                                      s m I b I I                                                           ",
"                                                      f b b b M                                                             ",
"                                                        b v                                                                 "
};
