/* XPM */
static char *_76dd3c3e01849dfeaa32eed77e6d56eGFjZcwYHeBvzeHgE[] = {
/* columns rows colors chars-per-pixel */
"64 64 222 2 ",
"   c None",
".  c #1F0F0D",
"X  c #1F100C",
"o  c #28150D",
"O  c #391D13",
"+  c #1A221F",
"@  c #392818",
"#  c #3A3913",
"$  c #36220F",
"%  c #121E22",
"&  c #1E2B2B",
"*  c #192423",
"=  c #183238",
"-  c #1D393A",
";  c #162D32",
":  c #25322C",
">  c #263F38",
",  c #273936",
"<  c #353830",
"1  c #511D0D",
"2  c #491B16",
"3  c #551D15",
"4  c #491B0E",
"5  c #6D1E19",
"6  c #41320D",
"7  c #532E13",
"8  c #5C2314",
"9  c #4C331D",
"0  c #4D3C1F",
"q  c #5D3415",
"w  c #573518",
"e  c #4B2711",
"r  c #64340D",
"t  c #6C2B11",
"y  c #662717",
"u  c #722B16",
"i  c #633A15",
"p  c #693C17",
"a  c #693719",
"s  c #753715",
"d  c #722A0E",
"f  c #4A3125",
"g  c #543D21",
"h  c #543C2B",
"j  c #4A372D",
"k  c #6C2C26",
"l  c #60372C",
"z  c #26413B",
"x  c #36453D",
"c  c #47411D",
"v  c #674918",
"b  c #784819",
"n  c #725717",
"m  c #5C4624",
"M  c #434737",
"N  c #554739",
"B  c #674921",
"V  c #684628",
"C  c #7B4A2C",
"Z  c #784A25",
"A  c #79552A",
"S  c #6B4932",
"D  c #654635",
"F  c #744C38",
"G  c #62503E",
"H  c #7D5532",
"J  c #76523B",
"K  c #1C4950",
"L  c #2C4948",
"P  c #274645",
"I  c #3B4B43",
"U  c #354943",
"Y  c #3A5247",
"T  c #2B4F50",
"R  c #2D585A",
"E  c #345553",
"W  c #3F5A52",
"Q  c #3B605C",
"!  c #46564B",
"~  c #515849",
"^  c #6A5646",
"/  c #765844",
"(  c #5E725F",
")  c #57685A",
"_  c #7A695A",
"`  c #7D715F",
"'  c #706A56",
"]  c #7C7163",
"[  c #922E0E",
"{  c #8B350E",
"}  c #833D17",
"|  c #B03C0E",
" . c #A82B0A",
".. c #964B0E",
"X. c #8B4915",
"o. c #884718",
"O. c #924614",
"+. c #835115",
"@. c #84521D",
"#. c #8B541E",
"$. c #985A16",
"%. c #88560F",
"&. c #B8470E",
"*. c #AD5F0E",
"=. c #AA5716",
"-. c #B75212",
";. c #89671B",
":. c #9C6113",
">. c #9C631B",
",. c #936616",
"<. c #AC6A17",
"1. c #B9771A",
"2. c #B26C17",
"3. c #854D2A",
"4. c #8C5525",
"5. c #8C5A2A",
"6. c #865625",
"7. c #945726",
"8. c #805233",
"9. c #835C34",
"0. c #8A5439",
"q. c #9C5D33",
"w. c #A45E32",
"e. c #836031",
"r. c #9A6637",
"t. c #A56926",
"y. c #B46925",
"u. c #B87523",
"i. c #B97736",
"p. c #A86F32",
"a. c #CB4E10",
"s. c #D5600F",
"d. c #D66B14",
"f. c #C37614",
"g. c #C87917",
"h. c #C47B27",
"j. c #855A41",
"k. c #856C4E",
"l. c #876446",
"z. c #96694C",
"x. c #986B47",
"c. c #9D714F",
"v. c #896952",
"b. c #986F54",
"n. c #897454",
"m. c #98795B",
"M. c #A66D47",
"N. c #B96F4E",
"B. c #A97947",
"V. c #A67B52",
"C. c #B77648",
"Z. c #937C68",
"A. c #837B71",
"S. c #A77E63",
"D. c #C37C4A",
"F. c #D88917",
"G. c #C7871B",
"H. c #E38917",
"J. c #E8921B",
"K. c #E99317",
"L. c #CB8425",
"P. c #DD8E2D",
"I. c #D68B27",
"U. c #DC902D",
"Y. c #CE8332",
"T. c #DC8D34",
"R. c #D68938",
"E. c #E48D23",
"W. c #E18F2C",
"Q. c #E59322",
"!. c #E7972B",
"~. c #E69435",
"^. c #E6973A",
"/. c #AE8F59",
"(. c #B48053",
"). c #998A77",
"_. c #94836A",
"`. c #A78C64",
"'. c #BE8F73",
"]. c #BF9770",
"[. c #AD8E71",
"{. c #CA8548",
"}. c #D58749",
"|. c #CB9749",
" X c #DA9145",
".X c #DA8F5A",
"XX c #E59548",
"oX c #E59857",
"OX c #E5A34F",
"+X c #C39E75",
"@X c #D08F69",
"#X c #E49962",
"$X c #C5A176",
"%X c #ECA678",
"&X c #9E9385",
"*X c #958E83",
"=X c #A59B8C",
"-X c #B39784",
";X c #B59C87",
":X c #B8A78B",
">X c #AEA193",
",X c #B5AA9E",
"<X c #BAAFA1",
"1X c #C0AF88",
"2X c #C8B28B",
"3X c #C8BA9D",
"4X c #D1B192",
"5X c #DEB289",
"6X c #C9BEA3",
"7X c #CBC090",
"8X c #D8C8A9",
"9X c #D7CBB7",
"0X c #D3C9B1",
"qX c #E7D8BA",
"wX c #E0C8A4",
"eX c #EFE5BF",
"rX c #F1E3BA",
"tX c #DED6C6",
"yX c #E9DECE",
"uX c #EEE2CE",
"iX c #F2E6D2",
"pX c #F4E9D6",
/* pixels */
"                                                                                                                                ",
"                                                                                                                                ",
"                                                                                                                                ",
"                                                                                                                                ",
"                                                                                                                                ",
"                                                                                                                                ",
"                                                                                                                                ",
"                                                                              k 5 3 3                                           ",
"                                                                            5 y 3.r.0.k                                         ",
"                                                                            2 r.oX+X@XS.h                                       ",
"                                                                            Z u.|.=X^ ;X`.j.v.                                  ",
"                                                                        6.<.i.|./.>X] ).v.^                                     ",
"                                                                        @.$.Y.$X5X6X;XF l                                       ",
"                                                                      O q 3.r.#X%X@Xk 5 8                                       ",
"                                                                    O 7 p b y.!.oXb.                                            ",
"                                                                    @ v 4.6.L.J.T.                                              ",
"                                                                    $ a 1.1.Q.!.L.                                              ",
"                                                                  o 7 b ;.G.!.^.r.                                              ",
"                                                                  O q n n 1.^.^.r.                                              ",
"                                                                  o v <.@.t.I.L.7.                                              ",
"                                                                  o i 1.h.<.L.I.>.                                              ",
"                                                                  o i >.<.F.F.U.u.0                                             ",
"                                  & : ,                           X q $.>.F.F.P.T.t.                                            ",
"                                  , * x %                         X 7 6.p.u.J.W.~.Y.5.                                          ",
"                                  ~ + x *                     c.f o 7 6.r.i.h.XX!.y.w                                           ",
"                              I & ) x , -                 C o.O.i %.g.Y.D.M.C.XX~.T.C                                           ",
"                              I & M ( > P ;             } [ { { g.F.K.I.T.}..XXX^.XXR.                                          ",
"                                I : ( E L =           o.{ ..f.f.F.H.K.Q.~.XXoXXXXXoXh.                                          ",
"                                ! R ! ) L P         r O.X.g.d.s.d.d.K.Q.E.XXoX XoX.X7.w                                         ",
"                                I W - E R R L       } d ..f.| a.s.H.K.J.E.~. X XT.D.3.                                          ",
"                                P I T = K R Y : S s { r <.*. .-.K.K.J.J.E.H.I.R.T.i.y.                                          ",
"                              U L & > P - Y h 4.4.....<.f.2.| d.E.J.E.H.E.W.p.D.}.{.5.                                          ",
"                                ~ Y > > > M w.y.i %.:.1.g.-.-.y.T.I.h.1.F.t.Z {.@XD.D                                           ",
"                              > : : z z c ;.4.v # %.$.<.=.{ s q.I.y.=.r $.9.p.{.N./                                             ",
"                                ~ z , < n ;.n ,.b v <.=.h.7.0.p.=.O.1 @ n.`.V.B.8.                                              ",
"                                  ~ , c v v ,.1.%.X...3.3.o.b b y t j 3X6X_._ ^                                                 ",
"                                    9 m # # n >.r O.e e t t t 1 d / 0XiXuXyX9X,X<X                                              ",
"                                      e.v # m 8.s i d d 8 3 y 8 8.8XpXiXrXrXiXpXiX>X^ / J l.9.Z                                 ",
"                                      M.p.8.x.l.9.s t 4 4 e J J 2XwXyX9XqX7XuXqXyX&X      x.5.A F                               ",
"                                      l.c.r.x.V.Z Z V S _._.:X;X8X_.:X).4X>X:X&X*X          S b V                               ",
"                                          D c.'.m.m.`.[.tXuX0X&X>X).n._ (.Z.N             G D S g                               ",
"                                            9.z.'.$X].-X:X>Xn.A.&X9X:X                                                          ",
"                                            f D 0.V.(.c.v./ Z.9X0X0X                                                            ",
"                                              f f f F S h v.$XwX8X0X                                                            ",
"                                                        ^ k.v.$X2X_                                                             ",
"                                                          D ^ n.n.                                                              ",
"                                                        D l                                                                     ",
"                                                      0 f                                                                       ",
"                                                      m c m S                                                                   ",
"                                                b.l.e.v v v                                                                     ",
"                                                      H H A H                                                                   ",
"                                                          A                                                                     ",
"                                                                                                                                ",
"                                                                                                                                ",
"                                                                                                                                ",
"                                                                                                                                ",
"                                                                                                                                ",
"                                                                                                                                ",
"                                                                                                                                ",
"                                                                                                                                ",
"                                                                                                                                ",
"                                                                                                                                ",
"                                                                                                                                ",
"                                                                                                                                "
};
