/* XPM */
static char *_986d2f030a14796ab189d5dc433f282wTwcTd7rBeatyzwa[] = {
/* columns rows colors chars-per-pixel */
"64 64 228 2 ",
"   c None",
".  c #040404",
"X  c #0C0C0B",
"o  c #070807",
"O  c #160A0A",
"+  c #1C170E",
"@  c #0B0513",
"#  c #140B17",
"$  c #1D1A13",
"%  c #1D1B1B",
"&  c #1A1519",
"*  c #0D191D",
"=  c #281B06",
"-  c #231C15",
";  c #2C1E15",
":  c #2B1C1B",
">  c #22191A",
",  c #331D15",
"<  c #341F19",
"1  c #301F00",
"2  c #1A2005",
"3  c #392B06",
"4  c #25231B",
"5  c #2B2B1B",
"6  c #282418",
"7  c #352216",
"8  c #372818",
"9  c #383519",
"0  c #352908",
"q  c #0F172B",
"w  c #1A1D25",
"e  c #1D0F20",
"r  c #241B26",
"t  c #1D2438",
"y  c #1D303D",
"u  c #2A2524",
"i  c #2A2927",
"p  c #2C2C2C",
"a  c #252627",
"s  c #342A26",
"d  c #332C2B",
"f  c #382927",
"g  c #2C312A",
"h  c #353225",
"j  c #33302B",
"k  c #3A3727",
"l  c #262A36",
"z  c #263337",
"x  c #33343D",
"c  c #3B3736",
"v  c #42291D",
"b  c #463B1D",
"n  c #43332C",
"m  c #4C342A",
"M  c #483928",
"N  c #453B38",
"B  c #553E34",
"V  c #523529",
"C  c #603B37",
"Z  c #4E431C",
"A  c #574B18",
"S  c #594B27",
"D  c #424134",
"F  c #4B4139",
"G  c #4A4739",
"H  c #574A3A",
"J  c #525232",
"K  c #63443A",
"L  c #69493D",
"P  c #6A4E32",
"I  c #5E6C39",
"U  c #1C2958",
"Y  c #1A335C",
"T  c #193153",
"R  c #182F4C",
"E  c #252C45",
"W  c #2A2947",
"Q  c #29334A",
"!  c #34344E",
"~  c #383B45",
"^  c #282B59",
"/  c #382F52",
"(  c #233752",
")  c #363551",
"_  c #302C4E",
"`  c #1C2D67",
"'  c #262B68",
"]  c #2A3371",
"[  c #423747",
"{  c #3B4557",
"}  c #354152",
"|  c #2C4A72",
" . c #3B466B",
".. c #4B4343",
"X. c #4D4A44",
"o. c #484548",
"O. c #594C43",
"+. c #554846",
"@. c #59534C",
"#. c #5D5C5B",
"$. c #4C4B54",
"%. c #764B46",
"&. c #675547",
"*. c #7C5745",
"=. c #645B55",
"-. c #634F40",
";. c #67694B",
":. c #62635E",
">. c #676956",
",. c #776658",
"<. c #75704D",
"1. c #425D68",
"2. c #545A67",
"3. c #484D69",
"4. c #47647C",
"5. c #5E696F",
"6. c #676666",
"7. c #747261",
"8. c #7E7568",
"9. c #656873",
"0. c #7E7E7C",
"q. c #7F7D74",
"w. c #786862",
"e. c #846F3B",
"r. c #8B5B53",
"t. c #836352",
"y. c #816D5C",
"u. c #94665B",
"i. c #867559",
"p. c #9A755B",
"a. c #8B6C4B",
"s. c #9E6C67",
"d. c #8B7C6D",
"f. c #8A7463",
"g. c #967864",
"h. c #867D75",
"j. c #A47F72",
"k. c #7C8377",
"l. c #838768",
"z. c #9B836E",
"x. c #9E8064",
"c. c #9A8A77",
"v. c #8D8D7D",
"b. c #A98469",
"n. c #A89769",
"m. c #A48672",
"M. c #B88D71",
"N. c #A9937C",
"B. c #B89876",
"V. c #ADA579",
"C. c #AEA36F",
"Z. c #C39D7D",
"A. c #C6AA7D",
"S. c #3B6192",
"D. c #565885",
"F. c #4B6686",
"G. c #557498",
"H. c #4B698D",
"J. c #647A8A",
"K. c #6A7A83",
"L. c #5478A3",
"P. c #7B8A98",
"I. c #778784",
"U. c #5E81AC",
"Y. c #6683A5",
"T. c #7796B7",
"R. c #748FAD",
"E. c #7C9DC2",
"W. c #7EA8D6",
"Q. c #7CA8D7",
"!. c #8A8686",
"~. c #968B83",
"^. c #9C9486",
"/. c #9C9A8D",
"(. c #909895",
"). c #A39384",
"_. c #A79A85",
"`. c #B89B83",
"'. c #A59791",
"]. c #99A695",
"[. c #B4A286",
"{. c #ACB185",
"}. c #A7A596",
"|. c #B6A597",
" X c #A7AD88",
".X c #8792A8",
"XX c #B6ADA6",
"oX c #BFB6AE",
"OX c #BCBCB9",
"+X c #AFB4B7",
"@X c #C8A786",
"#X c #C4AA92",
"$X c #CBB398",
"%X c #DBB595",
"&X c #D5B088",
"*X c #E1BB95",
"=X c #C8B8A5",
"-X c #E8C49A",
";X c #F6CB9D",
":X c #FAD09F",
">X c #C6C0B3",
",X c #CAC4B9",
"<X c #D6C7B6",
"1X c #D2C2AF",
"2X c #EACBA6",
"3X c #E6C5A8",
"4X c #F3D5AE",
"5X c #F9D5A6",
"6X c #EDD4B5",
"7X c #F6D8B3",
"8X c #EFD0A8",
"9X c #87A6C9",
"0X c #82ACD9",
"qX c #89AEDA",
"wX c #85AAD3",
"eX c #86B2E2",
"rX c #BDC2C5",
"tX c #D3C9C5",
"yX c #D2D5D6",
"uX c #D2CEC6",
"iX c #E6DBCC",
"pX c #E1D9D3",
"aX c #EDE9D8",
"sX c #D7DDE0",
"dX c #EDE8E4",
"fX c #F5F3EA",
"gX c #ECF2F4",
"hX c #F5F7F8",
/* pixels */
"                                                                                                                                ",
"                                                                                                                                ",
"                                                                                                                                ",
"                                                                                                                                ",
"                                                                                                                                ",
"                                                                                                                                ",
"                                                                                                                                ",
"                                                                                                                                ",
"                                                                                                                                ",
"                                                                                                                                ",
"                                                                                                                                ",
"                                                                                                                                ",
"                                                                                                                                ",
"                                                                                                                                ",
"                                                                                                                                ",
"                                                                                                                                ",
"                                                                                                                                ",
"                                                                                                                                ",
"                                                                                                                                ",
"                                                                                                                                ",
"                                                                                                                                ",
"                                                                *.P                                                             ",
"                                                    r p B %.u.s.p.p.p.t.                                                        ",
"                                                0.- , V B %.r.s.r.t.f._.^.v.                                                    ",
"                                              6.- ; f V C L r.r.t.c.'.tXfXhXyX                                                  ",
"                                              X - ; n m V K t.j.d.c.^.,XdXhXgXrX                                                ",
"                                            :.$ 6 - , 8 M f.=X|.z.z.,.N.<XiXfXuX#.                                              ",
"                                            i $ $ 4 = h 8.,X>X/.$X3XA.b.g.`.=X'.w.                                              ",
"                                          X.% 4 + + 5 7.,XdX}.^.2X5X5X-X&X@XB.`.d.                                              ",
"                                          r $ $ 6 $ o.tXaXfX}.'.8X:X:X5X;X;X2X2Xz.                                              ",
"                                          g 4 $ + h 8.=XoX=XtX'.#X*X4X4X7X7X7X7Xz.                                              ",
"                                            i > - M l.~.}.yXdX/.8.|.<XN.$X6X6X8Xg.                                              ",
"                                            F $ 5 :.h.~.=XXXpXtXXX>XuX>XN.`.6X#Xy.                                              ",
"                                              c i :.0.XX~.f.=XN.z.J : i |.[.3Xb.                                                ",
"                                              OXi :.0.8.,.f.`.p.b.`.f ; '.$X%Xs.                                                ",
"                                              tXp 6.=.,.-.j.b.b.B.3Xp.,.=X<X3Xm.                                                ",
"                                                #.X.@.O.-.m.b.M.*X7X<X|.=XiXiX|.                                                ",
"                                                OX> X.s ,.*.P M.-X4X|.<XaXfX,X,X                                                ",
"                                                yX6.i $ O.n v m.A.%X'.pXaX}.@.].                                                ",
"                                                  +XX * p > - &.a.M.h.uX/.g X $.!.                                              ",
"                                                yX5.t { { t a w 7 B =.!.d o * w !.                                              ",
"                                                2.( F.R.R.Y.4. .s B @.i a c 5.Q 9.                                              ",
"                                                z F.T.qXqXwX9XT.5.@.h - u 0.I.K.5.hX                                            ",
"                                              { ( G.qX0XW.0X0XW..X9.H k h ..v.(.P.gX                                            ",
"                                              q | H.qX0XQ.eXW.wX9XK.l.A H N {.].P..X                                            ",
"                                              q R | G.0XW.W.wXW.Y.4.k.P H K V.7.G.I.                                            ",
"                                            o.E ( T | U.qXwXW.U.H.F. XS K K C.l.1.J.                                            ",
"                                            p ( T Y Y | Y.9XU.H.S.F. XA < v m {.1.}                                             ",
"                                            t T ` ' W N P a.7.D.] ! C.A 3 0 8 [.D. .                                            ",
"                                          g y U ] ' / =.n.n.k.$.' ! C.A 3 0 7 c.3.^                                             ",
"                                          E U U ' ' [ g.e.b 7.;._ / V.Z v 1 < i._ ^                                             ",
"                                          E U ` ' ' [ i.V.;.;.I ! _ N.Z 3 = 7 d.~ )                                             ",
"                                          E ^ ] ^ W N *.<.f ;.J W W c.Z 6 7 , ,.~                                               ",
"                                          w E U Q p 9 = O O G J Q W 7.9 7 n 7 h }                                               ",
"                                          a l E x 9 9 O : # f n x x O.k h N f i                                                 ",
"                                          .Xp x j 9 5 - > e e N o.X.h k h ..o.X.                                                ",
"                                            a $ 6 5 G N d r r d j D 5 D G o.p %                                                 ",
"                                            a . O r d D $...=.w.O.k 5 D k & . .                                                 ",
"                                            p o . # # a 6 s Z H G G k $ O . . .                                                 ",
"                                              & o @ @ o o 2 9 b M $ X . . X *                                                   ",
"                                                e # @ X X k @.8.  s X X X p                                                     ",
"                                                          k.h c N                                                               ",
"                                                                                                                                ",
"                                                                                                                                "
};
