/* XPM */
static char *_c5019accf9b41e892b3f9194f8c6a84AVbYinylNfXtUSH4[] = {
/* columns rows colors chars-per-pixel */
"113 64 256 2 ",
"   c #3E3315",
".  c #493E1D",
"X  c #443923",
"o  c #57431B",
"O  c #4F421F",
"+  c #65481B",
"@  c #574E2B",
"#  c #68562B",
"$  c #765A2A",
"%  c #6B5B32",
"&  c #765D34",
"*  c #674D25",
"=  c #79642D",
"-  c #756333",
";  c #7C6435",
":  c #7C653B",
">  c #7C6B3B",
",  c #776739",
"<  c #6E6535",
"1  c #7B6C42",
"2  c #7E7244",
"3  c #756D49",
"4  c #855D32",
"5  c #83642D",
"6  c #836B3C",
"7  c #8C6D3C",
"8  c #876737",
"9  c #956A3A",
"0  c #8B733C",
"q  c #8A743B",
"w  c #92743C",
"e  c #94793D",
"r  c #997A3C",
"t  c #906D2F",
"y  c #A2763D",
"u  c #836D42",
"i  c #8C6D43",
"p  c #8C6843",
"a  c #857243",
"s  c #8B7343",
"d  c #8E7946",
"f  c #83744A",
"g  c #8A754A",
"h  c #8D7B4C",
"j  c #877A4D",
"k  c #937543",
"l  c #9B7443",
"z  c #947B44",
"x  c #9B7C44",
"c  c #947B4B",
"v  c #9B7D4B",
"b  c #96734C",
"n  c #8B7B52",
"m  c #937D53",
"M  c #9B7D52",
"N  c #9A7953",
"B  c #946D44",
"V  c #A37D4C",
"C  c #A67B47",
"Z  c #AA7F51",
"A  c #9C843F",
"S  c #9C8244",
"D  c #94824B",
"F  c #9C834B",
"G  c #9A854A",
"H  c #8D8456",
"J  c #958353",
"K  c #9C8353",
"L  c #9D8A54",
"P  c #9C855A",
"I  c #9C8B5B",
"U  c #94875A",
"Y  c #9A935F",
"T  c #A28344",
"R  c #A3844C",
"E  c #AB854C",
"W  c #A48A4D",
"Q  c #AB8C4D",
"!  c #A78A45",
"~  c #B48A4D",
"^  c #AD924D",
"/  c #A5914B",
"(  c #B2934D",
")  c #B7994F",
"_  c #A38553",
"`  c #AA8553",
"'  c #A48B54",
"]  c #AB8C54",
"[  c #A4855A",
"{  c #A38B5B",
"}  c #AB8D5B",
"|  c #AA865A",
" . c #B28D54",
".. c #B38C5B",
"X. c #B88956",
"o. c #AC9254",
"O. c #A4915C",
"+. c #AD935B",
"@. c #AA9758",
"#. c #B39454",
"$. c #BA9654",
"%. c #B49956",
"&. c #BA9B55",
"*. c #B3945B",
"=. c #BB955B",
"-. c #B59A5C",
";. c #BB9C5C",
":. c #BDA25C",
">. c #BBA257",
",. c #BAA44F",
"<. c #998761",
"1. c #9D9465",
"2. c #AC8E61",
"3. c #A48C64",
"4. c #AC9463",
"5. c #AD9964",
"6. c #A99668",
"7. c #B39562",
"8. c #BA9662",
"9. c #B49B62",
"0. c #BB9C63",
"q. c #B49B6A",
"w. c #BC9D6A",
"e. c #B5946C",
"r. c #B4966B",
"t. c #BCA264",
"y. c #B5A26D",
"u. c #BCA36B",
"i. c #BAA768",
"p. c #BBA372",
"a. c #BEAA74",
"s. c #B7A675",
"d. c #AFA574",
"f. c #C29D5D",
"g. c #C7965A",
"h. c #D49A5E",
"j. c #C28E54",
"k. c #C3A45D",
"l. c #C4A95C",
"z. c #C8A85B",
"x. c #CFAC5A",
"c. c #C39C63",
"v. c #C89A66",
"b. c #D29C65",
"n. c #CA9F74",
"m. c #C3A464",
"M. c #CAA464",
"N. c #C5AA64",
"B. c #CBAB64",
"V. c #C3A46B",
"C. c #CAA56B",
"Z. c #C5AB6B",
"A. c #CBAC6C",
"S. c #D2AD6C",
"D. c #D7A868",
"F. c #CCB265",
"G. c #CDB26C",
"H. c #C7B26C",
"J. c #D2B365",
"K. c #D3B46C",
"L. c #D4B96C",
"P. c #D9BB6C",
"I. c #DAB56A",
"U. c #C3A572",
"Y. c #C4AB73",
"T. c #CBAD73",
"R. c #C4AC7A",
"E. c #CCAD7A",
"W. c #CAA474",
"Q. c #D5AD72",
"!. c #C6B174",
"~. c #CCB273",
"^. c #C5B27C",
"/. c #CCB47A",
"(. c #CEBA79",
"). c #D3B473",
"_. c #DBB474",
"`. c #D4BA73",
"'. c #DBBC74",
"]. c #D3B57B",
"[. c #D4BB7B",
"{. c #DABC7A",
"}. c #DCB679",
"|. c #E2BB74",
" X c #E3BD7C",
".X c #E6B876",
"XX c #E3AF6D",
"oX c #DCC274",
"OX c #DDC27B",
"+X c #D9C67C",
"@X c #DDC16D",
"#X c #E3C476",
"$X c #E3C37C",
"%X c #EAC47E",
"&X c #E4CA7C",
"*X c #EBCB7D",
"=X c #E5C975",
"-X c #EBD37D",
";X c #EBC877",
":X c #CAB683",
">X c #D3BC83",
",X c #D7BA86",
"<X c #CBB388",
"1X c #E5BD83",
"2X c #DCC283",
"3X c #DCC48A",
"4X c #DAC787",
"5X c #DDC994",
"6X c #DDD28B",
"7X c #E3C483",
"8X c #EAC383",
"9X c #E5CA83",
"0X c #EACC83",
"qX c #E4C48A",
"wX c #E4CB8B",
"eX c #EACC8B",
"rX c #EFC78C",
"tX c #F2CB88",
"yX c #EDD384",
"uX c #ECD38B",
"iX c #E8D589",
"pX c #F2D48C",
"aX c #F4DB8C",
"sX c #F9DC8D",
"dX c #F4D684",
"fX c #E6CC93",
"gX c #EBD392",
"hX c #EAD698",
"jX c #F4DB94",
"kX c #FBDC94",
"lX c #F6D999",
"zX c #F7CE95",
"xX c #FAE38C",
"cX c #FCE393",
"vX c #FDEA94",
"bX c #FCE49B",
"nX c #FEEC9B",
"mX c #F4E498",
"MX c #FEF29A",
"NX c #EDE397",
"BX c #F5DBA5",
"VX c #EAD6A6",
"CX c #FCE4A4",
"ZX c #FDECA3",
"AX c #FEEBAB",
"SX c #F8E7A8",
"DX c #FFF4AB",
"FX c #FEF6A6",
"GX c #FFFAB7",
"HX c #F2E7B4",
"JX c #D6CDA8",
"KX c #FFFACA",
"LX c #FEFCD9",
"PX c #F5ECC3",
"IX c #FFFFE3",
"UX c #BEB185",
/* pixels */
"' z D e z D G @.R D o./.9.-.Y.eXnXdXJ.F.oX-XsXP.&.$.! T R z k { 5.Y 5.Y L h > - % % 2 6.e.6.D s R @.e 4.y.P s.<X3.6 F 9.qXtX8XS.#.-.x G 6 d # < 3 @ @ @ @ O X X O , J J d G +.' W./.:X<Xy.6.I J i.:.2XgX!.;.B.B.`.%.Q %.%.OX2Xw.9.",
"5.G q q G G t.!.W ] W -.*.-.;.A.vXoXF.&XnXnXuXoXuXA.M.%.-.K c J D L 5.L d P d 1 , % 1 n m 3.| F t.~.e ' 5.5.,Xd.K | w F T =.( M.;.R R G G 5.n < @ O X @ O   X O o # d ' G S %.G.;.+.V...F z > 0 t +.[.4X:.! Q %.:.m.-.R C ] e e F ",
"@.9.W z e i.2XwXwXu.T ^ ! A Q '.oX,.,.F.jXbX'.$XbX).A.,Xa.4.d H > - s 6 c s u : , u a a h z } ,XlXA.] (./.{ L h d | F x r T ~ ! m.=.m.-.t.9.5.D , - 3 , , 6 K y.D o.Z.`.F.>.F.G.l.D.$.E 0.*.*.9.*.%.!.).m.m.%.;.m.Q ` W V x w l 9.",
"r G t.S G 9.H.[.jXH.&.:.( ^ ( %.,./ @.^ N.H.i.9XeX2X).u.K 5.h , u , a - s u s u > ; 6 s 0 z @.7XeX].Y.hXfXF G z s F F ] B.Q ( $.B.C.Q =.t.@.o.L / G L Y @.i.Z.iX`.'.-XvXvXdX-XdXI.'._.S.eXgX].7X{.H.^ %.].Z.).'.m.;.0.#.l } V.9.%.",
"S t.9X%.%.t.N.:.L.F.@X@Xk.,.x.'.H./ ! A -.:.>.t.Z.@.@.S L J H 2 c g ; 6 M q.s : : d 6 0 G %.%.{.wXG.2XA.V.' z G W G -.;.=.N.).M.G.H.%.$.%.Q / t.t.@.-.G.`.`.G.iX@XxXvXvXvXMXMXxX=XF.`.{.).]./.{.'.>.l.L.oX=X0XI.k.P.m.( %.;.A.T.B.",
"%.;.;.:.:.:.oX9X9X;XP.J.x.J.@XyX+X,./ / @.@.-.i.t.o.G q d d 2 2 j J h L 4.p.L _ { z 0 +.m.1X{.{.{.;.m.t.!.W o.:.%.%.C.kXkX#XK.*XvX@Xl.%.o.t.%.@.G %.o.!.`.i.B.:.+XiXMXMXMXaXdXxX=XF.F.9X}.m.m.B.B.F.l.cXsX0X#Xz.'.%XK.J.'.t.m.{.S.",
"B.A.k.>.N.>.#X@X,.@X-X@X@X-XdXdXxXH.>.@.>.a.i.oXiX!.G e > < < D a c d ; K 4.{ ' R.O.G t.2XlX9X{.C.W #.=.m.;.%.( G.`.0XkXsX%XsXsXMXoXF.,.^ ^ %.-.S %.i.t.:.G G / ,.+XMXMXMXMXMXxX&Xi.:.m.C.A.%.A.B.>.H.yXF.L.z.G.$X|.iX].=.Q -.;.Z.",
"( l.B.OX'.oXF.F.F.J.-X-X-X;XsXxX+Xi.i.>.@.H.%.i.`.Z.S q q D D > > d d c F w = } F D +.@.R Q ;.:.-.Q T ] %.B.OXN.k.kXsX;XI.D.;XdXxX-X,.:.,.G -.!.O.a.>X+.G D e / ,.+X-XNXMXMXMXvX&XoXL.G.K.`.{.K.'.N.l.>.( G.K.0XpXB.7XK.^ Q $.t.0.",
"l.oXoX+XoXoXaXvXvXdXvXMX=X@XxX;Xl.L.:.! / %.:.Z.H.:.@.S q D Y L D D @.y.o.D F z D G D ] ' *.Q ;.@.] T ] W &.m.%.k.J.x.*X;Xx.x.g.J.-Xx.,.H.i.%.[ L i.i.A G G L (.i.-XxXaXxXvXxX-X@XoXl.P.|.#XbXK.%.%.:.N.&.N.0XcXK.N.F.7X'.%.:.!.;.",
"H.F.H.oXyXmXMXMXMXMXaX=X-XsX-X-XB.( @.^ / :.`.`.OXG.>.W S @.i.s.J L @.L G o.+.F q +.' L 9.t.@.] ' ] ' G ^ m.'.B.z.J.*X*Xx.XXx.x.dXdXl.:.G.i.] z 0 D q e S G i.Z.,.@XoXiXxX-X-X-X@Xl.z.J.tXdX*XyXoX%.H.+XN.).iXF.L.'.N.9XuXOXG.-.@.",
"oXL.9XaXjXmXaXiXmXcXmX&XyXsX@Xk.:.A %.m.>.N.+XOX&XG.;.&.>.5.9.@.D G Y S G W *.+.+.L G ' [ W ] v q z ' ' ] ^ ;.N.I.S.#XI.;X;XXX-XFX*Xk.t.*.7.v ; = q q e A / %.-.;.:.l.@XaX&XoXL.F.k.=X*XpX=Xl.=X+X!./ ! L.'.N.k.L.aX0X9XbXpXG.`.).",
"NXmXDXFXmXiX6XoXL.`.iXOXH.oX'.&.( o.A.].+X{.`.OXpXuX7XH.:.@.O.' D G Y G L S ' ' 9.u.{ u.' +.W.z v F ' *.+.o.;.eX2Xf.$XM.tXdXx.sXkXm.0.w.w.4.M s 0 r A S ^ >.) f.%.%.-.>.G.F.k.! m.N.$X$XB.,.l.G.>.o.W ^ :.:.B.k.`.`.G.{.).V.G.=.c.",
"NXFXFXFXmXNXhXH.+X+XwXgX[.m.V.-.o.u.A.V.V.A.{.jXeXlXeXm.] ] +.O.5.Y { ' +.] +.} u.' w.w.9.0.7.*.] +.5.+.+.9.9.E.+.-.w.@.k.2X[.[.!.^ _ c m 2 & - > D i.iXpXI.'.%X7XrXzXqXB.^ ! ~ C. X1X7XOX{.bXbXuXfXgX[.%.! {.CXBXv.Z V z V l i i ",
"iXMXmXFXMXFXDX6X/ G q G W F x = w v F S S z w w r Q *.=.0.w.q.6.5.I | 7.7.9.c.V.w.F <X..v } *.+.9.i.Y.9.7.} L F _ K ' ' a.fX!.^.G < > u n <.<.3 6.4XhXjXCXpX%XkXzXlXkXkX0X'..XtXkXDXAXCXDXbXZXZXDXAXGXlX].t.qXBXzX,Xv p 8 & 4 b N ",
"FXGXDXmXSXGXGXDXi.= $ @.E.U.w.w.e.:X<XR.[ 5 7 x R x k x v s 8 s 6 8 u v v _ ..0.0.*.E.VX} v *...9.t.q.4.6.L L J P P H Y UXd.2 < # 2 <.JXJXPXLXJXHXKXKXhXAXBX#.M..XI..X;X%X;X.X.XXX1X.X.X8XP.L.&X$X$X$X{. XQ.}.}.Q.n.n.Z N b N 2.,X",
"MXMXFXNXZXDXDXDXDX6X~.7.0.:X<X/.,XfX:X,X3Xu.w.W.V.w.0.c.E.9.8 + o + + + + 7 l 8 _ ' BX,Xw...] *.9.u.9.u.u.u.4.K I 3.d.1.U U < # H HXPXIXIXIXIXLXLXKXKXKXBXqX=.M.|.D..XXX.X.XXXXXXXD.XXD.D.D.I.J.M.x.D.M.I.M.S.v.v.v.e.Z Z N p Z 8.",
"-XxXaXdX-XyXaX*XpX0X0X8X..*.8.| 7.2.7.e.p.w.w.0...V.].V.T.).t.w w k t w ] w.~.o.-.Z.wX].0.8.8.V.T.!.~.>X+X!.>Xi.O.6.:X<Xd.2 j 1.UXHXKXLXHXLXLXLXKXKXPXHX3XV.~.T.|.'.|..XXX.XXXXXh.h.h.h.x.h.h.D.h.M.b.g.h.h.g.g.g.b.v.Z e.N % * N ",
"#XoX#X#XoXL.K.=X|.'.'.7XC ] w._ K 3.3.2.7.e.U.r.w.V.} =.T.[.[.G.A.A.!.Z.Z.`.OX`.Z.t.).u.Y.T.T./.Y.V.Z.{.u.t.hX3X/.a.s.U U 2 n n 1.d.1.H H H d.UXJXVXBXY.' *.0.).).7X0X X.XD.XXD.XXb.h.b.h.h.j.g.g.g.g.g.g.j.j.b.g.v.n.n.UXZ & o % ",
"].Z.u.' S @.u.T.T.).].T.+.U.P 3.{ m i N M N P [ b 6 } Y.V.R T.2XOX+XL.l.`.`.H.+X2X`.oXG.).K.G.OXZ.-.u.H.:.-.3XSX4X,Xs.- % 2 <.n n H 3 3 @ < H a.JXBXhX/.o.G T.SXjXwX{.,X1XZ y b.b.D.D.D.b.g.$.g.v.g.=.v.b.j.Z j.v.v.v.e.Z N % X @ ",
"> : : 6 : > d 8 0 0 F s d :X<.m & 1 & % * + * + $ 8 R.R.].a.Y.[.+XoX+XiX4XiX4XH.%.i.N.G.i.B.l.+X2Xu.u.u.G W t.!.5Xa.R.UX3.2 f j n % % % Y UXFXKXAXAXhXfXwXZ.{.lXCXBX/.].zXE 5 E v.v.=.g.b.M.g.g.c.f.=.j.v.j.C y l Z 2.i N p X @ * ",
"o * j a.4.- > G d L q $ 6 6.d.<.I I h 6 & * $ d 2.U.fX,X9./ i.gXiXaXiXiX(.a.>.d @.a.!.+X!.L.>.t.!.a.9.!.S i.hXt.9.q.:X,X4Xs.6.U N % % f s.6XSXjXiXpXkXpXCXCXwXeXjX4XwXCXSX).=.E C Z ~ $.b.C.M.v.f.D.v.f.=.8.*.X.n.2.7.4 $ o @ # % ",
"p.:X5X5X5XVX5X4Xu.u.u.^.y.4.s.:Xs.O.h a L y.:X,X5XSXAXhX!.Y.NXZXZXDX4X4X+XG = q +.!.4X4XgXiX+XH.o.+.o.*.S Y.BXY.u.4.L K <X:Xp.p.3.e.d.<X^.+X4XiX9XyXdXtXtX XQ.].~.gXlXgXBXgX].m.v._.1X1X8X X8X8X1X1X8X{.Q.c.v.C.c.W.<XN % # n s.s.",
"(.H.!.Y.[.4X(.Y.Z.V.Z.Y.U.4.4.VX<XO.D 5.,X>XR.4XSXSX(.Z.(.H.hXGXDXmXNXZXmXa.i.a.4XfXSXCXAXbXcXwX>X^.>XY.i.Y./.>XU.a.r.c | u P :X,X,XVXVXwX~.'.pXcXdX.XtXtX|..X}.S.).).~.{.).B.].8XeX8X8XtX1X XD.D.D.D.S.c.c.V.v...w.w.} | [ K y.e.",
";.:.%.N.!.N.i.t.A.A.T.E.} | r.e.5.+.5.4.5.q.O.R.Y.^.' ' @.t.:.t.!.+X4X(.(.Z.a.(.:X>X2X2X[.~.!.u.@.4.a.a.Y.*.~./.w.+.+.' K F 7.,X,XfXrXlXjX9X`.0X*X%XpXtX X8X}.S.C.m.M.t.m.).m.C.).{.}.}. X X X.X.XXXXXS.f.=.V.w.w.} w.} } K P K Z ",
"t.^ Q @.9.t.m.0.;.Y.W.c.2.V 2.[ P c K K | K K M c ' { L _ o.F L G u.u.0 0 D W S ' t.9.+.} K z s q D 4.G ]././.[.V.F F k _ 9.} U.`.+X9XgXlXuXOXuX8X$X%Xk.S.K.G.{.B.m.m.#.C.wXM.T.A.C.).}.C._.S.I.D..XQ.f.8.8.u.7.v } 2.} v c K M N ",
"-.] #.' ] *.] 8.m.Q._.,X1X8.7.p.[ K D | u.} M } | [ ' _ F 9.u.+.k Y.y.} W 8.~.o.@.).3XqXT.u.F v v +.q e ~.fX>XV..._ k 7 F +.+.Z.H.oXjXnXjXbXjX9X7XQ.;.Q  .V.).(.[.].x ' ].3XV.w.0.W.].c.M.V.v.X.M.Q.M.0.*.*.} } v M c M m m g i p ",
"] _ F F ' ' ] 0.m.1XlXAXCX).@.W 0 z c k | [ _ R v } ] l R V.Y.u.V.~.Z.).`.L.F.oXpXaXpX9X`.A.-.u.+.9.z q (.qXu.F F R c z ' 9.u.t.i.xXFXDXZXSXSXSXwX/.(.-.u.5X!.i.,X5Xr.6 L s { P P 4.3.2.} } _ _ v.w.v k d c h M u u & u f g 1 : 3 ",
"7.u.[ K F ' 9.o.=.).pXjX9X[.K.*.o.R +.8.] x _ F } V.9.R R 0.t.u.Z.-.N.N.%.F.z.z.#X#XoXB.A.A.A.A.t.4.i.W Y.~.@.@.+.+.+.} G 9.Y.i.i.6XGXFXmXSXGXhXY.^.5.y.a.^.a.d.d.6.y.j # & % > : : : b : & $ & & ; ; - , - u g m m 1 u n m m h N ",
"u.t.} +.+.W ;.o.k.B.$X$X'.&XaXuX`.A.{.).-.] V.C.;.#.-.#.S  .;.N.t.[.m.] &.l.B.( >._.L.B.B.`.].N.*.o.u.:.#.%.R +.+.*.i.5.+.i.u.!.6XNXFXNXNXNX6X5.^.Y y.y.d.Y L d.<.H f <.1 * n 1 1 % 1 # o & u f h M P h a > I d.3.3.h m n m U 1.e.",
"0.] =.0.-.] ^ =.k.K.|.'.%X$X'.'.{.Z.=.] ;.m.A.0.=.*.Q T x %.:.V.~.N.C.%.;.m.).;.m.S.;.K.m.).A.m.t.t.~.!.V.t.Z.%.t.U.Y.u.3X5X^.2X+XNX6XFXSXNXY D 5.D Y s.y.U Y > 3 , % 2 , < n n 3.n N & % n 3.q.d.y.q.s.6.5.5.O.{ | F P P g g J d.",
"k.C.S.;.;.M.=.M.S..X.XD.|.Q.c.c.8.o.] ] } R ` *.0.V.*.x W u.;.*.-.@.;.A 0.T.A.].c.0.-.Q.A.G.Z.A.A.Z.H.m.N.Z.2X!.Y.a.O.@.:X5X(.!.!.i.d.+X4X4Xa.(.a.L L L H H 2 @ # % < % m n 3.N 6.3.P P c P P 6.r.{ O.Y.a.>X(.4.[ ' _ v [ c D J m ",
"C.A.=.;.T.c.c.7X1XS.C.f.c.f.=.=.-.] ] F x R 0.7.*._ [ ] ] 8.*.@.@.T G R t.*.w.c.] ..V.-.%.-.:.k.G.~.G.G.;.G.~.(.~.u.@.5.i.a.4X@.G Y d.H a.d.L O.y.4.h q q = < > , 2 - a 6 6.3.<.3.3.P P 6.P { 5.4.' 9.q.9.a.3XZ.] o.F 5 z z { G m ",
"c.=.=.#.C.,XY.A.W.V.+.0.u.l R ] +.' z 5 c _ 7.+._ z } *.R F 9.*.x W W e W o.@.0.+.R ..] m.Q &.A.m.N.H.Z.t.H.V.t.3X3Xu.Y.Y.O.L U H j n <.H 2 < > j H G O.a.5.L F O.' +.@.a.i.y.5.a <.6.e.6.m K q.w.*.0.0.w.Y.fXY...7._ 0 F _ K G F ",
"c.8.=.8.A.W.*._ F [ M k [ ] ] ' ] R 5 5 v _ K [ ' R v @.9.F 7.] G ' o.] G W 0.;.*.' o.0.m.:.N.k.K.G.N.:.:.N.%.' u.[.:X/.R.O.j > n 3 3 U 3 3 > f D @.^.5X5X2X~.@.o.3XwX9XH.(.4X5.; a <.N 3.P s w.Y.m.V.u.Y.Y.Y.7.} v v v | K d K O.",
"W.C.c.8.0.] ] | ] ' +.w ' T.V.#.R +.t ; ' 4.z 8 v ] S o.u.o.9.+.G @.Q -.&.o.-.^ ^ #.%.G.A.L.&X'.`.OXK.N.:.t.Q o.Z.w.u.u.a.:Xs.D 1 f 2 2 < < D s.5XhXgXhXlXwXeXgXY.[.jXgX+Xi.4X!.z & u m m M q.F T Q Q G Z.9.' 9.' k k R { z z G o.",
"Q.c.E Q  .] R R *.' 8.R *.).A.#.o.+.G ' W.7._ W o.t.t.=.t.u.] Q o.u.@.G.{.G.m.^ ( ~ %.K.&XcXcX*XoXK.l.N.:.k.( %.).M.R [ :X4X5Xa.s.Y D 6 $ = 5.4XhXfX/.+XgXeXeXeXqX,XgXeXmXgXCX6X:XP d 7 3.R.Y.w.` ;.w.o.u.] ] 9.] R ' w.+.F o.D *.",
"W.E r 9 l x l x v v =.Q V.m.A.#.-.@.o.0.V._ ] 8.+.N.).`.'.{.T.t.Y.G.Z.OX`.G.K.( ) ( k.K.aXvXxX-X*XS.k.l.&.f.k.;.].m.0.V.5.L a.a.5.4.D O.Y.4X>X!.^.!.[.`.2XeXeXA.A.,XG.9XjXZXAX4X^.Y.4.[ :X,X+.8.;.%.*.*.@.o.u.+.7.o.8.w.+.] *.W -.",
"X.C E E R ` S ] x ] u.;.).M.Q.;.0.V.u.T.;.] *.u.A.[.7XeX Xf.k.%.N.`.{.9X'.'.%X$XK.K.*X*XvXMXMXMXkX0XpX0X'.oX9X#XM.;.A.w.o.d c p.o.] 9.3X(.4X(.~.Z.Z.`.A.m.N.M.;.%.Z.V.).2X9X`.Y.T.^.R.R.U.9.t.#.0.-.W / -.*.i.o.9.R 0.%.] @.@.@.G ",
"X.Q =.v.V.w.] F l *.c.m.S.B.C.f.0.%.o.T.;.] R m.M._.$X'.B.! Q ( Z.{.9XK.K.K.J.%X X'. X=XcXnXMXaXyX$X0X'.$XpXpX`.B.$.=.*.F F K { ' G 9.wXfX3X%.w.Z.G.V.A.A.0.~ #.#.%.A.#.:.t.%.@.9.7.E.u.w.*.x T R o.D G 9.i.9.@.] W 8.9.t.t.%.@.W ",
"0.c.w.w...] | v l ]  .;.m.m.=.m.m.;.] ] *. .Q #.M.B. XB.J.k.f.A.N.t.).M.k.I.|.tX|.{. X9XuXuXaXL.).'.OXl.`.yXpX'.{.{.V.0.+.4.| L x T >X,X2X].9.@.9.!.~.wX;.#.%. .=...%.` %.%.#.' +.7.} *.T.V.Q x ] F @.t.+.i.Z.w.' *.] ] 0.-.Z.@.D ",
"wXT.w.7.w.r._ V } *.8.~.M.*.-.m.#.%.=.c.V. . .M.M.$XtXtX%X8X7X X).Z.K.k.L. XtXtX1XM.Q.[.[.A.Z.:.m.Z.{.H.G.jXjXOX$XT.Y.=.w._ a [ +.} V.Y.Y.0.7.' +._ /.].] V.c.*.=.Q ` W Q ] @.*.} ] ] 7.V.=.] Q ] ] ' +.' y.@.+.] ' #.R W Q -.W z ",
",X>X>XR.7.4.2.[ q.V.V.A.Z.0.8.E T E =.m.c.-.c.Q.D.}.tXtX$X1X X Xm.:.%.;.~ ).K.1X7X8.*.*.V.A.u.o.:.N.:.oX+XgXjX[.:.m.] k } K 6 s 9.0.7.>X,X/.4.7.c z +.+.*.7.0...R `  .Q ` ] 9.] ] } ] R } *.` x R F _ F L -.o.x x F 0.] w w G ' ' ",
"OX/./.9.v c P _ _ +.V.!.w.R ] ] R Q =.0. ...8.f.=.M. X}.1X}.v.W.-.E A.0.%.E #.c.*.R ` V v _ ' x ] Q ^ !.Z.[.[.Z.9.V.v v K K P O.} ..+.O.:Xr.4.L d c K _ } [ 7.*.8.V.V.w.V.7.+.s 6 W 8.9.0.8.*.] *.7.+.z D F L R ` R *.#.r R -.] L ",
"jX4XZ.' s u c M v F ] ] R R *.R x *._ V 0.8.R X. .~ c.c.=.=.] ` V R m.T w Q Q R ] V v l k l v z z G w q G o.e ' +.F w _ k M { k F r.V | _ _ g q 6 s 6 k 7 w R x 8.T.]./.T.9.+.O.F F *.8.T.W.c.=.R +.9.] W ' ' 7.7.V.]  .m.-.8.t.@.",
"mXiXH.L c s 6 k _ R v ] R ] 8.` u.*.V w l ` R 9 V l ] *.k B B $ l R U.V.l R e R ..] } } ` R V R *.R ' q = 8 6 d M M 2.2.6 u M k } } _ F c 8 z 6 ; 8 6 k w F x k Q Q 0.V./.Y.+.o.o.W *.Z.].Z.*.R R R R z x W ' -.0.] ] 8.).t.0.%.o.",
"mXiXH.-.q.4.K M F R E 0.*.-.W.E.U.+.u.w._ *.8.7 R 7...7.[ v i p v l v.0.~.qX].0.w.V.,X,XW.c.w.Q.T.U.Y.q.7.{ 4.4.e.M Z 2.[ M c M v V | | K K { s c K 4.} 8.7. .8.Q o.).Z.Y.U.+.+.G S o.] ] } R x x Q ] S x W x x R x 0.%.T.G.-.-.^ ",
"NX+XH./.>Xu.} | ] *.Q E  .C.,XU.w./.a.' | _ M } 7.w._ s c N g 3.[ N _ R ] V.!.[.Z.u.u.M.V.T.].qXzXE.w.q.2.[ N p p p b N M B 6 i _ } _ b v p.^.r.M L Y.W.T.v.c.A.;.Q -.+.9.t.@.*.W ' t.:.o.m.*. .$.#.;.o.W R ] o.` Q A.;.o.;.V.:.o.",
"vXiXqXSXhXq.} 7.=.-.` Q 8.0.0.V s +.7._ K M V } p.| | 7 i [ P N Z w.W.*.] w.A.~.T.u.-.8.V.].{.8X,XE.w.7 B B & p p & p B p 7 b 7 l E ] Z 7.:XE.4.c k u.hX,X,X~.A.;.Q %.u.V.%.@.-.9.N.~.V.r Q *.T.T.-.V.Z.M.Q #.u.}.).Q Q ( T ^ #.T ",
"NXNXCXAXBX/.*.4.m.=. .(  .=.| 9 k U.p.| b v ] w.W...k V v | | 7.W.0._ ` E ` } r.} | v V ` ` 8.U.:XU.` t 9 X.y 9 9 4 4 B Z B B C l y C Z b.,Xn.3.b ; { 5X,Xu.i.] ] ..#.=.;.m.! Q B.rX{.~ r M.] ).A.#.A.V.8.*.~.Y.C.=.R T =.=.#.Q R ",
"+X(.a.~.].U.c.v.m.c.f.c.C.C.8.l } R.2.| B v M 2.r.2.7.7.*.[ ..9.] } E v v v | ` | | ` [ ` ` _ ] l } X.v.b.h.b.Z Z X.B <X1XZ y X.Z Z Z Z Z n.UXN u 6 g K t.` 5.F l E *.` Q %.( ( m._.)._.*.0.8.] c.R +.E ] C.;.0.=.=.#.=.C.f.=.M.R ",
"-.>.@.9.*.' 8.].*.T #.*...*.8.v M P M L { { P J 2.3.[ 4.2.4.| _ | L ' ' _ l ] } R _ 7...0.U.w.w.*.0.` v..XXXD.g.j.X.n.b.Z 4 4 9 X.v.l Z e.4 & Z u p 4.; $ * & ` V C  .$.$.C.S.).S.B.D.A.S.c.r ] ^ w %.#.%.Q #.0.0.f.%.$.A.K.M.C.v ",
"> q D G q w ] u.R x E x C z } 2.{ d > - 6 - 6 & & : : i 6 c h s c c s k ; $ $ w w k z k R *.} F K F C c.1X1X1XQ.b.Z 9 p 9 j.Z j.X.v.X.C 4 9 e.<XN + 8 i + 8 v.Q. X}.eXtXzXrX8X7X X|.f.=.M.#.~ Q t t T ;.! ;.m.( A.$.Q $.M.I.K.;. .",
"L L D G o.u.Y.u.W.V.w._ +.v v w.a.6.s > - : u u a a m M { 4.6.L _ 2.v 8 $ $ 4 V *...] } *.9.9.z x 8 w M.Q.zXlXzXC.X.l ` j.b.b.1XS.` v.,X8.8.2.i i 8 7 Z ....g.n.v.D.1XC.)._.Q.|.1X1XS.M._.M.A.&.A ! ^ %.C.;.m.V.;.E T ( ;.f.k.f.f.",
"y.@.G y./.[.].[.w.v _ b c c _ +.q.q.+.5.P [ 3.P [ 3.4.2.e.y.w.4.M 2.| V ` C C j.v.=. .c.V.0.V.o.D z x T.Q.tXkX Xc.;.T.c.1Xb.n.b.).g. .c.0.0.` _ | V ..~ X.v.b.D.b.D.M.~ ~ #.g.). X_._.|.$XL.;.l.;.OX;.T ].uX=.%. .;.$.A ~ #.f.M.B.",
"a.5.5./.(.+.' @.c $ 6 6 s L +.+.] 9.w.*._ v v i s N V [ K ] } ..8.| V Z X.C X.g.g.=.g.M.c.=.0.w.F D x %.). X X}.f.V.qXV.f.W.b.v.M.) f.S.).A.A.-.v.A.=.f.XXD.Q.h.h.x.M.f.$.$.E $.Q.f.f. XB.) >.! Q -.%.x T.V.Q -.#.V.m.C #.#.f.A.B.",
"U L { y.Y.@.S d c c s : c K 8 q ] M.;.*.V ] V l v B _ v } _ ` T ` Z C =.X.g.g.j.j.j.D.Q.f. . .w.' q W x %.c.c.m.Q c.} *.E C ~ Q.B.B.=XpX{.N.'.m.m.m.Q.$X.XD.g.XXI..X%X%XD.C.( T T f.f.M.N.@X>.:.^ r r ] ] T -.C T C #.` =.C $.M.B.",
"s ; d G ' A S $ 0 s & 6 s D K e ).lXM.f.m.m.-.*.C C T E E E Q ! y t y  .E ~ j.j.g.XX.Xg.g.` C ] K F S Q Q &.%.W x o.#.V.R x B.7X8XK.*X'.K.G.m.).G.{.$XkXtXI.x.#X%X.X|.|.K.;.B.C.#.=.M.F.F.) l.-XN.o.T -.-.m.}.m.;.#.=.f.Q #.$.;.J.",
"0 d $ 8 G W @.+.F K c M } } +.@.K.B.L._.M.;.%.C.k.#.;.f.z.A.k.m.$.=.D.$.D.g.D.x..XtXXX=.E R E r k F z x W ;.:.^ T #._ -.] A.A.).'.'.=XA.k.k.B.'.l.m.m.&.K.L.h.I.|.x.K.S.k.%.].G.m.OXB.%.L.F.&XvXaXOXL.( C.bXlXOXB.A.).0X'.k.! ( S.",
"+.c e W :.t.%.Z.*.' +.+.7.5.o.Q :.#X0XoX%XG.'.%X9X$XjX0X'.9XoXL.A.'.$X$XI.z.x.XX_.I.g.m.~ r x 0 5 7 z Q :.k.:.^ =.A.+.] *.T.*.).'. X).m.M.u.V.%.] #.;.^ )._.&.) J.|.P.l.G.OX`.%.%.'.N.L.nXcXvXFXnXnXoXF.'.aXcXkX9X'.G.pXpXI.) ~ -.",
"] @.-.V.(.t.!.V.V.t.u.*.] x R S #.L.l.L.xXP.#XxXP.cXcXoXyXaXL.G.`.B.l.&Xz.k.j.I.B.A.{.S.T x ] ] x w T %.k.:.F.k.OX2XA.` R ;.-.A.}.).&.#.V.Z.V.W W o.Q W ;.N.=.&.B.P.B.'.pXkXA.Q ^ ;.k.#XZXvXZXFXcXvX=XoXyXl.&X&X'.J.z.&XsX=Xx.) #.",
"0.o.V.m.Z.=.#.`.2X~.;.%.Z.] R r %.^ &.P.xXxXxXxXcXnXaXdXjXaXOX>.N.B.oX`.l.>.).0Xm.;.`.[.].G.{.m.c.m.C.k.,.x.yXF.{.lXC.r *.c.#.V.K.C.=.Q -.8.;.@.~.t.W R Q m.).m.B.z.B.0X0X0Xm.! ( &.l.B.yXyXiX-XoX-XdXaXoX&Xl.l.I.dXpXsXZX%XP.z.~ ",
"( ! %.).0.-.m.OX9X%X&.m.lXm.C x T ) z.K.*XvXvX=XxXxXdXnXbXoXF.N.H.Z.N.;.G.V.m.V.c.%.;.m.Z.#.m.m.S.}.I.B.k.J.&Xl.9X$X#.Q Q ;.;.;.A.m.;.] #.o.*.-.~.0.^ W -.A.{.T &.S.$X#X`.F.&.&.%.B.S.K.&X=XF.l.l.F.MXcXkX0Xl.( '.bXlX=XbX|.l.k.&.",
"f.>.$X).#.{.T.;.OXz.I.%X).f.M.E E ).M.I.yXyX;X@XJ.P.yXnX0XK.'.).N.m.;.C.t.=.W Q -.=.;.m.M.M.$.f.8X XD.I.J.@X-X'.yXL.T ~ Q Q #.A.G.=.Q A W o.V.~.t.^ Q %.B.7X8X) z.J.'.'.).l.>.K.z.M.S.oX0XL.F.F.) H.9XjX&XG.^ ^ ;.C.;.%.).m. .f.) ",
"I.K.{.C.V.}.).K.A.z.B.k.B.m.m.m.=._.C.x.%XI.z.I.J.#X=XI.K.K.k.$.=.Q  .V.E ]  . .M.c.=.M.=.M.y _..XI.) x.@X@X=X=XpXl.Q T ! W :.N.N.#.y r ! ( A.Z.:.^ T ;.k.$X'.B.'.|.|.B.&.`.K.l.B.k.x.8X&XJ.oX:.l.{.'.m.;.#.Q ! o.Q o.k.-.#.~ B.#X"
};
