/* XPM */
static char *d1aa63ff7c624e59fd6a0608e3b69340ns6NDslQQutX9C7e[] = {
/* columns rows colors chars-per-pixel */
"64 36 228 2 ",
"   c #150D03",
".  c #1A0F04",
"X  c #150B08",
"o  c #1B1303",
"O  c #17110C",
"+  c #1D130B",
"@  c #1E190C",
"#  c #1E1905",
"$  c #180F10",
"%  c #1D1511",
"&  c #1E1913",
"*  c #211505",
"=  c #221A03",
"-  c #21160C",
";  c #241A0C",
":  c #2A1E0D",
">  c #231713",
",  c #241C13",
"<  c #291D13",
"1  c #241C19",
"2  c #291D1B",
"3  c #2A210D",
"4  c #292109",
"5  c #32270F",
"6  c #262115",
"7  c #2B2214",
"8  c #272219",
"9  c #2C231A",
"0  c #2D291A",
"q  c #322515",
"w  c #382714",
"e  c #332915",
"r  c #3C2C16",
"t  c #32251B",
"y  c #352B1B",
"u  c #3A2D1C",
"i  c #3D321D",
"p  c #3A3219",
"a  c #2F2820",
"s  c #342C22",
"d  c #3A2C22",
"f  c #372923",
"g  c #363226",
"h  c #3C3323",
"j  c #3C3229",
"k  c #3F392B",
"l  c #45351D",
"z  c #48371D",
"x  c #443B1C",
"c  c #483B1B",
"v  c #402F27",
"b  c #433422",
"n  c #443A24",
"m  c #4B3C24",
"M  c #43342B",
"N  c #443B2A",
"B  c #4B3D2C",
"V  c #473B31",
"C  c #523C24",
"Z  c #4F421E",
"A  c #5A441D",
"S  c #6C521F",
"D  c #74551E",
"F  c #4B4126",
"G  c #4C422C",
"H  c #514327",
"J  c #5A4325",
"K  c #53432B",
"L  c #5A462B",
"P  c #564B2D",
"I  c #5C4B2B",
"U  c #5D522F",
"Y  c #534333",
"T  c #544A32",
"R  c #5B4B33",
"E  c #5B4C3B",
"W  c #575035",
"Q  c #5D5135",
"!  c #5D543A",
"~  c #5D583B",
"^  c #4D4731",
"/  c #634E2E",
"(  c #654D25",
")  c #67512C",
"_  c #6C532E",
"`  c #69592C",
"'  c #69572B",
"]  c #795A24",
"[  c #624F35",
"{  c #645334",
"}  c #6C5533",
"|  c #665936",
" . c #6B5B36",
".. c #62543B",
"X. c #655A3B",
"o. c #6C5D3B",
"O. c #6A573D",
"+. c #735B35",
"@. c #7A5D34",
"#. c #735D3B",
"$. c #765C37",
"%. c #7F642D",
"&. c #6D613C",
"*. c #67613F",
"=. c #7D6535",
"-. c #75643B",
";. c #7C623B",
":. c #7F6C3B",
">. c #766336",
",. c #5E5842",
"<. c #645C42",
"1. c #6B5D43",
"2. c #655440",
"3. c #6D6243",
"4. c #6A644A",
"5. c #736443",
"6. c #796444",
"7. c #756946",
"8. c #7C6B44",
"9. c #73664B",
"0. c #746A4A",
"q. c #7C6D4C",
"w. c #7F734B",
"e. c #7D6E52",
"r. c #7D7153",
"t. c #83642C",
"y. c #8A662E",
"u. c #8D692F",
"i. c #93702E",
"p. c #846632",
"a. c #866A34",
"s. c #8B6C34",
"d. c #84643D",
"f. c #846B3B",
"g. c #8C6D3A",
"h. c #886732",
"j. c #936E35",
"k. c #916F39",
"l. c #8D723B",
"z. c #8C7138",
"x. c #937235",
"c. c #9B7436",
"v. c #93743B",
"b. c #9A763C",
"n. c #96783E",
"m. c #9D7A3D",
"M. c #926C2B",
"N. c #A27B3D",
"B. c #A47839",
"V. c #816E4B",
"C. c #896D41",
"Z. c #8D7343",
"A. c #83724B",
"S. c #8B7646",
"D. c #947543",
"F. c #947A45",
"G. c #9C7C43",
"H. c #947B4C",
"J. c #9C7D49",
"K. c #987745",
"L. c #816D52",
"P. c #837454",
"I. c #877953",
"U. c #8B7B5A",
"Y. c #897857",
"T. c #947E53",
"R. c #9B7F5A",
"E. c #A37E43",
"W. c #A27F49",
"Q. c #A5813F",
"!. c #9E8144",
"~. c #9D814B",
"^. c #96804E",
"/. c #8E8158",
"(. c #9C8353",
"). c #9C855C",
"_. c #968659",
"`. c #A58244",
"'. c #AA8445",
"]. c #AD8945",
"[. c #A4844B",
"{. c #AB8649",
"}. c #A6884C",
"|. c #AC8A4C",
" X c #B08646",
".X c #B28C4D",
"XX c #B18C47",
"oX c #B5924B",
"OX c #BA954F",
"+X c #A38652",
"@X c #A98751",
"#X c #A58A53",
"$X c #AC8B53",
"%X c #A5895C",
"&X c #B28D52",
"*X c #AF9055",
"=X c #AE935B",
"-X c #A7905A",
";X c #B49254",
":X c #BA9454",
">X c #BC9854",
",X c #B3945B",
"<X c #BB965A",
"1X c #BC9A5B",
"2X c #B6985D",
"3X c #8F8061",
"4X c #9C8A63",
"5X c #978663",
"6X c #A38E65",
"7X c #A48E6B",
"8X c #AC956D",
"9X c #AF9467",
"0X c #BD9D61",
"qX c #B49C64",
"wX c #AB9573",
"eX c #B29972",
"rX c #B79F7C",
"tX c #C19D56",
"yX c #C19C59",
"uX c #C6A15E",
"iX c #CAA55E",
"pX c #CAA663",
"aX c #CCA966",
"sX c #D3AE68",
"dX c #D9B46D",
"fX c #CFB374",
"gX c #C6AC71",
"hX c #E3BE77",
/* pixels */
"$X,X@XW.[.~.#X#X+X~.~.J.K.=X,XW.G.}.@X}.E.[.W.@XW.E.b.E.{.E.E.E.m.E.G.G.z.%.a.t.] D.&XE.K.b.b.D.D.K.W.G.[..X}.x.z.!.!.[.|.oX;X{.",
"g.K.D.C.Z.g.Z.H.D.Z.F.l.C.K.J.H.G.[.@X*X$X;X@X0X&XW.W.W.{.E.W.W.b.b.G.!.=.n.n.F.v.k.W.[.W.b.b.J.D.Z.D.D.~.[.~.^.^.~.[.+X#X$XW.E.",
"@.@._ ) } _ _ } _ ( $.+.d.@.d.d.v.b.G.`.}.}.E. XW.E.E.E.E.E.W.{.`.`.$X!.%.D.J.#X$Xg.k.W.&X@XW.K.@.6.+.+.+.+.+.$.` +.-.@.d.C.d.D.",
"C.6.#.} } } 3.5.q.5.#.[ / _ 6.H.[.n.`.].{.{.E..XW.B.E.E.{.W.&X0X;X2X*XG.l.a.v.p.v.b.W.E.K.G.W.%X$.6.$.[ / / / | o.| O.[ / } @.R.",
"6.| o.&.5.O.1.3.X.9.q.q.5.-.-.S.[.m.N.`.{.{. X XtXB.E.E.E.E. X&X;X1X}.a.g.a.~.$XW.W.k.h.s.D.K.Z.-.5.&.&. .-.&.3.0.5.q.5.} +.+.H.",
"0.o.9.3.<.F i y e n P { O.6.7.S.+Xm.'.`.'. X&XyXW.B.B.c.B.B.B.E.E.*X$XG.G.~.l.+X*X,X{.W.J.W.[.(.8.&.X.4.3.Q H F G G ~ X.O.-.-.:.",
"<.<.4.^ 0       . o - q B <.r.5X[.E. XE.E.'..X.XE.B.c.c.E.c.E.E.m.n.G.v.J.[.D.n.G.[.b.W.[.W.G.(.w.*.X.<.T e 3 # # # 0 N P 3.A.A.",
"<.^ N o     > O O X + . : b 9.7X[.E..X X'.E. XE.tXB.c.B.E.b.E.E.G.m.E.n.l.p.[.~.K.J.s.b.W.D.] ' 7.~ ! G -             @ 3 P P.I.",
"~ p     1 % > 1 2 $ % + o : X.3XJ.b.E.&X.X|..X:XW.E.W.c.j.B.W.{.m.`.!.G.G.l.J.[.n.y.y.y.J.D.p.C.5.,.h . > $ 1 % & O $ X $ q 9.P.",
"^ # : 3 < 8 2 1 j > < # * o P U.D.K.c.B.&X.XE..XtXB.E.c.k.j.K.W.`.x.x.b.G.p.s.v.j.v.t.v.W.v.s.d.5.G * > 2 , 2 8 & & 1 % + * ..Y.",
"n = 5 3 3 0 , 2 g > 7 ; = o i /.K.W.b.c.{.{.'. XE.c.j.j.j.K.W.&X}.m.n.m.G.x.s.j.b.E.j.b.v.J.K.f.q.p : < t t - h 8 6 1 % ; o Z U.",
"x 4 p 5 7 t < 9 t , y y = = e /.J.B.E.E.B.E.E.N.E.E.E.E.b.E.k.v.c.c.}.m.E.J.E.'.b.m.E.b.K.$X~.F.>.x 5 q t > 3 0 3 6 6 + : = Z _.",
"x 5 b n t d M t d f j y 3 = 3 Y.J.G.{.;XN.'.`.N.E.E.B.E.G.E.v.G.m.c.`.N.G.m.`.&X{.x.{..X@XW.G.H.:.i n q t M q w 7 y s 1 ; * c _.",
"..G N b u f M t V f j 6 0 - 0 P.~.].`.].].XX'.XXtX&X XE.`.K.b.E.`.N.'.N.N.`.}.:X.XE.E. X{.K.W.F.-.P l M f M y l i g f 2 - : I I.",
"r.1.G r i w y t N t y 6 e ; j 3X[.}.].'.].|.XXoX]..X.X&X;X`.E.E.m.B.].N.`.{.'..XE. XB.E.E.W.@XT.8.P B d t d 4 k y 7 1 2 > b q._.",
"P.X.L n u w b 7 n t y 7 7 # h 4X#X|.uX>XoXoXuXQ.N..X'.B.`.`.]. X.XN.:X&X].b.x.N.E.B.E.E.W.E.k.D.V...B d d s 5 h p 7 2 t - h I.5X",
"r.3.l w 7 , 0 , j q 0 > 6 # i 4X*X].hXdX>XXXtXOX XtX X Xc.M.B.Q.E. X.X>XaX;Xc.n.c.N.E.&X&X<X$X~.V.Q r y t t - j y 8 , 1 * r V.6X",
"0.3.l r 7 < 0 & V t 9 + & @ z 4X}.>XiXiXoXtXiXOX.XE.B.E.N.B.B.B.B.B.'.yXgXaXoX].m.c.N.{.}.;X;X#XV.{ r q < < - d s 1 % < ; z V.4X",
"e.3.c r 7 < 8 & N 9 0 > 1 3 n T.*XdXsXsXuXiXiXOXyX XE.E.c.E.XX XB.B.].].|.>X|.*X].{.`.E.'.{.@X+Xq...i w < < < k s , + - 3 n q.).",
"4.X.z r q 6 8 @ B r 2 - > 6 F T.!.].yXtXiXiXtXoX.XyXtXE.E.yXpXyX XB.|.].]..X].|.m.E.{.E.].[.[.D.-.Q i q < 6 - g g 6 > 6 : b 5._.",
"4.{ z r y 0 s 8 B y t , 6 6 F A.l.i.Q.].tXuXtXQ.'.&X&X XyXaXpXyX X X XE.].|.!.Q.{.}.E.y.b.E.+XF.7.| n p y s 7 k g 8 6 6 : i o./.",
"0.X.m l h s s 0 N y t t y 7 n 8.~.|.].oXQ.XXiXOXE.&X.XE.&X<X&X].yXyXyX&X;X*X`.|.`.E.{.x.E.G.G.a. .W h u 0 s 6 k g 9 1 < 7 l { I.",
"3.~ F u y 8 8 , N h 9 , 8 & n A.n.;X|..Xm.Q.>XoXE. X&Xb.b.E.N.N.N.oXyX<X;X|.{.}.v.j.b.k.K.v.G.f.&.W h p 2 y 8 h g 8 1 1 7 h Q I.",
"1.~ C i 7 8 8 8 h d 8 > 8 @ h w.F.}.oX|.|..XoX].B.j.W.{.{.b.v.c.c.`.'..X].!.}.E.b.j.b.W.J.k.n.Z.| W h y ; < > g s 6 8 > < h Q Y.",
"<.! F y 8 6 0 @ h y - , & & ^ w.H.}.`.}.`.|.`.c.!.x.u.x.m.m.E.b.m.'.!.m.!.!.x.!.K.b.W.&XD.k.K.Z.o.W b 7 < 9 * g s & + > < h 1.Y.",
"<.! m y 6 , 8 @ h 7 1 & 1 & N r.^.$X}.m.].|.Q.!.i.c.m.x.y.j.G.m.m.G.v.!.c.z.z.x.W.b.W.{.D.s.g.:.| T h q - < + f 9 @ > > - b 1.e.",
"4.W b e > 6 6 @ u : ;   & O M Y.H.2X2X}.;X`.i.x.b.E.[.[.m.J.}.n.[.[.m.@X}.!.*X!.K.k.W.W.s.t.g.f.| P t < * < # y 6 , + + - u 1.U.",
"4.! b w * @ o o y : ;   & @ p q.(.,X0X<X0X*XoXtX1X{.`.$X}.$X2X}.|.$X[.}.[.!.!.z.y.k.W.$XW.J.+X(.| T l q : < ; w : ; + , - q 2.U.",
"4.~ K C N B N N n z M M j d p 7.S.F.!.i.!.!.!.Q.{.E.{.$XW.G.G.x.v.v.v.a.z.a.p.n.v.b.K.K.G.G.}.^. .Q T G Y Y C m B B M V v 5 L V.",
"3.{ [ [ E E T T m K Y V j u r -.=.z.s.t.y.!.|.`.&X;X,X$Xb.v.!.v.D ] a.z.F.z.p.}.@X[.W.k.g.l.~.^. .U ..P X.E E H K Y B b w l / V.",
"X.I { [ ..2.E E L / C Y M b n $.^.}.!.z.x.}.oX>X$X<X<X;X[.!.!.v.%.l.#X+X#XG.a.t.y.g.v.J.F.G.~._.` I { H R C L z m z m u r z / V.",
"| I / J L L L L J C C L Y m L +.F.~.F.[.;X>X}.;X&X&X}.@X[.J.!.J.@X*X=XG.~.=X=Xn.v.k.g.+X}.#X*X-X` ` o.#.6.6.P.q.7.5.L.L.6.[ A @.",
"/ #._._.eX6XeXeXeXrXrXwXwX5X-.' a.n.}.;X;X*X`.`.`.v.n.G.s.s.z.v.!.}.!.n.n.!.~.}.#X[.~.F.!.*X[.F.S :.(.).).6X8X8X9X8XeX6X%XH.$.C.",
"C.F.R.(.#X#X(.(.9X%X_.H.T._.^.f.[.!.v.}.$X*XG.z.s.t.a.n.G.[.[.}.`.}.!.n.!.`.}.#X~.}.$X~.J.+XJ.G.G.F.S.F.Z.-.>.>.%.=.g.f.s.C.C.(.",
"D.J.n.!.~.,X=XqX=Xf.l.~.#X=XqXqX[.x.y.n.|.<X*X!.G.G.[.@X*X*X@X$X2X*X|.|.*X}.}.=X~.@X=X*X[.[.G.G.!.~.J.(.#XH.F.^.F.g.s.g.J.J.d.@.",
"$X[.s.x.!.0XgXfXgXv.F.-X9X#X#X!.*X[.n.[.!.[.}.n.n.}.*X[.}.~.G.E.2XoX}.`.}.G.n.!.!.F.G.~.G.l.p.p.l.@X+X~.(.S.f.F.J.Z.a.a.J.+XD.n."
};
