/* XPM */
static char *f9dd6bf3218a4b298645b0b9acfc7af78291YvMDNgAfK35Y[] = {
/* columns rows colors chars-per-pixel */
"64 64 251 2 ",
"   c #19110A",
".  c #322215",
"X  c #32231A",
"o  c #382719",
"O  c #521C0B",
"+  c #791811",
"@  c #472915",
"#  c #542810",
"$  c #4A331C",
"%  c #573519",
"&  c #663919",
"*  c #703419",
"=  c #4D3929",
"-  c #563B24",
";  c #6F3A25",
":  c #68421E",
">  c #77461D",
",  c #58422A",
"<  c #534535",
"1  c #694627",
"2  c #774A26",
"3  c #7C522B",
"4  c #674E36",
"5  c #785939",
"6  c #70613D",
"7  c #51504E",
"8  c #6F5945",
"9  c #77644E",
"0  c #6A6968",
"q  c #72706B",
"w  c #747474",
"e  c #7B7A7A",
"r  c #96140E",
"t  c #861912",
"y  c #971C15",
"u  c #A81C14",
"i  c #8F2716",
"p  c #A7241B",
"a  c #B8251A",
"s  c #873129",
"d  c #AB2823",
"f  c #B42A28",
"g  c #B43733",
"h  c #B23830",
"j  c #C3291E",
"k  c #CB2C21",
"l  c #D42826",
"z  c #D32C25",
"x  c #CF352F",
"c  c #AF4018",
"v  c #824B25",
"b  c #875329",
"n  c #95522D",
"m  c #875C38",
"M  c #955B35",
"N  c #B24932",
"B  c #8A613D",
"V  c #96633B",
"C  c #A4633A",
"Z  c #DA453F",
"A  c #D36731",
"S  c #9E3A75",
"D  c #D42D5D",
"F  c #965647",
"G  c #B0534C",
"H  c #8A6646",
"J  c #966946",
"K  c #9A724C",
"L  c #8B7053",
"P  c #997453",
"I  c #A46A45",
"U  c #A8744B",
"Y  c #AB7753",
"T  c #B77251",
"R  c #B47C54",
"E  c #9B696E",
"W  c #BA7973",
"Q  c #D15651",
"!  c #C96C56",
"~  c #EE7A60",
"^  c #BB903D",
"/  c #B08A53",
"(  c #B98459",
")  c #9BA25C",
"_  c #99866E",
"`  c #83817B",
"'  c #B78C67",
"]  c #A98D70",
"[  c #BB9778",
"{  c #B6A970",
"}  c #C68456",
"|  c #CD8E50",
" . c #CCA249",
".. c #D0AC52",
"X. c #DCB756",
"o. c #E2BC59",
"O. c #C78D63",
"+. c #CB966A",
"@. c #D4986A",
"#. c #D7986E",
"$. c #CA9A76",
"%. c #F19066",
"&. c #DAA377",
"*. c #CEB070",
"=. c #EBA76D",
"-. c #E7C45B",
";. c #ECCB5D",
":. c #F1CF56",
">. c #D5C574",
",. c #E9CA66",
"<. c #ECCE6E",
"1. c #F3D669",
"2. c #F5DC77",
"3. c #F9DD74",
"4. c #FAE279",
"5. c #946DDF",
"6. c #E466F5",
"7. c #2A8E9F",
"8. c #6D8F9C",
"9. c #5E9BA0",
"0. c #6F94A9",
"q. c #75B1AC",
"w. c #75C6BC",
"e. c #398ED6",
"r. c #2F8EE5",
"t. c #2C8FEA",
"y. c #348DE5",
"u. c #2F94E2",
"i. c #2D90EA",
"p. c #3A95E7",
"a. c #3293EA",
"s. c #4595D2",
"d. c #4EA3CF",
"f. c #77ACD3",
"g. c #489CE8",
"h. c #519FE4",
"j. c #4CA1ED",
"k. c #58A4E9",
"l. c #67AAE7",
"z. c #70B1EB",
"x. c #75B5F1",
"c. c #7DCAC1",
"v. c #4EC0EB",
"b. c #848483",
"n. c #898885",
"m. c #8B8B8B",
"M. c #92938D",
"N. c #8D8E90",
"B. c #8F9090",
"V. c #939393",
"C. c #989897",
"Z. c #9B9B9C",
"A. c #B19486",
"S. c #88A89C",
"D. c #A3A19E",
"F. c #B5AF93",
"G. c #9D9EA1",
"H. c #8BAFAE",
"J. c #A3A3A4",
"K. c #A7A7A9",
"L. c #AAABAD",
"P. c #B7B3AA",
"I. c #ACADB1",
"U. c #B0B3B2",
"Y. c #B3B3B5",
"T. c #B6B6B9",
"R. c #BBBBBC",
"E. c #C7948F",
"W. c #CDA88B",
"Q. c #D7A883",
"!. c #E2AC89",
"~. c #C9B8A9",
"^. c #D1B5AE",
"/. c #E4B6B2",
"(. c #84C5BD",
"). c #ACC9A3",
"_. c #D6C689",
"`. c #ECD78C",
"'. c #F9E585",
"]. c #F5E497",
"[. c #CFC6B9",
"{. c #E8DAAC",
"}. c #EEE2B5",
"|. c #8EB6D9",
" X c #98BCDB",
".X c #A4B6C9",
"XX c #BCBDC2",
"oX c #85BBEA",
"OX c #D390EE",
"+X c #87CCC3",
"@X c #98CCC7",
"#X c #97D2CB",
"$X c #98D8D1",
"%X c #BCC4C7",
"&X c #AECDD0",
"*X c #A7DBD5",
"=X c #B7D7D4",
"-X c #A6E0DA",
";X c #BDE1DD",
":X c #90C3F3",
">X c #B2D4F3",
",X c #BEE5E2",
"<X c #C2C2C5",
"1X c #C4C5CA",
"2X c #C8C7C9",
"3X c #CACBCD",
"4X c #D4CBC7",
"5X c #D8D3CC",
"6X c #C4CED4",
"7X c #CCCDD2",
"8X c #C9D6D8",
"9X c #D3D3D5",
"0X c #DAD7D4",
"qX c #D5D5DA",
"wX c #D5DBDD",
"eX c #DADADD",
"rX c #E8D8CA",
"tX c #EBD3D1",
"yX c #E4DDDA",
"uX c #C5E1DF",
"iX c #DBE2DC",
"pX c #EEE4CC",
"aX c #E5E2DB",
"sX c #DDDDE2",
"dX c #C4DCF3",
"fX c #E0DFE2",
"gX c #C9E5EA",
"hX c #D6E4E5",
"jX c #DDE2E4",
"kX c #D6E8F9",
"lX c #E2E3E5",
"zX c #E8E9E4",
"xX c #E4E5E9",
"cX c #E6E9EC",
"vX c #EBECED",
"bX c #F4ECE8",
"nX c #F1EEEC",
"mX c #EFF0EF",
"MX c #F5F1E4",
"NX c #F2F1EE",
"BX c #ECEEF1",
"VX c #E2EEFB",
"CX c #EFF0F3",
"ZX c #E8F2FC",
"AX c #F4F4F3",
"SX c #F8F7F5",
"DX c #F7F8F4",
"FX c #FAF9F6",
"GX c #F5F6F9",
"HX c #F6F8FB",
"JX c #FDFDFD",
/* pixels */
"J.K.K.I.K.0 G.I..X^.XXXXXXXX1XXXq.R.3X9X9X9X9X7XqXwXsXfXlXlX8X+XlXxX=X(.jXxXcXvXzXvXvXvXvXNXjX(.lXmXmXmXmXmXmXmXnXzXzXaX` 5XP.b.",
"K.K.I.I.G.0 I.XX.XXXXXXXXX1X1X1Xq.%X3X9X9XqXeXyXsXsXlXlXxXxXsX(.lXvX8X(.zXvXvXvXvXvXmXvXNXmXhX(.zXvXNXmXNXNXMXmXmXmXnXzXn.2XwX0X",
"Z.8.N.K.G.w I.T.T.XXXXXX<X2X1XXXq.1X9XqXeXeXeXsXfXlXlXxXxXzXlX(.wXvXhX+XcXmXvXnXmXnXmXmXmXNXvX#Xw.@XvXNXNXNXNXNXNXmXmX0X` 0XzXaX",
"7 X = w V.w XXXXXXXXXX1X1X2X2X.Xq.7XqXwXeXwXsXsXlXlXxXzXcXzXhXw.jXhX@X*XBXmXmXlX&X(.*XcXAXNXCXBXuXw.mXNXNXAXNXNXNXMX0Xn.K.vXaXC.",
"w 7 q N.Z.w .XXXXX<X1X1X1X3X7X3XH.(.1X8XwXsXlXlXlXxXxX8X=X8X#X8XcX*X$XcXmXvXBX#X$X8X+X;XAXAXAXGXmX(.vXDXmXDXNXAXNXMXC.J.aXaXMXM.",
"I.V.L.T.I.0 G.XXXX1X1X1X3X7X7X7X6Xq.q.q.@XsXaXlXlXlX@X+X#Xc.*XBXCX&X8XCXAXAXhX@XmXCXhX#XmXAXGXCXhX(.vXNXDXNXNXNXAXNXn.P.R.M.[.` ",
".X.XI.XXXXV.0 K.1X1X1X7X7X7XqXqXqX9XwX8XH.=XiXlXlX=X#XjXcXxXcXCXCX@X#XBXAXAXhX#XBXCXuX$XAXAXDXvX+X;XDXDXDXNXDXDXAXNX3X` ` 7 e U.",
"I.I.e I.XXXXm.m.1X1X3X7X7X7XqXqXwXwXsXjX=Xq.H.|.+Xq.sXBXBXCXCXCXAXxX#X=XAXGX^._ [.6X+XuXAXDXDX8X-XDXDXDXDXDXNXDXDXDXNXvXlXn.9XaX",
".XG.0 K.N.G.b.N.1X3X7X7X7XqXqXqXsXsXfXfXsXqX8XdXsXsXBXBXCXCXCXCXAXAXjX#X/.E.tX5XiXiX9X0XfXbXAX=XuXAXFXGXSXSXAXSXDXNXDXNXzXw ` ` ",
"G.N.w 0 7 7 0 XX1X7X7X7XqXqXqXsXsXsXfXlXxXxXcXxXBXBXBXCXAXAXAXGXAXGXqXF G 0XzXzXaXzXiXhXeX9XeX=X$XGXFXFXSXSXSXAXDXDXDXDX0X` R.5X",
"G.e I.I.G.e XX1X7X7X7X9XqXqXsXsXlXfXxXxXxXxXBXBXBXBXCXCXCXAXGXZXGX/.g g E.zXjXwXz.g.i.t.y.h. X7X&XhXFXFXFXFXFXSXDXDXDXzXC.R.NXNX",
"V.0 N.V.e 0 XX7X7X7XqXqXqXqXsXsXsXlXxXxXxXBXcXBXBXBXCXAXCXGXGXGX/.g g f 4XiXzXl.u.i.t.t.t.t.t.g. X0XAXFXFXSXFXSXDXDXNXP.D.zXDXDX",
"e b.b.b.N.w K.7X7X7XqXqXqXsXsXsXsXxXxXxXxXBXBXBXBXBXGXCXCXGXAX/.g f f f qXlX>Xr.i.i.a.p.r.t.t.t.a.7XeXSXFXFXFXFXFXFXzXm.aXAXDXNX",
"I.T.XXOX1XI.e XXqXqXqXqXsXsXfXfXxXxXxXcXBXBXBXCXCXGXGXGXGXGXbXg f f f g 0XlXk.t.i.i.z.8Xl.t.t.t.t. XqXaXHXHXHXSXDXFXzXn.MXNXNXDX",
"XX1X1X1X1X1XN.G.qXqXqXqXsXfXfXlXxXxXcXxXcXBXBXCXBXGXCXGXGXGXE.d f d f g 0XwXt.t.i.t.k.a.@Xg.h.h.z.&X9X9XnXFXJXFXFXFXmXn.yXDXDXDX",
"1X1X1X1X1X7XY.m.7XqXqXsXsXsXlXxXxXxXBXBXBXBXBXGXCXAXGXGXGXxXG d d d d f 0XwXg.p.k.f.oXa.oX6X|.|.|. X9X0XyXHXFXFXFXFXDXP.M.4X0X0X",
"XX1X1X6X7X7XT.m.9XqXsXsXsXfXxXxXxXcXcXBXBXCXCXGXAXAXGXGXHX5Xp p d d d d 3XsX|.oXz.g.&X7X5Xl.t.t.t.a.6XqX9XSXFXJXFXFXFXNX[.m.b.b.",
"<X1X1X1X1X<Xm.K.qXqXsXsXsXlXxXxXcXcXBXBXBXBXBXGXGXGXHXHXJXE.y p y y d d 4X&Xt.t.i.t.t.p.g.r.t.t.t.y.7X9X4XbXJXFXFXFXFXFXGXNXNXNX",
"b.e e e e e N.7XqXsXsXsXlXxXxXcXcXcXBXBXCXCXGXGXGXGXHXFXHXA.u y y y p p ^.8Xk.a.i.r.i.i.t.t.t.t.r.l.qX4X7XlXJXFXFXFXFXFXFXFXDXDX",
"G.w N.T.T.XX7XqXsXsXsXlXxXxXxXcXBXBXBXBXCXCXCXGXHXHXHXFXHXG y y y y y y E.4XeX.Xl.p.a.i.a.a.g.l..X[.2X4X^.yXFXJXJXFXFXFXFXFXFXFX",
"1XC.K.7X7X9XqXsXeXsXsXlXxXxXcXcXBXBXBXCXCXGXGXGXHXHXHXSXBXF y t y y t y A.^.^.4X4X^.E.W R G Q N g f x f f Q SXJXNXbXyX5X[.P.L.D.",
"6XG.C.XXXXXXXXY.Y.L.K.I.2XlXcXcXBXBXCXbXfXqXfXGXHXxX2XJ.C.s t + t t t t W E.E.W N f a k j k k k z z z z z z Q E.M.m.m.M.C.K.Y.~.",
"XXe 7 w e b.b.m.V.G.J.J.N.G.sXBXBXBXxXL.N.C.N.XX6XC.K.7X9Xs t + + + t t F G d u u a a k k k k k z z z l l l l z ! tXbXMXAXDXFXFX",
"b.b.e XX7X9X7XsXsXsXlXlXsXK.J.xXBXBXI.K.lXBXyXN.E qXSXGXBXs + + + + t y r y r u a a a a k k k z z z z z l l l z z x /.FXFXJXFXFX",
"N.T.N.7XqXsXeXsXsXlXxXxXcXsXC.9XBXqXC.xXGXGXCXZ.w zXFXJXAXF ; F W $.&.$.y r u u u a a j j k k z z z l l l l x Z Q Q f Q tXSXSXSX",
"1X.XC.9XqXqXsXsXlXxXxXxXcXcXT.T.BXXXY.AXGXHXsXJ.K.2XJXJXGX~.8 [ W.Q.Y H 4 t r u a a a j j k k k z z z x h G bXMXJXJXtX$.E.AXSXSX",
"9XJ.I.qXsXsXsXsXsXxXxXcXcXBX7XK.BXqX0 lXHXHX4XT.0XL.FXMXMX~.9 W.E.H 1 - o @ t u u a a j j k k k z d n U 5 ` JXFXJXFXFXJXHXFXSXSX",
"7XN.XXqXsXsXsXlXxXxXxXcXcXBXwXJ.cX~.8 2XHXHXXX2XxXJ.GX=.| +.L W.' 3 2 2 % O # * u a a j j k j p * % 1 K 4 M.NXJXFXJXNXMXFXFXSXSX",
"1XN.7XqXsXsXfXlX7XsXxXcXcXBXsXJ.xX].>.5XHXGXT.4XbXD.bXA @.} P W.' V 1 -     . # b ! N p i + .   @ : m P 1 L T pXFXFXR.[.FXSXSXSX",
"L.G.qXqXsXsXqX9XJ.qXcXcXcXBXxXJ.yX'.<.aXHXSX<XR.eXG.bXA #.} [ Q.' T U J ; & * n R &.| * O       = # m P 4 M c !.JXFXT.P.FXFXFXFX",
"b.T.qXsXsXsXV.C.V.6XcXBXcXBXxXK.{.'.>.CXGXHXlXB.E <XDXO.A A &.Q.+.O.( V v * n ( | =.| b # O & & 2 3 m K V M c !.FXFXR.L.DXDXSXNX",
"0 3XqXsXsXsX0 { _ 1XcXcXBXBXcXL.{.2.`.GXGXHXSXxXgXGXJXQ.A ! $.*.@.@.+.O.( O.@.@.&.&.} M > : * > 3 b M K M n n MXFXFX[.K.DXSXDX0X",
"K.9XwXsXsXlXF.`.`.}.hXVXcX}.]._.`.<.pXGXHXHXHXJXHXJXJX/.} | [ &.&.@.&.!.&.Q.&.@.#.=.! C M M n n n b V P n i C DXFXFX2XD.SXSXMXK.",
"8XqXsXsXlXlXeX<.2.'.pX}.4.4.4.4.3.<.}.GXHXHXHXHXJXFXJXbX#.$.' W.*.@.&.&.&.&.@.@.#.!.} V M n C I C M V Y v i / FXFXFX3XD.SXSXNXC.",
"sXsXsXsXsXxXxXyX>.,.2.2.4.4.2.<.>.1.<.NXHXHXHXJXJXJXJXJXrX$.[ [ $.+.@.@.@.@.| #.Q.Q.! I b b C I C V J K n n ^.FXFXFX0XM.NXDXNXM.",
"Y.K.K.K.K.7XjXxX%X*.2.4.4.4.2._ o *.1.{.GXHXHXJXJXJXJXJXJXAX^.] [ O.O.O.T T +.$.$.O.R I b v n C V V J H J ' MXFXJXFXiXM.MXDXNXM.",
"w G.G.K.m.U.lXxXXX~.{ *.2.2.1...) ,.%.=.MXHXJXJXHXJXJXJXJXJXvX] ] ' ( } R +.+.3 F H 3 ; b > b V V V J P P.AXJXGXFXSXlXn.NXSXNXM.",
"N.9XsXsXR.L.xXxX%XF.6 6 2.<.4.4.1.o.%.%.0XZXHXJXJXJXJXJXJXJXAX_ _ / ( ( ( O.Y H - @ X @ : > b b m B L D.Y.GXHXFXFXSXzX` vXAXNXD.",
"N.qXsXsX%XL.xXjX3XF.X.X.3...' 1.1.1.%.~ ).gXHXHXJXJXJXJXJXJXJXM.P K ( P H H H 9 1 $ @ @ @ % : 3 B 5 L P.L.SXSXFXFXGXzXn.zXNXAXR.",
"V.sXjXsX1XL.jXcX3XA.=.1.1.' $.1.1.1.o.X.>.*XHXJXHXJXJXHXJXJXJX] L P ( 8 5 5 M F M M 2 & % % $ 1 5 5 ] %XK.SXFXSXSXSXvXn.zXSXNXiX",
"`.].].}.[.F.lXcX6XD.~ ;.1.1.1.:.;.o.o.X.o.'.MXHXJXJXJXJXJXJXJX[ L L P 5 1 ; 2 ; s * + % # @ $ : 5 5 F.2XD.ZXDXDXSXSXzXn.aXAXAXnX",
"'.'.4.3.4.4.3.`.`.P./.o.o.-.-.o.o.o.o.o.o.'.`.HXHXJXHXJXJXJXJXA.9 9 P 5 B / T ! T G h ; : : % : 4 5 4X2XD.DXDXDXSXSXvXn.yXAXAXAX",
"4.4.3.3.3.3.3.1.<.[.jX_.o.o.o.o.o.o.o.;.;.'.<.AXHXJXJXHXHXJXHX$.9 8 9 5 B K J 5 1 ; ; - 1 : % 1 1 9 NX2XZ.DXDXAXAXAXvXV.eXAXCXAX",
"3.3.3.3.3.3.1.1.{.&X$X_.;.3.2.<.-.-.:.:.:.1.*.=X,X,X,X,X,XgXDX$.K 6 6 6 5 H J 1 $ o $ 1 : % $ , , _ DX8XM.mXGXGXAXAXAXlXnXnXAXnX",
"{.{.rXrXaXpX1.<.zX@X#X_.,.2.4.3.1.1.;.;.;.-.*.*X-X-X*X-X-XgXJXW.R 8 4 8 6 6 J B 4 ; : : % $ $ , 4 _ +Xw.9.$X$X$X$X$X*XCXAXNXNXCX",
"sXjXjXxXlX`.:.{.zX&XuX{.X.X.o.-.-.;.o.1.1.-.X.`.HXHXHXHXJXJXJX$.( K < < 5 6 K K J J m : % $ $ - b [.$X;X;X;X,X;X;X*Xw.vXCXnXAXnX",
"sXsXjXxXlX<.:.1.<.>.8X}.-... . . ...X.:.:.-.X.>.JXkX>XJXJXJXbXO.( R V < 4 6 H 5 3 5 3 , $ o - 3 b aXDXmXGXAXGXAXAXjXc.BXmXNXvXNX",
"sXsXlXlXrX`.<.<.-._.=X}.1.1.;.-.-.:.:.-.-.X...F.k.a.VXJXJXJXyXO.( R U J = < , , $ = , $ o $ 2 3 b aXJXHXAXGXCXGXHXhX+XvXCXCXmXCX",
"8XsXsXxX7XK.N.M. .) { _.1.1.3.1.;.o.X.X. .^ / q.p.x.JXJXJXJX~.} ' R R Y H = X o . . o o % 2 3 b v rXFXJXHXkXGXAXAXhX+XvXAXAXvXmX",
"e G.1XXXn.I.6X[.| { / X.,.1.1.;.X./ / 0.8._ M.q.s.GXJXJXJXJXF.R R R R Y J H 4 = , : : : 2 > v b > aXJXJXkXp.x.CXCXhX+XvXvXmXmXmX",
"G.K.e w 1XjXxXeX9X%X) F.X.-.o. ./ 9.t.t.u.i.i.i.x.JXJXJXJXJX~.R R R T Y P J 8 1 , 1 2 > 3 3 2 v H JXJXJX>Xa.t.j.:X;X+X3XK.U.<X9X",
"XXsXG.I.xXxXlXJ.8.8.w.+XS.{ / ^ 8.i.t.i.r.i.i.t.>XJXJXJXJXJX[.U R R Y Y R T I 8 1 1 > 3 b > > > ] JXJXJX:Xt.t.t.i.i.p.f.C.C.n.e ",
"6XsXG.XXxXxXxXC.L.=Xf.g.u.s..._ y.t.i.i.t.t.t.t.dXJXJXJXJXJXyXV Y Y Y Y R R Y H 3 2 3 b 3 2 > & 4XJXJXJXz.i.t.t.i.t.t.t.x.wXlXwX",
"9XsXN.7XxXxXVX%Xs.p.u.t.i.q.S.i.t.t.t.t.i.t.t.i.kXJXJXJXJXJXAX4 I U U U Y Y Y J m 3 3 3 2 : & H SXJXJXZXi.t.t.t.i.t.t.t.u.p.l.dX",
"sX6XN.sXxXxXBXZXz.y.i.t.t.t.i.i.t.i.t.t.t.t.i.i.kXJXJXJXJXJXJX< V U I J K J H m 5 2 2 > : : % 5XJXJXJX:Xi.t.t.t.t.y.r.r.t.t.r.r.",
"sXXXG.sXxXVXJXJXFX:Xi.t.i.i.i.i.t.t.t.t.t.t.i.i.ZXJXJXJXJXJXJXn.: V J J m H 5 5 1 1 1 : & % E JXJXJXJXj.t.t.s.7.e.G.|.u.t.t.t.t.",
"sXI.I.xXcXJXJXJXJXJXx.i.i.t.t.t.t.t.t.t.i.i.i.i.ZXJXJXJXJXJXJXxX@ m V B 3 4 1 1 , & % % # 4 GXJXJXJXkXa.r.u.7.) 9.J..Xj.v.a.a.i.",
"sXG.<XxXJXJXJXJXJXJXZXa.i.t.t.t.t.t.i.i.i.i.i.i.ZXJXJXJXJXJXJXJXe : m m 3 2 , - % % % $ . 5XJXJXJXHX>Xt.t.u.e.8.9.e.r.u.d.p.i.i.",
"wXC.qXCXJXJXJXJXJXJXJXk.i.t.t.t.t.i.i.i.i.i.i.i.ZXJXJXJXJXJXJXJXaX8 2 b 2 > : % % # # @ 8 HXJXJXJXJXx.t.t.e.D D r.r.r.e.| { i.i.",
"XXN.wXJXJXJXJXJXJXJXJX>Xt.t.t.t.t.t.t.t.i.i.i.a.HXJXJXJXJXJXJXJXJXaX9 b 3 > : & & % % - 7XJXJXJXJXJXl.t.t.r.S S r.r.t.r...S.i.i.",
"0 0 3XHXJXJXJXJXJXJXJX>Xt.t.t.t.t.t.t.i.t.t.i.j.HXJXJXJXJXJXJXJXJXJXFXA.V > & > 3 m _ bXJXJXJXHXJXJXx.t.t.t.8.:.q.p.e.5.! d.t.t.",
"<XqXJXJXJXJXJXJXJXJXJX>Xt.t.t.t.t.t.t.t.i.i.i.j.HXJXJXJXJXJXZXVXkX>XZXJXMX] > b U $.FXFXJXJXVXx.x.ZX:Xt.t.t._ :.{ 6.OXu.) d.t.t.",
"sXGXJXJXJXJXJXJXJXJXJXkXt.t.t.t.i.i.i.i.i.t.i.i.:X:X:Xx.oXx.j.i.i.i.p.x.dXZX[.R ~.NXJXZX>Xx.p.t.t.j.k.t.t.t.e.0.s.5.5.u.e.u.t.i.",
"sXJXJXJXJXJXJXJXJXJXHXkXt.t.t.t.t.t.i.i.i.t.i.i.a.i.i.i.t.t.i.i.i.i.i.i.a.p.l.aXZX>Xk.a.t.i.t.t.t.i.i.i.t.t.r.i.i.y.t.u.u.t.t.i."
};
