/* XPM */
static char *_8b98bff82da4d9bf5e25ab4ff3b2278lpze1kl1zBcLM1W5[] = {
/* columns rows colors chars-per-pixel */
"64 64 256 2 ",
"   c #0F0E0F",
".  c #180809",
"X  c #260A09",
"o  c #340A09",
"O  c #2E1A17",
"+  c #361917",
"@  c #3B221C",
"#  c #371B22",
"$  c #1B282B",
"%  c #2A2727",
"&  c #3A2827",
"*  c #313032",
"=  c #393636",
"-  c #460A0C",
";  c #54120E",
":  c #481615",
">  c #571817",
",  c #65110D",
"<  c #661917",
"1  c #761816",
"2  c #49221B",
"3  c #58241C",
"4  c #6B2A1C",
"5  c #78261B",
"6  c #5A1D22",
"7  c #7C1D22",
"8  c #462927",
"9  c #592A25",
"0  c #44332D",
"q  c #5B342B",
"w  c #463835",
"e  c #573B37",
"r  c #672926",
"t  c #792923",
"y  c #68352A",
"u  c #773629",
"i  c #7C2F30",
"p  c #673B35",
"a  c #743C35",
"s  c #4C443C",
"d  c #59433B",
"f  c #65453A",
"g  c #754A34",
"h  c #774639",
"j  c #3B3840",
"k  c #523E42",
"l  c #773E41",
"z  c #385053",
"x  c #3C6A6E",
"c  c #4B4546",
"v  c #574846",
"b  c #59544D",
"n  c #445B5A",
"m  c #595A56",
"M  c #694C43",
"N  c #754A43",
"B  c #69544A",
"V  c #775748",
"C  c #645B55",
"Z  c #785C55",
"A  c #54645D",
"S  c #696358",
"D  c #7B6B55",
"F  c #7A6758",
"G  c #495E63",
"H  c #49676A",
"J  c #596763",
"K  c #537371",
"L  c #577776",
"P  c #666A64",
"I  c #69756C",
"U  c #767669",
"Y  c #70736C",
"T  c #797D73",
"R  c #8F1A15",
"E  c #871B19",
"W  c #A21B1A",
"Q  c #83241C",
"!  c #8A271B",
"~  c #98281B",
"^  c #96361A",
"/  c #A62F19",
"(  c #911F21",
")  c #892A26",
"_  c #972A24",
"`  c #863729",
"'  c #963729",
"]  c #922C32",
"[  c #883A34",
"{  c #993933",
"}  c #A32A27",
"|  c #A63828",
" . c #B53A28",
".. c #A73C33",
"X. c #B23632",
"o. c #C13F1C",
"O. c #C23D25",
"+. c #B64A17",
"@. c #89442C",
"#. c #9A442A",
"$. c #9A532D",
"%. c #884638",
"&. c #9C4334",
"*. c #984937",
"=. c #8A543B",
"-. c #99543A",
";. c #A8472C",
":. c #B9462B",
">. c #AF532C",
",. c #A64836",
"<. c #AB4B33",
"1. c #B64936",
"2. c #A85539",
"3. c #B85839",
"4. c #93603A",
"5. c #AD6637",
"6. c #BC653D",
"7. c #C7571E",
"8. c #CE522E",
"9. c #C85939",
"0. c #CE672B",
"q. c #C86439",
"w. c #D66838",
"e. c #DB753B",
"r. c #E2712B",
"t. c #E66834",
"y. c #E3773B",
"u. c #8C5045",
"i. c #885846",
"p. c #975A46",
"a. c #A94E40",
"s. c #A65A44",
"d. c #B75A45",
"f. c #89634E",
"g. c #95624D",
"h. c #9A664B",
"j. c #896857",
"k. c #986B57",
"l. c #8A745B",
"z. c #9A745A",
"x. c #A76549",
"c. c #AB6C4C",
"v. c #B86848",
"b. c #AA714A",
"n. c #BB774B",
"m. c #A86A54",
"M. c #B76D53",
"N. c #A97759",
"B. c #B97758",
"V. c #897867",
"C. c #8C756A",
"Z. c #977965",
"A. c #A57865",
"S. c #AB7668",
"D. c #B77C64",
"F. c #CB5144",
"G. c #C75944",
"H. c #C56948",
"J. c #D46947",
"K. c #C7794A",
"L. c #D97846",
"P. c #C66A55",
"I. c #C47A55",
"U. c #C67958",
"Y. c #D57B55",
"T. c #E47B47",
"R. c #F07740",
"E. c #CA7C62",
"W. c #5D827B",
"Q. c #6D857A",
"!. c #778879",
"~. c #A8825E",
"^. c #B9815A",
"/. c #8B846D",
"(. c #98856A",
"). c #868777",
"_. c #968976",
"`. c #929279",
"'. c #A78669",
"]. c #B78868",
"[. c #A88B73",
"{. c #B68B73",
"}. c #A79674",
"|. c #A7957A",
" X c #B89777",
".X c #C98459",
"XX c #D98D54",
"oX c #D4845C",
"OX c #D88959",
"+X c #E58449",
"@X c #E58A58",
"#X c #E69659",
"$X c #F29A5A",
"%X c #EFA45E",
"&X c #C88766",
"*X c #CD8B64",
"=X c #D48B66",
"-X c #CA936A",
";X c #D89567",
":X c #DC9C6B",
">X c #C48D71",
",X c #C89A77",
"<X c #D69A74",
"1X c #E39A67",
"2X c #E59D72",
"3X c #DFA16D",
"4X c #C9A27A",
"5X c #D6A579",
"6X c #E6A46B",
"7X c #F2A86B",
"8X c #E8A877",
"9X c #EBB47B",
"0X c #F3B073",
"qX c #F3B97B",
"wX c #F5C17F",
"eX c #4F7B80",
"rX c #3F8B8C",
"tX c #588786",
"yX c #50878B",
"uX c #70948D",
"iX c #79A39B",
"pX c #8D9286",
"aX c #889687",
"sX c #949B86",
"dX c #A79B87",
"fX c #B89D84",
"gX c #93A79B",
"hX c #ADA68F",
"jX c #B9A587",
"kX c #CA9F82",
"lX c #C9A886",
"zX c #D5A986",
"xX c #DBAB83",
"cX c #D9B389",
"vX c #CAB292",
"bX c #D7B895",
"nX c #E5AC85",
"mX c #E8B887",
"MX c #E2B48A",
"NX c #F2B883",
"BX c #F2BD8B",
"VX c #E5BC94",
"CX c #F3BD91",
"ZX c #D2BEA2",
"AX c #DBC39B",
"SX c #EBC38B",
"DX c #F3C289",
"FX c #E9C498",
"GX c #F5C897",
"HX c #F7D29F",
"JX c #DCC8A8",
"KX c #EECFA7",
"LX c #F2CBA5",
"PX c #F8D6A6",
"IX c #E5D3B4",
"UX c #F7E1B5",
/* pixels */
"R R 0.>.- ~ / +.0X7X.Xo ^ 8.0.+XwXqXqXg   4X7XXXqXGXcXz.@.:X5XGXHXSXD.vXM v.q.H.6.d.s.t 3.3.<.<.,.> ,.....' ) w j * % @ ; ; +   ",
"- , 1 4 : 5 ! ^ ^ ^ #.-.1 o.o.>.6.6.v.2.` 6.3.9.q.K.K.K.3.3.q.H.q.v.x.X c c v w b c b % k k v c v O 8 0 0 8 8 8 0 & # 8 > y X . ",
"#.| 5 #.^.` $.` $.$.$.8X$.q.q.q.K.*X.X*XXXn.6.6.6.v.v.v.M.n.s.v.M.v.*.i.f T e _.b b b c S v b w S & e d = & & & % & O # X + X o ",
"7.r./ ^ 5..XOX;X:X:X6X3X9X5X9X9X9XmXnXMXmX5XNXBXNXmXmXGXDXGXGXmXVXGXVXGXFXxXN.PXFXvXFX'.FX0 fXz.8XoXK..XV 0 b.x.m.) t p + . - - ",
"r.r.;.5 O % % O = = w s = s & s w v d e d 9 #.3.1.<.3.2.d.v..XoXoXI.I.U.I..X*X-X>X-X-X].].m.M.M.I.H.v.5.@.s.3.>.;.<.1 y 3 < , ; ",
"r.y.! @.g & & v B v d B f.i.f.=.u.j.j.g.j.i.h.v.m.c.m.x.*.U.B.I.I.B.U.U.D.B.P.G...1.1.1.1.1.:.;...3.|  . ._ ! ) ! Q 1 < , 5 1 ; ",
"+X>., ! e.^ b.FXc.) ^ e.y.+Xy.#.! 5 _ <.2.' a.,.,.3.;.1.2.5XB.;X2XXX2X&X5XN.M.2.,.1.3.+Xy.w. .< v + <.9. .| > q # < ~ , , X , > ",
"g , E R q.;XHXI.} , ^.$Xe.y.y.#.&XB.p.;X=X.X<X&X].>X>X,XzX,Xb.XX.X;XBX8XnXb.M.s.2.*.-X+Xy.y.8.) M p :.8.o. .> f & ! ~ 1 < . o : ",
"&., 1 E :.BXB.} W [ oX| 0.R.+X;.xX-Xs.@X@X@XP.U.2.s.0X8X2X#Xw.@X0X:X0X0X7X@XoXg.: MXkXnX;XJ.8.8.]  .J.8.8.O.) [ ' 8.} 1 7 X - : ",
"9.,., 7 K.1XH.H.d.t { 1.q.q.8.9._ Q Y.R.@XT. .X.X.G.T.@X+X+X0.y.+XL.@XOX+X@X*.P.d.J.E.nXxXVX].; _ }  .X.} | o 7 } ~ ( , < X 1 , ",
">.H.p.g.h [ ,.&.a.i a.*.) ,.) { ..]  ...X...) { ) ` $.6.H.H.,...' ] [ &.a.{ %.t [ i [ ` i u r > 9 9 r r r 6 # 2 > > : 8 < 1 } , ",
"t ,.' <Xp.S.) < r & k c c d e f e e f f M Z p m.,XxXzXzXd g.f z.,X'.[.e F = s B 0 b b = Y * P 0 e z j n * i.y V d C & = r ! R < ",
") 1.1.U.=.z.) 5XmX'.cXf.mX9X%.h.mX>X5XzX~.FX~.SXDXSXwXSX'.D lXHXSXGXGX/.C SXFXAXcXVXcXAXc jX~.5XH.n.2.2.i.' <.2.2.*.a g V + 1 1 ",
";X` { -Xi.k.t 8XqXDXDXDXmXDXSXDXDXBXNXDXDXDXDXDXSXmXmX5X8X5X5X5X4X4X4X X4X4XmXSXmXmX5X5X^.-X;X;X@X#X1XoX;XU.U.I.K.B.y V z.. o < ",
"mXc.i xXp.z.t 6Xb..X.X&Xf l.cXb.M.M.B.=XB.n.B.*XGX].=.*.{ ` i q A x x x z = 4XFX2.2.,.a.2.a.&.&.{ { { &.*.&.&.#.-.].u =.N.. q u.",
"FXCX*.O g k.` nXN.-X;X=.l. XAX.X].E.kXkX,X].>X].xXM.H.U.Y.E.U.U.D gXgXiXiX!.FXGX%.m.m.s.x.x.s.M.K.n.v.B.M.M.m.Z.-.B.u V i.u ,.] ",
"@.GX..(.u.h.` MXA.f.V S PXN.FX*X.Xb.m.N.B..X-X].MXs.M.;X=X>X&X=XE.C iXiXuX).LXGXp.OXT.J.w.w.0.w.w.8.0.:.>.3.2.N.*.m.g f.-.;.v.5 ",
"1 MXX.kX%.z.[ BXD.k.,Xh m.v.9XOXn.<XU _.cXM.&XD.5XD.,.=X=X=XU.=X.XD.C iXiXT bXGX-.OXT.L.L.L.L.w.T.w.0.3.>.3.3.s.*.b.y Z > ' ;.3 ",
"u CX..E.@.z.[ mX].<X<.s.p.I.6X;XB.<XsX/.bXU.U.].MXB.s.d.P.=XI.U.U.U.k.I iXI AXPXs.OXT.T.e.w.w.L.+XXX+XH.6.>.2.2.*.x.p f.s.5 t X ",
"DXGX1.U.[ A.` 8XB.OX+Xw.{ H.2XOX&X-X!.V.>XU.Y.].MX&X=Xp.:X2X<X2X8X<XnXj.Q.uXlXHXs.oX=X@X1X8X9X8X8X8X8X8XOXY.v.s.s.b.q V M._ + p ",
"8XBXX.B.*.A.` 8XB.oXL.y.3.K.6X.X.XxX{. XVXM.Y.].nX&XE.U.s.=X=XE.<X=X2X&Xj.).lXKXp.NX:X=X;X:XB.h.V M f B V f.].p.x.h.O Z M._ ' t ",
"K.GX| P.#.k.` qX].;X+Xy.y.+X1XY.P.v.I.I.U.P.H.m.xXD.OXE.s.E.E.kX>X=X=XE.kXB bXHX=.h.u.i.V C J W.tXuXuXuXW.W.L m s.b.8 e c.~ ;.[ ",
">.CX&.k.-.k.` 8XN.U.oX@X@X#X6X.X-X*X&X&X=X<X<XM.nXD.M.S.S.u.a.u.i.i.u.u.[ q  XGXv x x K eXtXtXW.W.L K K H K L c x.x.q f g ~ | ) ",
"8.nXp e x.z.t 1X~.h..XB.B.*XB.4.&X&X&X&X&X-X].N.nXfXfXvXkXzXZXZXJXJXbXJXZXvXbXFXF J I Y F D j.Z S Z B B B B B M x.x.y f.e , ,.) ",
"q.9 q 9X*.z.[ 8XBXDXDXGXDXGXGXHXHXHXHXHXGXHXHXvXcXlX|.[.S.>XS.S.A.A.S.S.S.dXlXVXxXcXxX-X4X<X5X<XzX,XlXfXkX X X XM.x.q i..X_ ' 5 ",
"Y.< =X8Xs.l.[ 3X Xx.z.`.!.T ~.^.zXvXbXbXbXzX4X|.cX,XJ a ] ] X.( X.} ] ..7 Y k.zX(.`.`.dXdXpX).T T U U C.U U T _.c.S.r i.B._ _ h ",
"{ _ _ ..: C.u NXl.'.h.L rXz 5Xh. X,X,XkX,X,X-X|.VXkXI l F.X.F.O.X.X.X.F.i P j.zX'.Z.uX/.sXdX<X|.tXA s.[.zXfXc J c.m.y f.B.! -.2 ",
"*.m.D.D.g Z.u NXj.4X;Xn rXC DXk.'.,X,XOX6X6X6X{.VXlXP a } P.D.&X=XD.P.F.` Y j.xX Xm.uXV.hXpX0XN.yXI v.{.nXV.eXJ m.m.y f.>X&.a.r ",
"d.,.<.;.[ j.[ 9XV jX8X=.n N.9Xk.[.]. X].4X5X5X|.cXlXI l ] UXUXPXPXPXPXF.] J j.VXfXm.uXU vXL './.L K Z.A.j.tXtXH N.m.y Z f y [ ;.",
"3.3.q.J.{ Z.u BXD |.6XK.y 8XqXz.'.,X4XzXnX5XzX XxXkXP N { KXLX2X-XMXUXF.] m f.MXjXD.`.Y ZXn uXaX).aX!.).K uXtXn N.k.r z.M : ,.<.",
"9.J.J.Y.<.Z.u GXV }.-X:X2.8X0Xl.(.;X~.'.6X8X:X].xX,XJ l ..UXnXt.t.:XUXG.] Y z.cXlXjXuXC.JXY C.q <X.XT lX/.tXyXn S.m.y j.]...*.< ",
"5 5 5 Q ;.j.y nXD dX{.-X;XoXXX(.[.1X<X.X;X8X:X{.cX,XY a { PXnXy.t.;XUXP.[ C z.MXlX{ u.Y ZXI z.q nX:X).cX/.uXtXz S.k.9 v D.~ ~ ) ",
"y oX7X^ ,.k.u VXU |.(.3X8XI.:X[.'.1XXX$X%XXX:X{.MXkXP l { LXnXR.w.=XUXG.] C A.MXzX{ %.T hXT k.p mX6XaXcX`.uXyXz A.h.9   m.| ) W ",
"#X%X1X` ,.k.u mXS hX(.5X3XK.B.dX'.;X:X6X1X;X;X'.cX<XG N ..LXcXH.H.<XUXa.] C Z.zXcX).iXH jXT z.a VX;XaXAX).uXyXx A.k.r D ].:.) E ",
"#X7XN.B.<.Z.u mXD |. X4X8X.X].|.(.oX^.~..X.X@X~.xX5XA l ] VXPXUXPXPXPX1.] C j.5XcXV W.I vXY P v l.Z.)./.L uXeXz A.k.r u.p 5 [ E ",
"+X6.X ].2.S.u BXl.`.jXN.6X.X&X_.'.L.;X].#X$X#XN.5X<Xm l X.2X0X0X9X9XnXd.] C j.xXVXV Q.I lXjXlXbXjX`./.zXY K rXz A.g.r i.I.) { 1 ",
"y.4 f.9X,.Z.u NX'.y F [.5XOX].dXN.T.:X^.#X+X+X^.5X4XJ l 1.F.J.F.F.F.X.X.) C C.cXcXD !.U 4XhXSX-XQ.tXC.K.VX_.L H Z.g.r i.oX} ! Q ",
"6.@.<Xe.2.Z.%.DX].J.*.p z.-X[._.B.e.@X1X+X+X+X^.5XzXP k } } } ( } _ } } i C V.VXFXj.`.U |.hX5XZ.iXA (.3.q.<XU H A.g.y =.oX| S.9 ",
"..D.5.;X5.Z.%.DX{.h.h.m.V `.`.dX'..XOXOX.X.X.Xz.4XzXC v a a a a %.a u.h h V.Z.cX'.D D B Z.U m J J m b d M f F c k.p.a h .X| a.i ",
"2.I.,.=Xx.A.=.SX XFXFXFXFXFXKXFXFXmXMXFXSXSXcXxXnXxXkXzXcXcXFXFXGXVXcXcXFXbXzXVXFXFXJXIXIXJXIXIXIXJXJXIXIXIXIXZXk.p.a V b.*.&.1.",
"OX1.a.> h.A.i.mX XN.b.z.z.N.[.}. X X X X].'.].'.BXcX$.*.#.;.2.2.*.2.2.2.2.c.].lXS I I L T I K I J L I J J n G m u.g.g N 8 2 <.1.",
"&.] d.N.u.A.g.SX|.(.l.vXbXAXbXvXvX4X X4X4X,X4X XlX5X,XlX,X4X4XzX,XcXxXzXlXAXfXlXH K H L H H H G H K H G G K H n u.p.h N s.>.>.| ",
"h u 9.B.-.k.z.9X]. Xf ,XxXqX%X%XmXK.OXoX=XoXK.N.4XAX4X X,X5X4X4X4XvXlXlX4X XjXjXU  XfXfXfXS.Z.k.u.u.{ %.[ [ %.9 u.p.a N x.:.1.5 ",
"9XQ H.P.p.z.k.mX Xl.V f. XDX7X0X;Xe.1X6XXX+XT.B.4XzXi.C I U (.4.4.=.S U !.W.= _.!.MX,XY.T.Y.2X2XNXCXCX8X1X=XG.' %.p.h X u 1.1.: ",
"H.~ G.d.a.k.k.nX Xf <X4XvX X|.[.n.L.J.J.T.T.T.B.zXcXv.M sX|.GX#Xe.e.f.sXsXaXS hXT FXxX+X0.8.t.w.w.t.8.T.q.q.w.' *.p.g h ` | 8.) ",
"3._ d.d.m.k.u.qX].h | 6.+X2XcXFXfX'.{.fX X,X X(.cX5XU.B sXdXGXDX:XL.v.F hXaXC jX!.bXLXHXBX@Xt.t.8.8.w.M.i.M.9._ *.p.f N &._  .~ ",
"3.) d.m.Z A.p.0X].h  .P.OX;XnXnXcXzXzXlXvXvXlXlXMX5XP.B sX/.FXGXNX3X8XZ.!.sXb dXT j.Z i.*.a.3.3.1.X. .3.,...} ` %.f.g N [ ~ 1._ ",
"v.) s.2 l.N.@.Y.].h | z.%.2.,.].&.M.{ m.M._ d.) cX5XM.b pXsX)._.(.|.V./.sX!.C hX(.sXhX_.[.D Z.p Z a V u.N *.a [ *.p.h g p.) | _ ",
"6.` ` m.@ l.-.@X].h | m.-.E.m.,Xx.zXs.].kXa.P.{ GX5XB.w gXsXaXaXaX!.!.aXaX!.F hX(.sXhX`.}.).jXV dXk._./.F M.F m.*.p.u h ~.8 : ` ",
"H.i ' =XV j.*.#X.X%.2.;.>.v.v.c.b.c.M.m.s.d.d.m.FXzXh.f.U T Y P U !.P U Y Y './.D /./.l.(./.(.j.g.g.z.z.g.s.i.p.*.s.y p V . > 4 ",
"u ].;.Y.g f.-.K.6X6X6X8X8X6XNXNXmXBX8XNX0XNXNXqX9XNXmXDXMXFXLXFXFXFXVXVXMXcXMXVXMXzX4X5X:X4X5X<X<X;X*X*X.X.Xv.M.c.m.y N e g &.) ",
") *.| P.h N @.d.B.B.n.c.5.x.2.s.x.x.h.s.s.5.x.x.2.b.m.h.m.'.k.z.N.g.g.k.k.k.g.z.z.z.N.z.N.b.N.m.h.x.x.h.-.=.-.*.%.@.y h %.t ' Q ",
"^ q.~ v.i.i.y y e f d f d f M V V V V V V V V B Z V Z V V V V B B B B B B M B B B B v d d s v e d v M k f a y r r 9 9 e u.1 { 1 ",
"} L.! <.i.x.<...9.3.-.OXXX@X;XoX.X=X.X1X1X1X<XB.&X6X2X2X<X<X<X8X6X3X;X=X*X=X&X&X*XU.U.OX@XY.1.3.{ 1.1.| } ) ) ) t ) ) < r t > > ",
" .,., ' q.8X;.O. .E *.T.y.r.y.>.Q ~ R q.Y.e.T.8.W W W W W FX' ;.#.3.B.B.,.a.,...d...K.+Xy.t.| : e > 9./  .E X & . 5 X.> < : t , ",
"t ; ( ) q.@XnX1.( ) Y.J.0.w.T.:.s.CXx.J.Y.t.T.9.~ } } W ~ LX-XE.I.;X*X:X;X&X.XS.A.%.T.L.t.t.8.r C.> O.~ O._ - C.; | } < < . 7 , ",
"r ; R ~ 0.+.5.6X,.t | E :.w.y.:.I.GXd.L.q.w.9.J.{ nXLXKXKXCXq.+X6X#X#X%X#X.XH.c.9 <XT.K.e.8.8...< 9.8.}  .~ ) 5 } ~ ^ 5 >.: 2 - ",
"_ ~ 1 ! 3.1 Q @.[ 1 ) ,.:.;.9.9.! _ ) z.k.N.k.i.p { =X-X5X+Xt.8.T.+XT.+X+XL.:. .| G.q.3.d.9.' - { 1. .} _ 5 o 5 ~ ;.! r.5.$.3 - ",
"~  .1 ) e & % 0 = = 0 0 = w 0 w e e s s s v v k c 9 [ *.2.;.' #.{ #.,.<.d.a.t ,.&.[ [ [ t t r > 6 r r r 6 > o 9 2 q 0.+.0.4 5 ; ",
"W / ~ u O g 2 2 f p 3 u u.> y @.u =.=.=.h.%.D.c.x.x.&X-.M.-.&X^.].^.^.'.M Z.f lXkXlXU _.b C C.M F V.% b * e f d p $.+.0.3 ^ , - ",
"E ! 5 u 5.K.K.n.;X#X-XXX1X3X6X0X6XqX:X6X3XXX:X%X1X6XqX:X9X;XwXwXwXwXDXDX].9X[.qX8XBXFXd cX-X#XXX=X:XV f ^.4.>.$.+.5.5.g 0 3 ; - ",
"- > 2 4 g y @.$.$.4.4.%X$.5.6.^.K.K.n.XX;X6.n..X=X.XOX.XOX.X^..XI.^.n.M.*.2.*.<.<.&.*.u @.#.` ` _ ` u 4 u y @.5 +.^ 3 2 X X o X ",
"; 5 $.! ; 4 u 4 y g y b.4 ^ $.$.$.$.4.5.h.$.$.-.-.$.;.5.v.` @.V =.M f e e % * w & = m & j = % * * % $ $ $ $ $   $ O O : o 3 X   ",
"- , #., , ^ ^ +.e.+XL.- 4 0.0.%XqX0XqX2 . 5X9XqXqX7X0Xh 2 n.wX9XSXcX X& F l.S..._ s.(. X}.l.f./.l./.D n z z z z O % & @ o 2 .   "
};
