/* XPM */
static char *ats22_8dcl3[] = {
/* columns rows colors chars-per-pixel */
"64 64 168 2 ",
"   c #121214",
".  c #171719",
"X  c #1A1A1C",
"o  c #1F1F21",
"O  c #202022",
"+  c #2B2C2D",
"@  c #2D2E30",
"#  c #343436",
"$  c #393A35",
"%  c #363639",
"&  c #3B3B3D",
"*  c #3F413F",
"=  c #42423E",
"-  c #373A41",
";  c #3F3E41",
":  c #3E3E48",
">  c #353547",
",  c #3E3D55",
"<  c #3D375B",
"1  c #413F44",
"2  c #413F4B",
"3  c #413E54",
"4  c #413D5A",
"5  c #443E60",
"6  c #3F4142",
"7  c #434345",
"8  c #464846",
"9  c #494846",
"0  c #464649",
"q  c #48474C",
"w  c #47484A",
"e  c #4B4B4C",
"r  c #504E4E",
"t  c #51524D",
"y  c #434251",
"u  c #4A4750",
"i  c #4E4E51",
"p  c #43425B",
"a  c #514F52",
"s  c #525254",
"d  c #575659",
"f  c #58575C",
"g  c #5A5A5C",
"h  c #5F605B",
"j  c #494664",
"k  c #4B466D",
"l  c #4C4869",
"z  c #454463",
"x  c #5E5F61",
"c  c #514A74",
"v  c #5F6062",
"b  c #626265",
"n  c #656668",
"m  c #6A6A6C",
"M  c #6F6F71",
"N  c #737375",
"B  c #76767A",
"V  c #77787A",
"C  c #7C7C7E",
"Z  c #6C6986",
"A  c #707281",
"S  c #7E7F81",
"D  c #77748F",
"F  c #7A7794",
"G  c #7B7893",
"H  c #7F8082",
"J  c #838485",
"K  c #868789",
"L  c #87888A",
"P  c #8A8B8D",
"I  c #8D8E91",
"U  c #868499",
"Y  c #8F9093",
"T  c #929395",
"R  c #959698",
"E  c #97989A",
"W  c #9A9B9D",
"Q  c #8E8BA6",
"!  c #8E8BA8",
"~  c #9394A6",
"^  c #9698A4",
"/  c #9E9FA2",
"(  c #9896AB",
")  c #9A9BAC",
"_  c #9FA0A4",
"`  c #A2A3A5",
"'  c #A6A6A9",
"]  c #A7A8AB",
"[  c #AAABAD",
"{  c #B0B5AF",
"}  c #ADAEB1",
"|  c #AFADBA",
" . c #AFB0B3",
".. c #AEB1B8",
"X. c #B2B3B5",
"o. c #B6B8B5",
"O. c #B5B6B9",
"+. c #B8B7BC",
"@. c #B7B8BB",
"#. c #BABBBD",
"$. c #BDBEC1",
"%. c #BFBDC8",
"&. c #BCBAD2",
"*. c #C0BFC4",
"=. c #C1BFD5",
"-. c #BFC0C2",
";. c #BFC1CD",
":. c #C2C3C5",
">. c #C8CAC7",
",. c #C5C6C9",
"<. c #C7C8CA",
"1. c #CACBCD",
"2. c #CFD2CE",
"3. c #C5C7D3",
"4. c #CDCED1",
"5. c #C8C6DC",
"6. c #D1CFDA",
"7. c #CFD0D2",
"8. c #D2D3D5",
"9. c #D3D4D6",
"0. c #D5D5D7",
"q. c #D4D5D7",
"w. c #D2D2D5",
"e. c #D6D7D9",
"r. c #D5D6D8",
"t. c #D5D6D9",
"y. c #D7D8DA",
"u. c #D7D8DA",
"i. c #D9D9DB",
"p. c #D9DADC",
"a. c #DADBDE",
"s. c #DCDDDF",
"d. c #DADBDD",
"f. c #DBE0DA",
"g. c #CFD0E2",
"h. c #D4D7E0",
"j. c #D6D9E2",
"k. c #DEDFE1",
"l. c #DEDFE2",
"z. c #DDDEE0",
"x. c #DFE0E2",
"c. c #DFE0E3",
"v. c #E0E1E3",
"b. c #E1E2E4",
"n. c #E2E3E5",
"m. c #E3E3E5",
"M. c #E6E6E9",
"N. c #E5E6E9",
"B. c #E7E8EA",
"V. c #E7E8EA",
"C. c #E9E9EB",
"Z. c #EAEBED",
"A. c #E9EAEC",
"S. c #ECEDEF",
"D. c #EAEBED",
"F. c #F0F0EE",
"G. c #EEEFF1",
"H. c #EDEEF0",
"J. c #EDEEF0",
"K. c #EFF0F2",
"L. c #F0F1F3",
"P. c #F1F2F4",
"I. c #F2F3F5",
"U. c #F6F6F9",
"Y. c #F6F7F9",
"T. c #FDFDFF",
"R. c #FFFFFF",
"E. c #FBFCFD",
/* pixels */
"+ % ` #.O.:.:.<.[ :.X.& 7 7 7 ; 7 7 7 7 7 7 7 7 7 7 7 7 7 7 7 7 7 7 7 7 7 7 7 7 7 7 7 7 7 7 7 7 7 7 7 7 & 1.v.#.` w.,.:.a.w.w.s ",
"E / #.,.,.,.$.4.[ ,.1.7 ; 7 & 7 7 7 7 7 7 7 7 7 7 7 7 7 7 7 7 7 7 7 7 7 7 7 7 7 7 7 7 7 7 7 7 7 ; 7 ; & 7 s.b.:.W ,.r.#.B.y.0.` ",
"a.y.-.1.1.,.<. .[ w.,.& 7 7 ; 7 7 7 7 7 7 7 7 7 7 7 7 7 7 7 7 7 7 7 7 7 7 7 7 7 7 7 7 7 7 7 7 7 7 7 ; 7 & :.U.:. .] G.:.4.<.$.#.",
"w.r.1.:.w.<.:.@.X.A.J & 7 7 7 ; 7 7 7 7 7 7 7 7 7 7 7 7 7 7 7 7 7 7 7 7 7 7 7 7 7 7 7 7 7 7 7 7 7 7 7 7 # N R.i. .X.#.#.#.#. .,.",
"w.w.:.1.1.X.z.4.w.` ; 7 7 & 7 7 7 7 7 7 7 7 7 7 0 7 7 7 7 7 7 7 0 0 0 0 0 7 7 7 7 7 7 7 7 7 7 7 7 7 7 7 7 & T S.4.,.#.E I <.:.-.",
"<.1.w.O.} v.b.P m & 7 7 ; 7 7 ; 7 7 7 7 7 7 7 7 0 0 0 0 0 0 0 0 0 0 0 0 0 0 0 7 7 7 7 7 7 7 7 7 7 7 7 7 7 7 # b T I <.,.' E ,.a.",
"b.x.w.4.B.r.g # & 7 7 ; 7 7 7 7 7 7 7 7 7 0 0 0 0 0 0 w w w e e w w w w w 0 0 0 0 0 0 7 7 7 7 7 7 7 ; ; 7 ; 7 & % % v ,.4.#.#.1.",
"[ [ [ ,.C 7 & 0 7 7 7 7 7 7 7 7 7 7 7 7 0 0 0 0 w w e e e e e e e e e e w w w w w w 0 0 7 7 7 7 7 7 7 7 ; 7 7 7 7 7 & 0 :.:.X.` ",
"#.:.0.R # 7 7 7 7 7 7 7 7 7 7 7 7 7 0 0 0 w w e e e e e e e e e e w e i e e e w w w w 0 0 0 7 7 7 7 7 7 7 7 7 7 7 ; 0 & N s.,.:.",
"L.M.' 7 7 7 7 7 7 7 7 7 7 7 7 7 0 0 0 w w w e e e e i s e e i e i i i e w e i e e e e w w 0 0 7 7 7 7 7 7 7 7 7 7 7 7 7 & K v.S.",
"B d # 7 7 7 ; 7 ; 7 7 7 7 7 0 0 0 w w e e e e e s i e e e s s i i i i i s e e i e e e e e w w 0 0 0 7 7 7 7 7 7 7 7 ; 7 7 % i N ",
"% & 0 7 & ; 7 7 7 7 7 7 7 7 0 0 w w e e e e e i e s s s s s s s i s i s s s s e i e e e e e w w w 0 7 7 7 7 7 7 ; 7 7 ; 0 7 ; & ",
"7 7 7 7 ; 0 7 7 7 7 7 7 7 7 w w w e e e e e i i s i s s s s w s g x d e e s s s a i e e e e e e w 0 0 7 7 7 7 7 7 7 7 7 7 ; 0 ; ",
"7 7 ; ; 0 ; ; 7 7 7 0 0 0 0 w e e e e i i i s s s s d s i b E :.0.i.0.#.J s e s s s s i i e e e e w 0 0 0 0 7 7 7 & 7 7 & 7 7 7 ",
"; 7 7 7 7 7 7 7 7 7 0 0 0 w e e e e i a s s s s s s g i S 1.w.w.4.,.0.r.v.:.m e s s s s s i e e e e w 0 0 0 7 7 7 7 7 7 7 ; ; 7 ",
"7 7 7 7 7 7 7 7 7 7 0 0 w e e e e i i s s s s d s s 7 K <.#.O.#.#.#.#.#.#.w.,.m s s s s s i i e e e w w 0 0 7 7 7 7 7 ; 7 ; 7 7 ",
"7 7 7 7 7 7 7 7 0 7 0 w w e e i e s s s s d i i n C T 1.+.} X.} } } X.O.O.O.:.X.d s d s s s s e i e e w w w 0 7 7 7 7 7 7 7 7 7 ",
"7 7 7 7 7 7 7 0 7 7 e e w e i e s s s s d i b #.A.Y.U.M.a.*.' ] +.X.} / ] } [ #.C i d d s s i s e e e e w w q 0 7 7 7 7 7 7 7 7 ",
"7 7 7 7 7 7 7 0 7 e w 0 i e i s s s s s e m C.R.C.i.4.<.,.4.4.a.z.N.z.#.} :.r.x.:.b e d d s s s s i e e e w 0 0 7 7 7 7 7 7 7 7 ",
"7 7 7 7 7 7 7 7 w e 0 e i i e s e w b m m z.U.0.1.:.#.#.#.,.1.$.$.#.:.1.w.w.0.b.U.S.W s s d s s s s i e e w 0 0 0 7 7 7 7 7 7 7 ",
"7 7 7 7 7 7 7 7 0 w s e e s i e C #.:.$.y.A.w.,.$.X.} ] #.#.}  .O.X.O.O.O.#.#.<.a.A.R.] s s g s s s i e e e w w 0 7 7 7 7 7 7 7 ",
"7 7 7 7 7 7 7 0 0 w e e s e s X.G.i.,.#.r.w.-.X. .' X.a.L.A.r._ S K P / O.1.,.X.$.0.B.E.K s d s s s s e e e w 0 0 0 7 7 7 7 7 7 ",
"; 7 7 7 7 7 0 0 w e e i e e :.R.9.,.O.X.1.#.@.#.] [ G.P.s.1.1.,.[ #.X.:.z.G.G.b.#.:.7.P.w.s i s s s s i e e e 0 0 0 0 7 7 7 7 7 ",
"; 7 7 7 7 7 0 w e e e s 7 ` R.z.1.$.X.} #.9.r.$.@.C.b.,.#.O.O.,.4.,.1.w.:.<.v.U.N.X.:.a.G. .E m i s s i e i e e 0 0 0 7 7 7 7 7 ",
"7 7 7 7 7 0 0 w e e i e x C.P.0.,.X.X.W y.C.,. .$.a.:.X.' E [ ` E W ` ' X.X.$.r.I.7.O.1.v.:.#.<./ s s s s e e e 0 0 7 7 7 7 7 7 ",
"7 7 7 7 7 0 0 w e i e 7 P R.z.w.#.X.' #.S.1.#.[  .#.X.W W 4.a.X.N d n X.i.,.} #.z.a.@.,.w.O.X.#.a.X.s s e i i e w 0 7 7 7 7 7 7 ",
"7 7 7 7 7 0 0 w e e s 7 X.R.a.<.#.O.W a.C.-.X.W S :.#.#.S.i.#.<.,.#.O.<.a.K.a.@.,.7.X.1.1.` } +.,.A.W w s s e e w 0 0 7 7 7 7 7 ",
"7 7 7 7 7 0 0 w e e e w O.U.r.:.O.' W m.r.@. .C P z.X.0.1.} 1.@.E E #.X.[ <.L.,.,.$.[ #.i.' } O.#.y.N.x i i e e e w 0 7 7 7 7 7 ",
"7 7 7 7 7 0 w e e e s 0 [ P.1.$.X.X.X.M.1.#.` N r.1.` #.#.b.b.w.<.#.w.N.O.] 1.,.#.9.X.X.9.<._ O.:.4.L.I 0 s e e e w 0 0 7 7 7 7 ",
"7 7 7 7 7 0 w e e e d 7 K P.1.#.$.:.O.a.<.X.W W N.O.' 1.w.y.X.H d V ` #.0.#.1./ [ a.1.} 7.9.` O.@.4.S.X.0 s e e e w 0 0 7 7 7 7 ",
"7 7 7 7 7 0 w e a i e i d r.1.#.r.$.} O.1.} X.<.a.} <.7.#.#.n o . . w ' ,.T 4.[ ' w.<.} 4.w./ X.#.:.S.O.w i s e e w 0 7 7 7 7 7 ",
"7 7 7 7 7 0 w e e e s s w P w.0.w.$.X.T [ :.<.X.1.@.a.,.0.P . & B s   n ,.K :.w.` 4.,.[ 4.,.R X.O.,.S.] w s e e e w 0 7 7 7 7 7 ",
"7 7 7 7 0 0 w e e e i s s i E M.4.$.} T g [ w.] W 7.:.1.w.N . m R C X s <.} #.w.:.:.<.#.<.1.' [ #.,.S.P q s e e e w 0 0 7 7 7 7 ",
"7 7 7 7 0 0 w e e e s i d s g b.w.O.O.W s _ 9.X.P i.O.<.#.C O % N 7 X x P <.:.@.v.@.1.7.:.:.4.X.O.4.0.d s e e e e w 0 7 7 7 7 7 ",
"7 7 7 7 0 0 w e e e s s s i b z.a.+. .W g R a.X.E 1.-.:.$.] d X .   ; I P 7.[ #.z.X.w.i.X.:.z.,.X.s.P e s i e e e w 0 0 7 7 7 7 ",
"7 7 7 7 7 0 w e e e e s s s s 1.a.$.O._ m m s.#.W X.r.O.4.a.#.S n B ] z.:.,.} 9.y.X.s.w.[ ,.b.y.,.W s s i i e e e w 0 7 7 7 7 7 ",
"7 7 7 7 7 0 w e e e i i s d w P A.$.O.} V Y w.<.} ,.7.:.s.1.b.4.C X.N.1.@.a.,.4.X.:.C.:.X.<.G.x.I d s s s i e e e 0 7 7 7 7 7 7 ",
"7 7 7 7 7 0 0 w w i s i s s d x w.4.O.O.L X.,.$.X.r.C.$.r.N.0.:.X.#.,.<.B.a.#.1.@.a.1.[ $.w.I.#.7 s d s s e e e w 0 0 7 7 7 7 7 ",
"7 7 7 7 7 0 0 w e e e s s s e J <.1.,.X.' <.w.O.[ O.U.b.$.1.4.O.#.X.$.a.4.@.b.w.,.1.[ O.:.a.E.E s s s s i e e e w 0 0 7 7 7 7 7 ",
"7 7 7 7 0 0 0 w e w s a s s s #.<.O.$.#.[ w.A.,.#.] ,.U.P.a.,.#.:.:.,.,.7.P.z.@.#.,.X.#.7.A.S.g s s s i e e s e w 0 0 7 7 7 7 7 ",
"7 7 7 7 7 7 0 w w e i e s i b a.4.#.X.} / R P.b.,.#.} #.w.,.[ ` @.} -.z.N.w.X.O.1.r.@.-.x.R.K i d s s i i e e e w 0 7 7 7 7 7 7 ",
"7 7 7 7 7 7 0 0 w e e e i w m A.r.:.#.X.[ J } E.C.1.$.X.#.:.X.X.[ } X.#. .X.:.w.G.r.#.z.M.Y i d s s s i e e e w 0 0 7 7 7 7 7 7 ",
"7 7 7 7 7 7 7 0 w e e i s e n L.C.w.#.O.X.[ P } J.P.b.r.,.#.s.y.a.u.4.$.-.4.s.L.A.#.<.1.X.d s d s s a i e e w 0 0 0 7 7 7 7 ; 7 ",
"7 7 7 7 7 7 7 0 0 e w i i s s a.P.z.w.:.X. .[ P } ,.1.X.J n I X.} O.u.a.M.U.U.N.` ' X.O.#.n s s s s i i e e w 0 0 7 7 7 7 7 ; 7 ",
"7 7 7 7 7 7 7 7 7 w w e e s w ' R.C.z.1.#.#.O.} } } [ ` / E P L P T +.r.a.1.$./ [ X.X.-.,.g s s s s i e e e w 0 0 7 7 7 7 ; 7 7 ",
"7 7 7 7 7 7 7 7 0 0 w e e i e b S.U.C.s.w.-.O.O. .,.#.} X.X.X.X.O. .X.X.W R / X.X.@.-.0.#.i s s i i e e e w 0 0 7 7 7 7 7 7 7 7 ",
"7 7 7 7 7 7 7 7 0 7 0 w e e e 7 J Y.U.S.a.w.,.$.O.O.4.w.$.X.#.X.#.$.,.#.] O.O.+.$.,.1.S.P e s s i e e e w w 0 7 7 7 7 7 7 7 7 7 ",
"7 7 7 7 7 7 7 7 7 0 0 0 e e e s 7 J A.R.U.M.a.4.,.,.#.#.i.x.a.i.w.w.-.X.@.+.$.:.1.w.P.1.i s s e e e e e w 0 0 0 7 7 7 7 7 7 7 7 ",
"7 7 7 7 7 7 7 7 0 7 7 w e w e e s 7 x ` a.G.A.b.,.E b s N E ] [ w.#.{ #.-.:.4.r.z.Y.N.x e s e e e w w w q 0 0 0 7 7 7 * 7 6 7 7 ",
"; 7 & 7 7 ; 7 0 7 7 7 0 0 w w e i i e 7 i n M n s i s s i e i e J :.f.2.9.c.A.U.R.1.x e s a e w w w w w 0 0 7 7 7 6 7 7 ; 0 ; 7 ",
"7 7 7 & 7 7 7 ; 7 7 0 7 7 w w w e e i s e w e e s s d d d s s f u b W 1.z.M.z.:.J e w s a e a w w w 7 7 7 8 7 7 7 7 7 7 ; 7 ; 7 ",
"7 ; 7 7 ; ; ; 7 7 7 7 7 7 0 w w e e i e e s s i s s i s d s s d f i q i g b d 7 7 t r e i i e e q q 0 7 8 8 7 7 7 0 1 7 7 7 7 = ",
"& 7 ; % & & w ; 7 7 7 7 7 7 0 0 w 0 w e i e e i s i s s i s s i s s s s e e a s e e s e i u 0 q q q 0 0 7 7 7 7 7 7 & % % 7 * $ ",
"g 7 i m M e % 7 7 7 7 7 7 7 7 0 7 e e w w e e e i e i i i s s i i a a r e e i e r e 9 e i u 0 q 0 q q 0 7 7 7 1 ; % b V n = 8 h ",
"S.4.#.,.4.w.P & ; 7 7 7 7 7 7 7 7 0 0 0 w e e e e s e e e e e s r e e e r e i i w e w 7 0 0 w 7 7 0 0 7 7 7 7 & 7 #.F.s.2.#.>.S.",
"$.1.w.} [ #.z.P & 7 7 7 7 7 7 7 7 7 7 0 e 0 0 e w w e e e e e e e e e e r e q e e w 7 w q 7 9 = 7 7 7 7 7 7 7 & :.Y.<.o.[ 1.7.-.",
"#.#.-.w.<.} X.<.e ; 7 7 7 7 7 7 7 7 7 7 0 0 0 0 w w w w e e e e w e e e w w e q e w 8 8 0 0 7 7 = 8 * 7 7 7 # N P.,.X.` 4.t.$. .",
"N.M.:.' 1.<.} #.m % 7 7 ; 7 0 ; 7 7 7 7 7 0 0 0 0 0 0 0 w w w w q q q q w 0 q 0 0 7 7 7 q 0 7 7 7 7 7 7 7 0 # Y u.X.} 7.m.$.+.j.",
"` O.<.` W #.w.s.g & 7 7 7 7 & 7 7 7 7 7 7 7 7 7 7 7 7 0 0 0 0 0 0 0 0 0 7 7 0 0 0 0 0 q p p , y y 2 2 2 : ; - B h.3.;.j...I  .#.",
"1.:.W $.,.9.#.A.] % 7 ; 7 7 7 7 7 7 7 7 7 7 7 7 7 7 7 7 7 7 7 7 7 0 0 0 7 7 7 0 0 7 0 0 p z , p 4 , 3 3 y y > A g.) ~ ) ^ } -.:.",
"y.,.Y T $.a.s.,.M.s & 7 7 7 7 ; 7 7 7 7 7 7 7 7 7 7 7 7 7 7 7 7 7 7 0 7 8 8 7 7 0 0 0 0 j l p j k c k j j p 4 G ! F Z Q U 5.$.4.",
"X.O.$.:.r.#.B.:.C.d ; 7 7 7 7 7 7 7 7 7 7 7 7 7 7 7 7 7 7 7 7 7 7 7 0 7 = = 7 7 7 7 6 : 4 p 3 3 5 < 4 p 3 p > &.5.Q D =.( 5.9.4.",
"# 0 :.:.r.1.w.:.v.L & 7 ; 7 7 7 7 7 7 7 7 7 7 7 7 7 7 7 7 7 7 7 7 7 7 7 7 = 7 7 7 7 = 7 2 2 1 1 : y 2 2 : : / 6.%.U | %.X.4.1.g ",
"s @ L ,.-.,.#.<.-.:.N & 7 7 ; 7 7 7 7 7 7 7 7 7 7 7 7 7 7 7 7 7 7 7 7 7 7 = 7 7 1 7 = = 2 1 7 = 7 1 7 7 # P M.O.O.O.4.O.,.1.' + "
};
