/* XPM */
static char *a4vgx_ubg96[] = {
/* columns rows colors chars-per-pixel */
"64 67 246 2 ",
"   c #7D5707",
".  c #895C0F",
"X  c #91620E",
"o  c #9B6D16",
"O  c #9C6C1B",
"+  c #956317",
"@  c #9E721B",
"#  c #A36F0E",
"$  c #A26D19",
"%  c #A57214",
"&  c #AA7315",
"*  c #A3731C",
"=  c #AB751C",
"-  c #AC791E",
";  c #A7791A",
":  c #B37A1D",
">  c #B3781C",
",  c #9A6923",
"<  c #9F7122",
"1  c #9C6D37",
"2  c #A36F27",
"3  c #A47423",
"4  c #AA7622",
"5  c #A57A24",
"6  c #AB7B24",
"7  c #AC7C2B",
"8  c #A5782A",
"9  c #B37C24",
"0  c #BA7D23",
"q  c #B27D2A",
"w  c #B37824",
"e  c #B17F30",
"r  c #AA7A30",
"t  c #966B47",
"y  c #997455",
"u  c #946E4A",
"i  c #A17948",
"p  c #A87E5C",
"a  c #967A64",
"s  c #B6811C",
"d  c #AD822A",
"f  c #AD8125",
"g  c #B48225",
"h  c #BB8324",
"j  c #B3832C",
"k  c #BB852B",
"l  c #B68A2D",
"z  c #BC8A2D",
"x  c #BB8A26",
"c  c #AD8231",
"v  c #AE8931",
"b  c #B48533",
"n  c #BB8632",
"m  c #B68932",
"M  c #BC8B33",
"N  c #B48B3B",
"B  c #BC8D3A",
"V  c #B6863A",
"C  c #BD9135",
"Z  c #BD923B",
"A  c #B8943A",
"S  c #C2862B",
"D  c #C28B2D",
"F  c #C38727",
"G  c #C4912D",
"H  c #C8902F",
"J  c #C28C33",
"K  c #C38E3B",
"L  c #CB8E33",
"P  c #C49234",
"I  c #CA9434",
"U  c #CB9A35",
"Y  c #C4943B",
"T  c #CA953B",
"R  c #C49A3C",
"E  c #CC9A3C",
"W  c #C49835",
"Q  c #D29C3D",
"!  c #D09938",
"~  c #CDA23D",
"^  c #D4A23D",
"/  c #D9A03F",
"(  c #BB9443",
")  c #BD994A",
"_  c #AB8258",
"`  c #B48952",
"'  c #B48A69",
"]  c #B29173",
"[  c #C49542",
"{  c #CA9642",
"}  c #C59A43",
"|  c #CB9C43",
" . c #C49D4A",
".. c #CC9E4A",
"X. c #C8974A",
"o. c #D29E43",
"O. c #D49F48",
"+. c #CB9B52",
"@. c #CCA245",
"#. c #C6A14D",
"$. c #CCA34B",
"%. c #CAA548",
"&. c #D4A345",
"*. c #DAA444",
"=. c #D3A44B",
"-. c #D9A64B",
";. c #D4AB4D",
":. c #DBAB4C",
">. c #D8AB45",
",. c #DDB14C",
"<. c #CCA452",
"1. c #CEAA54",
"2. c #CDAB5B",
"3. c #C7A658",
"4. c #D2A552",
"5. c #D4AC53",
"6. c #DBAD53",
"7. c #D4AC5B",
"8. c #DAAD5A",
"9. c #D8A654",
"0. c #CEB058",
"q. c #D4B255",
"w. c #DDB254",
"e. c #D5B25B",
"r. c #DCB35B",
"t. c #DDBA5C",
"y. c #E1AC4D",
"u. c #E0A847",
"i. c #E3B24C",
"p. c #E1AE53",
"a. c #E3AF59",
"s. c #E2B354",
"d. c #E8B355",
"f. c #E4BB56",
"g. c #EABB55",
"h. c #E2B45B",
"j. c #EAB65A",
"k. c #E3BA5C",
"l. c #EABC5C",
"z. c #F0BC59",
"x. c #CBAD65",
"c. c #D3AD62",
"v. c #D8AD65",
"b. c #CEB363",
"n. c #CFB169",
"m. c #D4B465",
"M. c #DBB563",
"N. c #DDBA63",
"B. c #DCBC6A",
"V. c #D6B769",
"C. c #D6BC73",
"Z. c #DABC76",
"A. c #D0B375",
"S. c #E2B562",
"D. c #E4BC64",
"F. c #EABD62",
"G. c #E3BD6B",
"H. c #EABF69",
"J. c #E1B66C",
"K. c #F2BE62",
"L. c #E2BD73",
"P. c #ECC35D",
"I. c #F4C55D",
"U. c #DCC26C",
"Y. c #DCC575",
"T. c #E4C164",
"R. c #ECC264",
"E. c #E4C26B",
"W. c #EBC46C",
"Q. c #ECC96D",
"!. c #EBC969",
"~. c #F1C364",
"^. c #F3C66A",
"/. c #F3CA6C",
"(. c #F8C86A",
"). c #F8D06E",
"_. c #E4C373",
"`. c #EBC674",
"'. c #E4CB73",
"]. c #EDCB74",
"[. c #E4C57B",
"{. c #E5C97C",
"}. c #EBCC7B",
"|. c #EBC67B",
" X c #F3CC73",
".X c #F2CD7B",
"XX c #F7CB74",
"oX c #ECD17B",
"OX c #EAD177",
"+X c #F4D175",
"@X c #FCD274",
"#X c #F4D37C",
"$X c #FCD47C",
"%X c #FED97D",
"&X c #F7D87D",
"*X c #C29E86",
"=X c #DDCD8A",
"-X c #EBCC82",
";X c #E4CB85",
":X c #F2CF82",
">X c #ECD283",
",X c #EAD58C",
"<X c #EAD58B",
"1X c #F4D483",
"2X c #FBD684",
"3X c #F5D984",
"4X c #FDDC85",
"5X c #F2D48B",
"6X c #F5DB8D",
"7X c #FCDD8B",
"8X c #FAD68D",
"9X c #ECD591",
"0X c #EBD897",
"qX c #F4DB94",
"wX c #FADC92",
"eX c #F4DE9B",
"rX c #F3D994",
"tX c #FEE28D",
"yX c #FFE387",
"uX c #FEE394",
"iX c #FFE994",
"pX c #F6E49C",
"aX c #FCE49A",
"sX c #FFEA9C",
"dX c #F7E196",
"fX c #EBE39B",
"gX c #F2DCA0",
"hX c #FBE6A4",
"jX c #FEEBA4",
"kX c #FDECAB",
"lX c #F7E4A7",
"zX c #FFF2AC",
"xX c #FFF4A4",
"cX c #FEEDB3",
"vX c #F4EAB6",
"bX c #FFF4B4",
"nX c #FEF4BB",
"mX c #FFFABC",
"MX c #FFF8B3",
"NX c #EFE4A6",
"BX c #FFFBC4",
"VX c #FEFCCA",
"CX c #FFF6C8",
"ZX c #FFFCD3",
"AX c #FBF9D6",
"SX c #FFFFE5",
/* pixels */
"    . X o ; - ; % # # 9 6 * 4 6 9 - = & j j 4 9 - % & % s & - d B B h s : h k M n j j M l g c (  . .R g g g 6 m m j M j g z l C ",
". . X X ; ; j l j g - Y Z Z [ B B T P z { Y n g l g z x P x z $.c.7.{ U I &.@.8.8.8.D.r.w.w.) -XwX6XW.Z =.O.n =.s.6...h.k.w.r.D.",
"3 o * = Y C } ..} m j [ <. . .$.#.} @.@.r.M.4.$.h.| w.k.s.P { 2XkXjXe.1.q.t.N.E.}.{.6X1XE.B.C.nXVXBX5X .9.h.P s.l.F.w.%X4X#X2X1X",
"5 * $ * Z Z  .#.1.#.( m._._..XM.`.Q.E.t.4X#XM.D.D.$.k.R.F.E } 8XbXbX}.E.T.!.E.oX3X1XiX7X`.B.Z.mXBXnXwX#.| T P E >.:.%.<.7.1.7.2.",
"m * * m N.G.L.L.5X{.) [.rX,X>X_.}.oXE.t.#X`.N.D.W.9.k.R.).k.8.uXzXjX_.W.w.w.!.D.H.8.r.r.5.} A m.x.m.@.l g h & s x C j 6 j B [ [ ",
"d 6 M m M._.|.[.wX-Xn.6XaXdX7X_.#X4X].G.&XE.$.9.w.C R | @.Y B <.n.3.v d f g f m B j m R W z A e.3.e.;.x H x : &.:.w.=.w.s.s.s.j.",
"} 5 m ( E.B.Z.5XwX5Xm.}.wX[.|.M.r.$.} l Z j o 6 g % = ; ; - m  .x.b.A R T W E s.6.s./.R.k.5.e.jXzXzXtX=.y.*.I ~.~.~.h.W.~.k.f.g.",
"$.5 d [ M.1.) 7.<. .c N ) ( ( d 7 j l 6 j 6 = : % D y.g.d.T ;.tXxXiXQ.@XF.l.h.).(.l././.:.} M.wX0X,XoXC E T J :.-.;.$.$.;.@.R ~ ",
"d o * 6 b d m B j Y j =.M.r.} R ..-.P k P J I D D ! z.g.i.U &.W._.M.5.;.E k z E E P &.:.T M #.L.C.C.M.l ..P M 6.k.5.#.e.t.q.q.;.",
"d o * q C ..F.h.6.@.g h.W.7.w.@.:.d.&.J =.E k D I x I G s s l  .1.7.$...O.M &.6.6.6.!./.^.9.B.sXaXsXtXw.@XS.$.%X@X+XE.].&X].].].",
"B 5 * j @.;.h...9.Y j $.M.#.1.$.$.6.E E =.Y E T Q Q s.d.^ G =.D.uXiX].R.f.R.@XR.D.Q.4X&X.XJ.[.zXzXjXtXT. X=... XD.].M.J. XD.M.N.",
"Z 5 o 6 | Y ....=.Y } 7.`.:X`.r.W.!.w.w.R.r.=.:.s.-.j.s.*.Q &.^.#X1XE.t.;.w.k.t.1.e.1X#X7.M._.uXeX{.&Xw.9.Y Y 6.h.F.4.h...[ $.} ",
"Z 3 * b } Z 4.D.7.1.7.1X8X6X|. .D.R.6.w.R.k.{ =.p.o.&.E U U | 9.`.#X5.=.9.D.8.5...<.M.e.$...A 7.7.7.=.J J 9 w = 9 k - k w = 6 j ",
"} j m [ 5.$.5.D.M.7.#..X:X{.B. .r. X6.=.8.5.Y O.:.z o.x D D L O.5.w.M T M J j B q j ..Y J g l ..=.O.Q 0 w 4 w k 0 & > k F k 6 6 ",
"M j b Y } } } #.5.$.Z D..XG.$.} 8.h.E g { } 7 K k = 9 x h h J O.{ { P D k S I D D I E D D h L =.-.o.G h h - $ - = & > > F g & g ",
"b 4 q Y M B X.B B m f ..5.} Y M Y P g 9 M j 6 q k 9 h h F h J O.| P D h 0 J D D x P x h h > J =.| E I s : w $ k D D D / u.*.&.&.",
"2 + + O 8 3 8 3 3 6 4 m m m M w 9 9 w k M g 6 9 k h D 9 D S J *.-...J J J T o.L T o.=.| T S &.R.w.l.i.I L 0 q *.Q H ! ^ *.-.&./ ",
", + , < , < r r q $ 4 M Y { J J J l k J J M l z T h P k h 0 J E ..Y J P D T E T T Y =.| D k Y =.5.%.U D L k w T x s h x P P P P ",
", , , 3 7 7 r V b 4 d } ..} Y P T n 9 q 6 6 * w 9 9 9 9 w = w k C M g x k P x g - & Y E J k Y $.G.N.| P E P l -.Q U U >.;.;.=.s.",
"2 O @ d M b 7 V 7 j d R } Y { M J l 6 q j q = q J J | M 9 w J =.w.R.w.,.&.:.j.d.j.s.).(.K.:.^.4XiXiX@Xl.l.y.E (.g.g.l.).^. XR.@X",
"7 o ; C l 4 4 * q % 6 R R M l J &.&.J | :.=.| :.s.E 6.j.P o.~.^.@X%X~.~.l.K.K.d.l.w.k.s.s.-.W.].}..X~.E I &.J &.E P | ;.%.=.| ;.",
"j * - E E P Y P o.T =.R.R.l.p.p.~.K.Q &.6.&.o.p.:.z s.s.I P :.s.h.h.&.&.| &.@...@.=.N.R.6.9.#X6X5X}.5.P I T P 6.6.| ;.R.W.W.k./.",
"j 4 q E | Y T -.p.O.O.F.W.h.=.T &.^ x D P 9 = k x g z G F s P @.5.r.w.w.w.F.W.D.W.].4X4XW.G.dXzXkXjXQ.f.s.&.:.^./.D.t.2X4X1XE.4X",
"q * g T P B M Y P M Z ..} Y Y M P D h x J g : J T Y &.&.^ ! k.R.E.#XR.l.k.W.XXG.E.`.7X`.E.B.,XNXlXrX].k.&.~ | ^.~.!.E.#X7XoX_.7X",
"7 6 M | &.M Z } T Y @.r.e.w.6.@.;.h.T E E J J &.| ..| &.Q P 5.7.0.e.@.=.;.5.w.;.5.q.e.q.;.$.[.,X0X9XE.t.>.~ &.R.F.k.N.#X7X1X_.4X",
"B 6 C =.=.} Y =.Y Z } r.1.7.;.@.6.5.R =.@.Y M @.;.$.F.s.>.&.G.`.'.#X!.R.R.R. XQ.T.!.].].w.5.aXkXhXaXE.w.,.,.=.XXR.h.D.+X3X1XB.1X",
"B j B =...$.} $.=.$.7.`._.`.E.D.W.+X5./.F.;.| /. Xt.4X%X~.f.#X6XaX7X.X/.%X%X4X+X#X&XtX3Xk.k.sXzXhXwXQ.w.d.:.@.H.h.5.1.W.}.B.0.E.",
"m 6 M ..=.$.5.w.D.r.G.8X5X3X].E.#X#X;.R.h.=.&.R.T.1.W./.l.;.oX<X,X-XG.D.W.Q..X_._.}.6X-XN.N.0XNX0X,XE.w.=.s.7.`.G.B.e.oX7X>X{.1X",
"B * ..^.D.w.r.D.D.e.B.}.[.{.B.M.B.E.5.$.=.{ | k.D.5.E.D.:.%.-X,XeX9X{.`.].oX1X5X;XaXkXgX1X[.nXVXvXvX>XoXB._.[.aXwX6X>XdXzXkXeXkX",
"b 5 B 8.8.#.#.1.<.<.V.>X;X;X[.|.|.1X7.r.D.5.5.+X2X_.tX2X/.E.jXmXbXhX5X8X4XtX6XdX9XkXVXcXwX>XVXZXZXnXrX1X`.G.[.jXuX6X>XaXzXhX0XlX",
"B 8  .J.L.2._.3.V.C.9XbXbXcXpXaXdXsXU.1X`.e.N.4XtXY.sX7X#X'.kXmXnXkXqX5X3X#X}.6X5XhXnXjX.X}.bXnXcXkX#XQ.w.R.G.7X.XW.G.3X7X5X5XwX",
"7.( c.wX8XL.[.-X>X;X9XcXcXkXqXeX6X6XV.B.].e.7.].}.b.8X}.Q.B.hXkXlXeX5X`.].E.B.`._.>XrX-XM.M.eXeX;X_.r.w.@.=.Y ....Z R %.} #. .X.",
"7.N c.}.8X-XB._.1X{.5XzXkXzX6X|.1X$XS.h.F.8.h.k.F.;.h.;.} } 1.2.<.7.4.| ;.| R ;.@.e.#. .Y | V.n.x.M.;.-.O.| } 8.:.&.;.T.T.t.t.P.",
"M.c X..X}.7.`.M.<.2.3.b.x.3. .} } } B P P l k P T z E W M P $.;.r.F.k.w.k.&.E :.s. X@XD.6.S.7X6X7X7X!.l.6.6.8.^.l.s.k.W.+Xq.>.P.",
"( c d } ..Z } [ X... .<.<.<.....%.5.| | &.P M -.l.6.s.d.&.&.XX4X2XW.T.!.k.:.:.6.D.#X4XD.w.k.tXwX6XoXt.w.Y Y =.p.6.&.;.w.T.$...p.",
"V 8 B =.[ =.4.<.8.=.h.`.W.W.h.6.5.D.{ &.&.P P =.w.=.&.-.T M r._.B.1.q.;.w.T | $.7._.c.2.5.e.Y.=X=X;X_.N.5.=.=.h.h.$.B.E._.G.G. X",
"b 7 K ..X.[ ..#...Z <.M.e.r.5.$.%.R Z Y T P l R $. .=.&.P Y M.[.C.2.e.q.R.w.8.S.;X0X0XqXU.'.zXVXAXZXkXwX.X.X`.iXsX>XxXxXxXpXdXkX",
"b 8 q B B B ( Z Z ( ( 2.x.m.1.$.q.T.w.h.w.@.;.W.4XB.@X^.o.8.8XzXMXeX>X3X&X@X^..XeXnXBXbX5X,XvXAXSXAXNXdXE.].M.1X3XY.pXpXzXfX0XhX",
"P 4 M 9.v.M.r.B.G._.[.jXzXjX>X}.3XiXG.G.].5.r..XsXb.}.].=.7.wXMXnXlX0X<XtXOXT.}.eXnXVXlX;X0XZXSXSXAX0X1XE. Xr.4X4X}.aXpXMXkXeXdX",
"J ; [ S.M.1.G.D.W.B.[.zXMXMX>X3X3XiX_.G.`.<.5.`.uXB.#X].r.7.-XjXbX0X,X6XtX#XW.#XqXMXmXkX;XeXZXAXAXcX}.E.;.w.;.R.T.e.E.{.<X{.B.B.",
"j 4 Y =.} }  .Z m }  .m.C.Y.M.G. X$X7.<.5.....S.2XG.W.r.=.M ].6X>XU.U.B.D.k.w.r.B.{.{._.2.G.-X,X;XZ.q.>.G z M &.^ W 5.<.M.<.%.@.",
"B 7 Z 8.4...Z ......#.e.<.1.| } [ } Z j M M n P =.| =.{ l * } 1.5.%.@.%.=.{ =.4.7.B.B.7.} w.`.#X`.E.:.:.T -.&.d.g.:.F.W.%X/.R.g.",
"r 8 7 B B b B B M M Y =.=.6.&.o.p.6.Y | =.P J O.d.-.s.p.Q k d.^.^.k.F.(.).~.^.XXQ.yX4X#XD.XXiXsXiX%Xs.:.P &.E :.o.T 6.8.F.;.E E ",
"8 3 $ K n M [ Y l - 6 T =.-.T E E -.M | O.L J Q j.o.:.d.Q J -.F.s.=.=.:.p.6.=.8.5.e.e.$.Z $.3.2.2. .Z Y M B j B M m <.7.B.7.$.=.",
"m * 4 { K Y M B M m j b b B m j j m 4 4 7 * 4 q M 6 j g 9 6 j B Y Y J Y { M M Y } <.#.) Z #.A.A.Z.C.e.w.$.r.N..X1X>XaXjXzXjXeXuX",
"M * j { Y | =...=...} J.|.`.r.D. XW.......B } 8.H...6.:.:.| 8.@X$Xr.F.$X%X%X%XH.].sX7XiXe.8XmXBXmXsX.X/.w.^.W.7XuX6XjXhXzXhXeXeX",
"Y 6 M S.4.5.h.w.h.w.$.`.1X#XD.!. X@X=.O.&.@.&.k.XX=.~.y.U -.=.#X7X|.OXOX&X].r.W.1X7XwX2Xe.1XcXcXzX3Xk.~.s.~.h.$X#XB.oX>XaX6X{.|.",
"[ 5 M 8.r.8.8.w.6.@.( ].}.].k.w.R.R.=.J E &.E =.h.=.-.-.U D =.`.1X|.'.OX&XT.q.W.E.iX_.`.r..XhXlXdX'.,.i.>.s.9.H.k.%.U.'.6X}.E.E.",
"7 o * B ..} C Y M j d $.7.r.%.@.;.w.Y M E Y P | ;.&.&.o.I x J s.F.h.5.f.k.6.6.@.%.t.e.5.| w.[.[.{.e.&.^ I &.&.s.w.5.B.B.oXU.t.t.",
"B 4 6 ......| | $.Z d } =.=.R R %.w.M q k k k P | J T k J J J &.6.=.&.6.-.T o.&.;.T.e.5.| w.].{.}.r.&.>.U >.E w.:.6.E._.tX'.!.P.",
"{ m j a.6.=.{ 9.h.=.m 6.R.R.6.h.F.(.o.T O.T P =.h.&.d.-.-.o.&.(.@XW.D./.^.h.s.:./.%X$X/.w.+XiXsXaX1XF.g.^ P.f.R.~.~.4X4XiX&XR.f.",
"b * q { =.Y Y M { { M 4.h.w.=.;.6.l.E J J g z =.:.Y -.&.o.g z k.G.5.%.;.6.&.E P @.w.q.5.R w.B.b.B.1.| ~ x E W ~ T W R $.q.5.@.U ",
"b 4 o n [ | m [ M m 6 B 4.$.| Z | 6.P k k q q M O.l z P T 9 k $.7.<.=.=.-.-.-.o.9.H.w.w.o.h.]._.E.w.-.-.I &.&.s.&.,.w.k.E.k.w.&.",
"7 O $ 7 B Y B m B b 3 [ 4.} Y } { 6.T k J k J =.6.Y | -.-.E | w.S.r.w.;.>.:.-.| 9.S.r...z =.5.B.e.;.o.I D T E &.P z &.@.%.} E P ",
"7 3 7 ..8.#.} } 8.<.c 8.D.5.[ $.{ =.M w K k q | 6.B =.6.&.J M h.G.N.w.,.,.>.6.=.M. X5...Y 6.H.`. Xh.E D D I E &.&.W ;.;.N.D.k.6.",
"V 3 < 5.8.5.7.5.<.4.B <.W.$.} $...6.J - { K M 6.R.M 6.j.p.| Y W..X`.R.P.f.=.=.$.M.#XW.5.| w.B..X2X X=.I T -.-.&.P -.w.D.%X XD.k.",
"( 3 c 8.S.M.M.5.7.5.N 7. Xw.Z =.8.=.B q n P T F.F.| 6.h.s.| | @X1X_.]./.l.w.w.6.H.&X.XN.$.W.3XuX7X#XF.;.o.j.s.p.:.k.D..X4X+X/.R.",
"N 8 b 8.7.<.8.( X.8.[ ..W.D.B | 6.w.Y { O.P T H.@X..H.^.h.=.:.%XaX:XD.).w.F.s.6.H.$X XG.$.W.3XoX3X#Xw.s.o.*.*.o.p.h.8.w.r.q.w.@.",
"V 8 O K 4.B B [ 9.[ e b ..5.[ B ..Y | T T E l 6./.E w.&.E =.@./.#XG.6.s.p.| P T p.6.4...M ..r.e.r.;.Y T U ! x J T Y | Z } %.@.R ",
"+ + X 3 4 o O B n 2 O 3 [ Z j 6 B j g 6 q - o l E M Y M J l k ;.5.@.E E E z D k T -.O.P l =.w.w.w.%.&.Q D *.I I :.6.R./.Q.Q.R./.",
"8 O $ e n B Y ..[ q 4 b ..=.O.{ ..-.J - J k k T h.M o.&.T P z s.F.k.s.d.d.-.^ U ^ I.I.p.P s.~./.R.R.6.&.U u.Q U ,.,.f./.).R.R.w.",
"8 3 $ j B Y [ ..K K 4 j =.9.=.| 6.-.T k T n k =.p.J o.y.Q T k E :.| I Q y.U D G ^ P.6.8.V J.L.L.J.v.X.4.K 9.X.b <.7.M.N.T.R.w.R.",
"O < O 6 6 7 j 5 7 n 4 6 B Y M M l M k w 0 > 9 J J 9 J D > h & 0 T k F F F F s h G =.3.i t ] ] ' ' ' _ ' _ ' p p ' p ] _ n.7.=.R.",
"b 5 o q j 7 b m M j 6 * d m M j j n q w - = = 9 l = & : & : 9 h k 9 : 0 F h : x T =.) t t *Xa y y u t t i t t t u y y i ` M.8.:.",
" .b 7 Y } Z Y Y B Z 7 6 Y } R B Z Y n q w 9 9 n { M l k k w 9 | ..@.P U o.Q D J @.k.e.) 1 A.;XZ.n.x.3.4...8.[ <.M.c.c.2.B.W.k.s.",
"8 < o 6 j M B m b M 7 q | ..} M } ..K k 9 k k Y ..Z E &.E P l =.r.r.;.s.s.=.T T ;.Q.E.N.+.L.}.oX-X_.h.d.>.g.~ >.f.;.=.D.].T.k.t.",
"v d 4 M Y ......$.@.B M 5.8.w.9.w.h.=.P L T Y 4.k...s.s.:.:.T f./.E.t.@X~.s.:.&.t.tX1X#XM.:X7XuXuX1XR.j.>.g.&.w.R.t.5.XX4X!.!.T."
};
