/* XPM */
static char *afk9h_6f39l[] = {
/* columns rows colors chars-per-pixel */
"64 52 210 2 ",
"   c #9C7530",
".  c #B38F2E",
"X  c #BD9E3C",
"o  c #B69937",
"O  c #BDA03C",
"+  c #C99F2F",
"@  c #C1962D",
"#  c #C59E3A",
"$  c #C49A36",
"%  c #CDA52F",
"&  c #CBA533",
"*  c #C3A43A",
"=  c #CEA239",
"-  c #CFAB3C",
";  c #CAA535",
":  c #D2A933",
">  c #D2A63D",
",  c #D0A839",
"<  c #DAB33C",
"1  c #E0B83F",
"2  c #A8895F",
"3  c #BDA648",
"4  c #9F806E",
"5  c #A78F61",
"6  c #A68B68",
"7  c #AA936D",
"8  c #A4906D",
"9  c #B3986B",
"0  c #A68F70",
"q  c #A5877D",
"w  c #AA9578",
"e  c #C19D44",
"r  c #C39D54",
"t  c #C4A542",
"y  c #CBA544",
"u  c #CCAB44",
"i  c #CBA549",
"p  c #CDAB4B",
"a  c #C5A84F",
"s  c #D3AB44",
"d  c #D3AD4B",
"f  c #D9AE49",
"g  c #D5B345",
"h  c #DCB542",
"j  c #D5B24E",
"k  c #DAB44C",
"l  c #DDBA4D",
"z  c #D8BA4A",
"x  c #C5A751",
"c  c #CCA651",
"v  c #C4AA51",
"b  c #CBAB54",
"n  c #CAAE5A",
"m  c #D3AD53",
"M  c #D4AE5A",
"N  c #D8AF53",
"B  c #CEB054",
"V  c #CFB55B",
"C  c #D4B354",
"Z  c #DBB454",
"A  c #DDBB55",
"S  c #D2B55C",
"D  c #DBB55A",
"F  c #D4B95D",
"G  c #DDBB5C",
"H  c #D5B956",
"J  c #E3BB46",
"K  c #E1BC4C",
"L  c #E3BE53",
"P  c #E2BC5B",
"I  c #E9BF5D",
"U  c #E0B652",
"Y  c #CAB36F",
"T  c #D5B461",
"R  c #DBB764",
"E  c #D6BA63",
"W  c #DDBC63",
"Q  c #D7B76A",
"!  c #D7B868",
"~  c #DCBE6B",
"^  c #CDB37A",
"/  c #DBBC74",
"(  c #D7BD78",
")  c #C3A865",
"_  c #E2BE63",
"`  c #E3BE6A",
"'  c #DEC25E",
"]  c #E5C14C",
"[  c #E3C155",
"{  c #ECC957",
"}  c #E3C25C",
"|  c #E9C45C",
" . c #E5C85D",
".. c #EBCA5D",
"X. c #F1CD5C",
"o. c #F6D35F",
"O. c #DDC262",
"+. c #DEC46B",
"@. c #DEC372",
"#. c #DEC876",
"$. c #E4C364",
"%. c #EAC464",
"&. c #E6C965",
"*. c #ECCB63",
"=. c #E3C46B",
"-. c #E9C56B",
";. c #E5CA6C",
":. c #EBCB6C",
">. c #F1CC64",
",. c #F1CC6C",
"<. c #EED266",
"1. c #EDD26D",
"2. c #E5D16E",
"3. c #F0D165",
"4. c #F3D36D",
"5. c #F3D96E",
"6. c #F9D86E",
"7. c #E3C573",
"8. c #E9C673",
"9. c #E5CB73",
"0. c #EBCC73",
"q. c #E5CB7B",
"w. c #ECCE7B",
"e. c #EBC77B",
"r. c #F2CE73",
"t. c #F1CF7A",
"y. c #EDD374",
"u. c #EDD37B",
"i. c #EDD97B",
"p. c #EBD779",
"a. c #F2D474",
"s. c #F9D272",
"d. c #F4D975",
"f. c #F9D974",
"g. c #F1D17D",
"h. c #F2D57B",
"j. c #F8D67F",
"k. c #F4DA7C",
"l. c #FADC7C",
"z. c #FFE075",
"x. c #FBE07E",
"c. c #F7E17C",
"v. c #C4AF80",
"b. c #CCB78C",
"n. c #D2BF87",
"m. c #D7BC9E",
"M. c #D7C295",
"N. c #D8C485",
"B. c #E2C780",
"V. c #E5CD81",
"C. c #EACE82",
"Z. c #E7CE8C",
"A. c #E6D282",
"S. c #EDD383",
"D. c #EEDB83",
"F. c #ECD58A",
"G. c #EDDA8C",
"H. c #F2D583",
"J. c #F4DB83",
"K. c #F9DD84",
"L. c #F1D68A",
"P. c #F4DC8B",
"I. c #FADE8B",
"U. c #FBD781",
"Y. c #EDD691",
"T. c #EFDB94",
"R. c #EDD99E",
"E. c #EED59C",
"W. c #F2D692",
"Q. c #F3DD92",
"!. c #F9DE92",
"~. c #F2DD9C",
"^. c #FADF9C",
"/. c #E9C797",
"(. c #EFE18C",
"). c #F5E185",
"_. c #FBE284",
"`. c #FFE984",
"'. c #F5E38B",
"]. c #FBE38B",
"[. c #FDE98D",
"{. c #EFE391",
"}. c #F5E294",
"|. c #FBE493",
" X c #F7E993",
".X c #FDEA94",
"XX c #F6E49B",
"oX c #FBE59B",
"OX c #F6EA98",
"+X c #FDEB9B",
"@X c #FFF096",
"#X c #FEF19C",
"$X c #EDD4A4",
"%X c #EFD8A6",
"&X c #F2DEA2",
"*X c #F3DFAD",
"=X c #F8DDB6",
"-X c #F5E3A2",
";X c #FBE5A2",
":X c #F7E9A2",
">X c #FDECA3",
",X c #FCE5AB",
"<X c #FDEAA9",
"1X c #F5E2AA",
"2X c #FFF2A2",
"3X c #FFF1AD",
"4X c #F6E2BB",
"5X c #F7E2B5",
"6X c #FCDDC9",
"7X c #FFE7C3",
/* pixels */
". y j Z d C Z C P Z A A D D Z P P D ~ ~ S C =.M m N Z G O.' A A $._ _ Z Z G C p s U d U I P =.u.u.+.O.0.C.~ } ..[ u i d k K ] & ",
"o p Z d y t d C P P A Z C D P P N Z ~ ~ E S T c c m Z m G :.P j _ W W m Z P R C Z d Z P Z A O.;.@.#.;.7.q.9.A [ Z d Z Z L { o.< ",
"t P %._ $.D } $.:.:.,.a.0.=.:.%.I ` g.w.9.+.~ R D M -.W F ;.$.G -.0.0.D W :.0.=.P d P %.U P =.u.S.J.u.w.S.H.$... .P Z P L L X.- ",
"t *.-._ -.$.:.a.f.:.:.h.H.0.a.,.s.r.H.L.H.I.H.7.8.R g.g.u.K.h.:.h.I.I.0.y.h.I.g.:.%.-.s.,.,.l.]..X+X]..X+XI.a.5.z.*.P %.*...X.l ",
"X :.-._ W =.0.d.a.1.l.h.0.0.a.d.%.0.P.F.S.S.8.R T R 8.=.w.S.=.$.=.8.g.8.y.;.u.9.G G P $.| P ;.w.u.A.q.S.S.9.$.} *.*.P %.[ | X.K ",
"X y.0.=.=.;.9.k.d.a._.h.u.U.y.:.$.r.J.F.|.|.9.=.8.8.8.~ S.P.0.$.y.H.H.y.h.u.P.q.W G :.-.| G 0.u.q.#.q.7.7.0.$.C z A D _ Z A k g ",
"B h.0.8.0.u.u.]._.k._._.K._.k.j.,.K.].P.|.P.9.=.8.w.H.w.P.I.j.h.K.].J.H.J.'.oXA.;.-.h.r.,.-.]..X}.Q.|.P.H.].y.G ..*.P :.:.L [ l ",
"F h.y.0.h.u.u..X_.k._.K._._.K.j.j.K.P.}.+X|.h.y.W w.I.w.|.|.u.a.J.J.H.I.].'.|.H.a.0.=.-.r.:..X|.Q.|.!.|.H.U.h.:.3.>._ -.:.A | [ ",
"S 9.9.y.u.u.P..X_._._._.K.K.].K.l._.|.|.+X!.y.h.9.I.I.P.oX>XK.K.K.].].K.].oX+XJ.:.s.r.,.%.s.].P.P.}.!.H.I.I.K.;...*._ r._.:.%.[ ",
"3 +.7.7.+.+.u.P.k.d.a.:.=.=.r.r.y.k.D.Q.Q.S.7.=.~ w.7.H.|.P.y.y.0.y.y.u.u.H.|.h.:.,.%.-.>.4.K.q.'.|.P.S.J.u.0.:.6.*.G 0.l.<.4.| ",
"o E 7.q.9.9.H.H.1.1.a.0.g.8.0.:.y.K.P.oX!.S.+.! n J.9.q.}.Q.+.=.9.H.u.H.H.L.+XH.G %.r.,.%.%.I.P.P.S.C.S.u.9.0.0.>.*._ 0.j.1.4.[ ",
"t O.9.S.g.H.I.J.a.d.l.U.].H.l.h.h.].Q.XX|.P.H.w.8.I.u.H.+X|.9.h.U.I.P.I.P.|.+XH.C A r.r.,.r.].+X+X'.P..XI.H.H.y.} *.$.8.h.;.&.A ",
"o C =.8.7.=.S.u.:.4.d.y.H.0.h.h.0.P.Y.T.S.u.e.7.8.H.+.H.+XP.=.h.U.K.U.U.H.I.].0.G Z %.-.,.:.P.}.|.|.L.I.K.K.H.k.f.6.;.h.].y.1...",
"O F 8.w.9.0.I.J.1.4.d.u.U.y.h.h.h..X~.XXH.u.7./ ~ y.;.p.|.].=.a.h.H.h.K.J.P.I.;.| | _ -.%.$.'.}.'.'.g.g.y.H.].j.l.5.r.K._.y.1.[ ",
"p G ` 8.=.8.I.I.l.5.a.h.K.K.K.j.j.].~.XXK.h.7.e.g.h.y.k.].].y.l.h.P.U.].I..X|.=.P P ` ,.,.a.+XOX'.].H.H.h.k.K.y.4.*.a.U.K.p.*.z ",
"C D _ 0.0.0.|.|.l.d.d._.]._._.K._..X}.oX'.y.Q 7.=.h.;.k.].u.&.:.y.J.0.u.u.].|.R A Z ` ` =.h.P.Q.P.I.w.w.K._._.k.5.:.0.h.].k.*.[ ",
"t A _ :.r.0..X].l.x._.].K._.].].|.+XoX+X|.H.S.7.9.h.y.[.].J.:.a.k.].h.K.P..X|.8.Z P 0.t.9.L.L.C.g.h.9.w.k._..Xk.l.&.h.K._.y.&. .",
"X C Z P $.=.l.0.:.a.a.h.y.y.j.h.I.|.Q.+X|.A.@.q.h.h.;._.].U.y.d.k.K.h._.P.|.I.0.y d t.w.S.!.I.H.w.g.w.u.u.i.).0.y.1.9.k.p.O.} z ",
"t } | *.%.;.h.:.:.:.;.y.y.y.k.0.H.P.V.A.S.q.! =.;.;.=.j.K.0.$.:.y.y.:.y.u.'.H.=._ D r.7.L.|.Q.L.K.K.J.H.P.J..Xu._.d.9.J.).a.4.[ ",
"C :.| *.:.h.l.d.j.j.d._.k._._.H.P.|.P.|.+Xw.~ w.h.h.y._.].K.a.a.j.K.l._.].+XI.` D :.K.I.|.+X+XoX.X.X|.P.]..X#X_._.a.u.U._.y.&.l ",
"t G A G $.;.j.k.a.d.k.K.p.k.K.k.P.oXT.oX+Xq.@.~ E 0.k.].K.u.;.y.u.U.a.K.'.].H._ D -.g.q.F.+X XP.|.|.P.P.J.'._.y.&.} a.l.j.:.%.P ",
"t $.&.} O.;._.k.k.x.k._.i.)._.K.oX>XQ.}.+Xq.8.T 9.h.k.[.].].k.k.K.].j._.|.oXI.` M =.I.S.}.2XOX+X+X+XOX+X'.[._.k.5.*.:.h.0.$.%.l ",
"C $.$.' =.y.].K._._.k.[.).[.[.K.|.+X}.+X+X7.` ` 8.h.k.[.]._.d.k.J.[.K.].|.oXH.M D 0.].S.}.+X X2X#X+X+X+X X X[._._.d.;.h.h.1.5.[ ",
"C O.$.:.h._..X_.[.[.).[.).[.[.[.oX+X}.+X+X9.=.r.h.h.K.[.[.j.k.).[.[.).[.'.oXI.=._ j.I.q.G.+XOXOXOX{.}.}.(.).J.y.<.} ;.y.0.H A u ",
"v W :.:.u.]..X).]._.[.[.).[.[.).]..X}..X|.7.W =.=.0.K._.K.y.k.k.D.'.J.).'.|.h.0.m h.I.q.F.+X X{.}.}.F.P.P.'.H.h.d.%.$.8.0.G A g ",
"a +.d.a.9.u.J.J.).i.J.).).'.'.J.|.'.G. X|.9.=.R W ;.y.K.k.k.k.).'.'.).'..XoXg.$.8.H.I.I.}.OXOX+X+XoX}.+X+XoX].K.l.4.=.8.j.;.P * ",
"F 9.h.;.0.P.'.'.[.).[.[..X.X.X|.}. XOX2X>X7.7.a.0.u.H._.j.k._.[.[.'.).[.+X+Xh.$.=.I.P.S.oX>XOX2X<X-X-X<X>X+X|.'.l.d.U.J..Xu.;.t ",
"V 9.a.;.9.].].'.[._.].]..X@X.X.X|.OX}.+X>Xq.=.=.h.K.].].j.k.)._.[.'.'.[..X.Xl.;.7.I.!.P.oX+X+X>X>XXX>X>X+X2X+X.X[.j.K.]..Xh.:.A ",
"V 0.j.y.u..X].[.[.[.[.'..X.X.X.X+X}. X2X|.~ $.,.a.j._._.d.d.l.x.].].[.[. XoXK.r.~ L.P.P.oX|.oX+XOX X+XOX}..X.X_.x.1.K.K.h.O.u l ",
"F =.=.;.u..X'.)._.c.).D.'.'.'.P.P.P.}.}.P.~ -.:.$.;.j.j.:.*.a.a.k.u.D.J.'.'.a.-.E L.L.q.F.F.A.(.}. X|.}.G.G.A.7.$.;.=.0.b X u ; ",
"S +.$.;.u.].].'._.).).D.'.'.).J.P.}.{.}.}.@.=.$.;.9.U.K.4.4.l.h.H.H.J.).}.|.a.-.8.L.P.F.P.!.}.OX}.+XXXXX}.}.F.q.;.O.H.S.T =.Z # ",
"V 9.a.d.K.oX.X[.[.[..X'..X.X.X'.|.+X2X2X+Xu.r.$.k.u._.[.a.d._.h._.].].[.|..X0.-.9.P.I.S.W.oX}. XOX<XXX>XXXoXP.S.;.9.L.S.7.8.Z # ",
"v +.:.;.u.|.).J.j.j.K.p.J.).K.H.Q.XX}.}.P.R $.} 0.y.K._.y.y.d.y.k.D.u.S.].].a.$.7.P.L.q.L.L.S.D.D.}.G.T.G.G.u.9.O.O.V.C.=.P u ; ",
"n 9.:.&.J..XK._.K.K.K.H.].[.].J.oX;XoX}.P.E $.P ;.9.h.k.x.k._.h.K.J.].P.].K.h.a.k.].!.L.^.!.J.J.'.}.oXoX|.|.].d.d.j.+XQ.0.%.K , ",
"E 9.y.0.j.]._._.].K.j.k.].].U.u.|.XX+XoXI.9.$.C ;.0.u.K.k.d.k.y.i.y.J.J..XK.;.W +.S.P.L.F.F.S.D.S.G.P.S.S.L.y.;.$.G q.q.G y , % ",
"x +.$.W 0.y.y.k.U.U.0.9.u.H.h.7.q.F.P.].S.W $.G 8.u.u.H.y.k.k.k.u.p.J.u.].U.;.W +.u.L.V.F.Q.F.q.V.L.W.B.C.L.8.G j $.S.w.G > & < ",
"n 7.=.=.u.j.k._.].I.k.H.'.].].H.+X+X'.+X.X+.r.$.H.K.'.J.J.].[._..X.X+X|.+X].l.a.y..X+XW.^.<X!.S.L.W.oXW.W.|.K.:.%.$.I.I.%.| J % ",
"~ 9.=.0.h._.`.`.].].].]..X].].J.+X+X|..XJ.=.$.$.w.J.P.H.p.K.K.k.K.J.P.Q.oXH.a.:.9.].XXY.~.XXS.H.S.F.F.C.S.H.0.&.} $.u.w.P K : : ",
"x E C W ;.:. .<.:.y.I.y.k.k.j.=.P.P.H.y.=.G d d _ 0.y.a.O.1.:.:.y.u.L.}..XJ.a.d.u.P.XX~.~.XXu.y.u.P.F.F.P.u.;.:...&.u.y. .] 1 < ",
"b F G a.a.y.*.<.a.0.U.u._.y.y.9.H.P.H.h.h.m %.I a.h.l.l.a.l.l.a.h.k.|. X+X].a.1.H.P.XXXXXX>XI.H.P.|.P.|.P.J.k.f.3.<.K._.3.] J < ",
"b W =.u.K.K.1.5.l.h.J.P.J.).J.S.|.+XoX].L.W G %.r.g.K._.k.x.y.y.a.k.J.}.+XJ.y.h.P.XX<X~.<X<XoX}.|.}.Q.Q.P.).y.d.1.:.J.K.,.K J h ",
"a E W 0.k.k.1.5.a.y.H.H.D.J.u.w.!.XXOX.XS.7._ _ w.H.H.i.p.c.p.y.k.k.J.'. X).y.h.F.<X<X-X<X<XXX}.}.}.XXXX|.H.y.y.$.0.L.H.| s s h ",
"e D -.j.j.k.5.f.s.d.h.k.].[.y.u.Q.XX>X2XL.7.-.0.H.K.P.J.k._.k._.j._.[..X'.p.y.K.!.-X,X&X-X3XQ.P.oXXX^.oX!.P.u.y.-.=.q.8.d = > s ",
"y $.r.j.h.j.d.f.d.a.a.i.[.].0.w.Y.XX>XoXS.~ W ;.w.u.S.i.y.k.y.9.u.u.u.'.).p.:.h.V.~.&XR.XXXXG.A.F.F.Z.W.F.S.9.W =.-.S.w.y @ = > ",
"p $.;.h.H._.l.d.l.d.k.J..X|.w.S.;X3X:X>XP.C.8.0.H.L.].'.J.].).u.P.|.Q.}.[.].a.;.F.<X,XE.-X>X}.G.}.~.Y.Y.S.H.y.&.-.;.w.=.s % = = ",
"i H =.H.P.].K.a.f.d.k.)..X'.u.L.;X<X:X>XF.q.0.;.g.u.P.P.K.].].H.J.S.L.|.].k.1.h.Q.~.;X~.~.<X~.~.~.T.&X~.P.S.9.O.$.;.S.7.s % , = ",
"i A &.j.S.P.j.a.f.d.k.)..X'.H.P.;X;X+X+XA.E _ $.U.g.H.J.K.K.U.K.K.].].I.].K.h.h.P.Q.Q.P.G.~.$X*X1XR.&X&XT.F.q.w.9.7.V.@.p - u $ ",
"p } 1.j.L.|.].k.a.d.p.p.'.'.9.w.Q.XXG.}.7.R Z A -.0.0.8.a.h.y.h.k.u.H.]..Xu.0.y.u.P.H.7.G.~.7 0 b.v.b.M.n.N.Y ( ( ( ^ ) e u d d ",
"B =.9.K.H.K.'.'.J.i.'.'..X'.u.H.}.XX~.Q.q.=.P G t.g.h.h.:.a.l.K.].P.J.oX|.|.H.u.J.].].S.Q.,X4 q m.8 w w 8 7 5 9 2 6 6 2   e p i ",
"W u.H.].I.].+X X.X.X#X+X#X'.D.|.|.>X>X+XH.8.$.G h.g.r.a.:.d.d.U.I.P.'..X.XI.U.K.'.'..XP.P.-Xm.6X7X4X4X=X4X5X%X$X%X=X=X/.r i i * ",
"E 0.H._.J.].#X+X.X.X#X+X#X'.H..X}.>X+X+X8.=.G P a.0.;.a.:.d.a.h.J.P.'..XK.h.h.K.P.S.H.u.J.|.W.,X&X<X1X&X;X}.P.H.S.}.!.w.Z k [ g ",
"F 7.u.k.H.K.#X#X'.'. X}..X'.H.P.P.XX}.Q.! R C G -.=.G %.$.:.:.;.w.u.D.).y.0.0.h.S.S.q.7.0.k.S.S.G.G.~.G.D.i.p.y.2.k.k.' z h { [ "
};
