/* XPM */
static char *af6mv_t58xe[] = {
/* columns rows colors chars-per-pixel */
"64 36 172 2 ",
"   c #6E3A0A",
".  c #7B4714",
"X  c #7F4A18",
"o  c #854C17",
"O  c #834F1F",
"+  c #8D561C",
"@  c #8F581F",
"#  c #845020",
"$  c #8B5524",
"%  c #8D5929",
"&  c #935B24",
"*  c #9A5C23",
"=  c #945D2B",
"-  c #9A5F2A",
";  c #945D3B",
":  c #A05F27",
">  c #9C6024",
",  c #96612C",
"<  c #9C642D",
"1  c #9C692F",
"2  c #976333",
"3  c #9B6533",
"4  c #9D6935",
"5  c #9E6B3A",
"6  c #A2642B",
"7  c #A9672D",
"8  c #A6682F",
"9  c #AB6A2F",
"0  c #A46730",
"q  c #A36B35",
"w  c #AB6C34",
"e  c #A4663D",
"r  c #A36D3B",
"t  c #AA6F39",
"y  c #A37137",
"u  c #AC7037",
"i  c #A6713D",
"p  c #AB733C",
"a  c #B27036",
"s  c #B3753D",
"d  c #B9773D",
"f  c #B4783F",
"g  c #965442",
"h  c #9A5545",
"j  c #955845",
"k  c #995F4B",
"l  c #8F5851",
"z  c #8D5558",
"x  c #A05C4C",
"c  c #9B604E",
"v  c #9A6052",
"b  c #9A625A",
"n  c #A46D42",
"m  c #AB6A40",
"M  c #A0674A",
"N  c #A66F49",
"B  c #A67243",
"V  c #AB7543",
"C  c #AD7945",
"Z  c #AB764B",
"A  c #AD7A4A",
"S  c #B27741",
"D  c #B37B44",
"F  c #BA7D45",
"G  c #B07249",
"H  c #B27D4B",
"J  c #BA7F49",
"K  c #A56552",
"L  c #AD6C5A",
"P  c #B26F5E",
"I  c #A97752",
"U  c #AD7C52",
"Y  c #AC725E",
"T  c #B27E52",
"R  c #B87950",
"E  c #B47D5A",
"W  c #9C6666",
"Q  c #AD726C",
"!  c #B07360",
"~  c #BA7565",
"^  c #B37866",
"/  c #B07668",
"(  c #B48047",
")  c #BB8046",
"_  c #B5814D",
"`  c #BB834B",
"'  c #B98148",
"]  c #BF8148",
"[  c #BE834B",
"{  c #BA834D",
"}  c #BB814F",
"|  c #BF834D",
" . c #BA864D",
".. c #BB844E",
"X. c #BD844D",
"o. c #BC854F",
"O. c #BE854E",
"+. c #BF874F",
"@. c #BA834D",
"#. c #B08050",
"$. c #B18153",
"%. c #B38053",
"&. c #B78153",
"*. c #B68252",
"=. c #B58253",
"-. c #BB8350",
";. c #BB8353",
":. c #B98452",
">. c #BE8452",
",. c #BE8653",
"<. c #B98354",
"1. c #B88455",
"2. c #BB8556",
"3. c #BB8757",
"4. c #BA8553",
"5. c #BD8856",
"6. c #BD8955",
"7. c #B58359",
"8. c #BB8758",
"9. c #BA865A",
"0. c #BB8958",
"q. c #BA8A5A",
"w. c #BE8859",
"e. c #BC895A",
"r. c #BD895A",
"t. c #BF8B5C",
"y. c #BE8E5D",
"u. c #BD8A5B",
"i. c #BE8C61",
"p. c #C0814B",
"a. c #C1834A",
"s. c #C2874D",
"d. c #C2854F",
"f. c #C1844E",
"g. c #C28A4F",
"h. c #C08652",
"j. c #C18851",
"k. c #C28A51",
"l. c #C38A53",
"z. c #C08855",
"x. c #C18956",
"c. c #C08857",
"v. c #C38957",
"b. c #C48B54",
"n. c #C18A54",
"m. c #C88D55",
"M. c #C98C56",
"N. c #C38B5A",
"B. c #C08C5D",
"V. c #C18D5E",
"C. c #C38F5F",
"Z. c #C28D5C",
"A. c #CC8F58",
"S. c #D08F57",
"D. c #C5915D",
"F. c #C8905D",
"G. c #C9925C",
"H. c #C28E61",
"J. c #C39160",
"K. c #C49263",
"L. c #C99462",
"P. c #C99565",
"I. c #CC9964",
"U. c #C59469",
"Y. c #CA9669",
"T. c #CD9A6B",
"R. c #D19A64",
"E. c #D19D6B",
"W. c #CF9E74",
"Q. c #D09D70",
"!. c #D4A172",
"~. c #D7A57A",
/* pixels */
"  . X = $ & = & - q 0 < S V J x.x.;.H T 1.#.A Z $.Z H _ J i S O.V & S - p D D _ p 1 y u J >.L.5.S 3 i V ' q 6 [ w a 9 9 a * 6 > ",
"O % = = = < r < o = q < r V = q x.H B -.8.B 3 B 5 $.C.H i p 0 D O.V p 6 q @ & 4 p q D i >.S H 4.t - q S u w 8 w a d 7 d 8 0 < + ",
"$ 2 3 3 i < = -.< , = < r V N.H >.F.<.T t.J.y.0.B H C.B i l.| l...H H p f q H ..V 1 f u s p S V S w 6 w [ M.u s d a w 9 * 8 0 & ",
"O 2 i C 4 4 3 = & = = q q B N.x.x.J -.H H C._ B w.w.2.V < ' F b.@.D ' u s.g.O.p y i s p S F S H S s F s s w w F 6 s s 6 0 * < + ",
"$ % 5 i r H C C < 3 r B r A w.H H x.H C &.,._ 0.w.C.2.V D p S O._ H l.w ) ' q 0 p ' D S s.S r @.a.f s F J w [ a.S.F f 6 0 < & . ",
"# % 5 r r A @.q 3 q r _ V B K.H B ,.-.<.&.w.K.&.t.C.A C p p s V D D ' p S ' D D p O.' w s.b.z.S f f u ) A.F F F s w w w > & y = ",
"= % r B i V B 3 A B r &.T &.w.K.F.-.T <.&.C.1.1.w.2.&.A i p S D C H >.' p p D V < p [ s D q r i 6 w F M.M.' u s f F w 0 w < < 0 ",
"= % = B r 4 r 4.B r H 2.&.H &.C.C.T.8.t.&.T w.H Z H &.2.H ' q J D.t.b.` ` p B B V V J | M.x.@.S F S S [ s.D s S ) F : w 0 q < & ",
"3 i 3 B B A H r r B H H Z w.A H w.H 8.9.1.y.1.1.9.e.1.&.C 5.B V A 0.D...V D i i B B >.>.S @.V = t S S H | H J f.F F 9 6 w w S < ",
"= 5 5 A B V H 3 A r r A H T H.V Z T 9.e.U t.%.Z U %.t.1.V w.4.Y.1.0.2._ D.H T.Z.4.4.N.H O.>.5.5.q q D J l.N.H S J F 7 * u a u f ",
"5 4 B H C C B 4 3 B n T &.Z Z Z B B %.i.7.Z Z Z 7.Z K.J.Z _ 0.J.U.i.2._ 5.C _ C.V V L._ 6.H C V S t S >.S 0 q u u w w 6 > 6 0 S ",
"4 4 B C H H B V A B A H &.1.&.U.y.Z %.i.%.T.K.i.K.W.W.0.Z _ w.y.e.U Y.2.E.4.4.3.Z.4.l.D _ H H C r ' S @.4.C @.S S t w w a u w > ",
"3 B C H B r B B H Z Z 2.1.t.e.t.y.$.i.i.Z t.T.e.7.U.e.2.0.L.&.B i.T.w.&.I.5.4.H H p _ D G.D.A H F.O.J l.5._ O.>.S F t S d.s 0 q ",
"4 B H 5.B r C B B 2.Z 8.T 8.B B Z T U i.T 8.t.&.U 7.H.&.=.=.1.!.~.T.K._ @.S A _ 2.H J H b...4._ l.s.| >.>.H p @.G.F s F F w < D ",
"r 4 C x.B i r r r r B Z &.i.%.Z &.&.H.7.T t.Z &.&.T Y.w.5.C.C.K.0.w.5.N.N._ 5.>.>.D l.' ` n.D.6.O.F H ....>.x.O.h.q p D t t q p ",
"i i r _ V H &.-.K.w.Z &.&.H.H.K.J.t.8.K.t.C.C.Z Z Y.T.K._ _ B y.P.0.N.x.' N.Z.B _ >.O.D ` G.L.H | F @.h.D.R.F.J S S F J @.' q < ",
"3 5 5 2.B V A A B V &.t.2.t.H &.&.T B.H.2.P.T.1.U Y.!.Z.x.4.&.A 0.w.4.b.D.4.w.D.D.J ' D H ..2.2.J J J b.D.C 4.J >.@.V O.q < r < ",
"B A B 5.H B A H H 2.2.y.2.w.&.w.i.8.Y.L.8.H.t.0.t.2.K.4.>.I.&.H Z._ _ _ I.C 5 D.C.i b.H D _ A ,.@.J h.x.H H @.H S >.S J t p r i ",
"5.C = 5.H H A H C.A w.P.w.w.B H 1.Z t.Y.t.C.1.1.%.1.K.4.H D.K.H C.C _ C 4.4.A C.C.4.x.D _ B &._ H S b.' C H @.4.V 6.D D S S B q ",
"r &.A Z._ B V 2.2.V H C.w.K.w.w.J.U.K.T.&.H.~.1.U Q.!.4._ _ t._ A A 3.C D.D.C.P.2.>.b.l.I._ H 5.l.O.b._ _ 4.5.L.J l.i O.q i r q ",
"4 r q 4._ B A H H &.w.y.C.K.y.T.y.T.H.K.K.H.i.~.H.H.Y._ C C A 5 B L.L._ A H V _ w.F.G.' 6.6.A w.@.l.J x.>.>._ 5.b.>.D l.J @.V r ",
"B >.H 4.C C C H 2.Z.V 2.C.w.E.T.U.Y.Y.P.w.Y.U 7.9.8.Y.4.H 4._ 1.$.y.U.3.=.B V H ,.Z.' l.x.4.2.2.N.D.J O.H H J S H l.S D & r i q ",
"B i V _ C B C B H 2.w.C.2.,.K.y.0.J.0.P.w.T.i.U 7.T K.4.2.I.P.=.A J.y.=.q.=.H A ,.Z.6.O.Z.Z.Z.H -.x.x.5.Z.x.D.5.D h.D i 0 q V < ",
"4 r i 4.B H H H _ H w.Z.2.&.H 2.K.J.H.E.C.K.U 7.U 7.Y.A Z.L.=.B 2.P.y.=.t.B H A H >.@.H N.5.w.H V >.5.@.5.5._ >.J H q p >.V q r ",
"4 & _ D.H H V C H ,.4.N.4.5.C.D.Y.0.H.K.C.K.7.7.U e.Y.H 5.&.B 1.C.H J.q.L.&.2.D.5.N.>...p r 2.V r ..4.@.4.C V V V D < 0 i q r 3 ",
"_ 4 r Z.C C S i H _ A 5.4.Z.K.w.J.!.K.K.t.H.9.e.i.U Y.K.2.5._ A H B y.q.P.C.&.2.H 4.l._ D.4.A w.C H H _ 4.4.p i D D < t q q r r ",
"@.D.H H J H _ _ 4.Z.2.w.&.Z.K.w.y.y.J.Y.y.Y.Y.U.U.1.J.&.Z.Z.3.B w.J.D.C 3.4.&.4.-.x...D ..H A V _ b.V @.5.@.S V O.' q 0 i & $ 5 ",
"< r H 5._ H H i N.N.i C._ 5.P.Y.K.U 8.P.1.J.e.%.%.T.Y.&.&.Z B B n V 3.4.=.B B 4.F.G...( H H V Z i ' H C r C S D q ' i q < p r 3 ",
"q 3 , S S _ B V H i 4.Z.5.5.C.T B J.T.P.A w.%.1.y.U.T.4.D.A A $.A L.4.D b.6.5.6.N.l.O._ H _ $.Z H @.B B _ 4.H H i D t q q q B r ",
"_ C i _ C @._ C 5._ _ 2._ 4.V t.Y.U.!.P.1.J.K.T.U.0.T.5.3.0.&.%.H A 4.D b.I.5.D J +.l.D 6._ &.Z 4._ i _ J i p q q D 0 p r r 4 3 ",
"4 3 r _ S J 5.4.D.2.C C.&.2.T.P.i.%.T.y._ Y.P.0.0.A K.&.C.C.t.$.=._ 4.D +.n.>.>.H q l.` >.A Z Z _ @.H _ 4.Z.H S ' D q 0 3 4 r 3 ",
"4 q 4 _ C _ i q r r B w.2.H V y.y.i.&.C.&.P.0.0.J.1.0.H 2.V A B C.4...V _ _ D r J H D D J i &.T E E n T Z Z n n V G e r r B 4 i ",
"i i 4 H C J J J H -.2.2.2.2.&.H 0.w.A y.&.1.A 0.%.q.1.&.V A &.i H H Z.H 4.p V H ..6.p D H V C T l z Q / ^ Y ! L P ~ x K M N r , ",
"3 r H _ V J i S A H H &.H &.&.w.2.K.3.w._ w.1.&.i.y.J.=.3.C x...V B w.@.>.5.D.D q D D D _ _ V N b W b v c k j K h x g g ; ; 5 q ",
"4 r i H V J V V 5._ i &.1.y.w.H.A y.t.w._ 2.8.t.i.y.y.A 3.i @...,.&.5.J C @.6.< < D ' i q p i C U U n Z B n N V R m 3 e B 3 1 4 ",
"i B 3 H V V V B _ 4.A Z.H &.2.T.t.t.3.0.=.$.A H Z $.$.Z _ C 4.x.w.,._ C p C 6.y y V D p _ O.i q C y q ` D i S q u w 6 q q p 4 1 "
};
